<svg width="688" height="685" viewBox="0 0 688 685" fill="none" xmlns="http://www.w3.org/2000/svg">
<ellipse cx="313" cy="385.5" rx="313" ry="299.5" fill="#FEB16C"/>
<g clip-path="url(#clip0_234_5)">
<path d="M682.733 540.18C682.618 541.081 682.541 541.982 682.388 542.845L681.928 545.49L680.99 550.782C680.607 552.565 680.147 554.328 679.745 556.092C679.285 557.875 678.94 559.639 678.347 561.383L676.68 566.656C676.163 568.419 675.378 570.145 674.707 571.87L673.654 574.458L673.137 575.762L672.524 577.046L670.034 582.108C666.452 588.76 662.219 595.163 657.163 600.895C652.068 606.589 646.322 611.689 640.116 615.926C633.91 620.163 627.244 623.537 620.407 626.029C613.588 628.502 606.597 630.132 599.663 631.052C592.71 631.953 585.796 632.126 578.977 631.665C575.568 631.435 572.197 631.033 568.845 630.438C567.159 630.151 565.512 629.806 563.827 629.403C563.003 629.212 562.16 628.981 561.337 628.771C560.475 628.54 559.709 628.31 558.713 628.004C555.38 626.988 553.484 623.46 554.48 620.105C555.15 617.92 556.893 616.348 558.962 615.811L560.111 615.523C560.666 615.389 561.471 615.255 562.16 615.121L564.344 614.699C565.819 614.411 567.274 614.124 568.73 613.798C571.641 613.184 574.514 612.494 577.349 611.746C583.019 610.251 588.516 608.564 593.764 606.532C598.993 604.519 603.954 602.199 608.589 599.573C613.186 596.927 617.438 593.994 621.249 590.696C625.061 587.418 628.432 583.795 631.343 579.845C634.178 575.839 636.496 571.468 638.488 566.905C642.223 557.626 644.387 547.35 644.885 536.499C646.149 515.104 640.939 493.996 631.094 474.518C630.922 474.173 630.75 473.828 630.577 473.502C628.26 468.978 625.616 464.588 622.839 460.274C619.889 455.596 616.652 451.072 613.186 446.701C609.719 442.349 606.118 438.035 602.306 433.99C600.391 431.996 598.476 429.964 596.522 428.066C595.545 427.108 594.568 426.168 593.591 425.286L592.174 423.964L591.082 422.967L590.086 422.085C581.295 414.205 580.548 400.67 588.42 391.871C596.043 383.359 608.991 382.419 617.783 389.513L619.162 390.625L620.273 391.564C620.981 392.158 621.69 392.772 622.36 393.366C623.72 394.574 625.023 395.782 626.306 396.989C628.892 399.424 631.324 401.897 633.718 404.447C638.469 409.528 643.008 414.78 647.203 420.34C651.416 425.861 655.381 431.613 659.021 437.594C661.702 442.042 664.23 446.586 666.567 451.244C667.391 452.893 668.195 454.542 668.942 456.229C674.899 469.074 679.4 482.819 681.775 497.064C684.342 511.231 684.514 525.897 682.733 540.18Z" fill="#8E8FB3"/>
<path d="M666.605 451.226C659.346 461.214 648.007 469.477 630.577 473.484C628.26 468.959 625.616 464.569 622.839 460.255C619.889 455.578 616.652 451.053 613.186 446.682C609.719 442.33 606.118 438.017 602.306 433.972C600.372 431.978 598.456 429.946 596.522 428.048C595.545 427.089 594.568 426.15 593.591 425.268L592.174 423.945L591.082 422.948L590.086 422.066C581.295 414.187 580.548 400.652 588.42 391.852C596.043 383.34 608.991 382.401 617.783 389.494L619.162 390.606L620.273 391.545C620.981 392.14 621.69 392.753 622.36 393.348C623.72 394.555 625.023 395.763 626.306 396.971C628.892 399.406 631.324 401.879 633.718 404.429C638.469 409.509 643.008 414.762 647.203 420.322C651.416 425.843 655.381 431.594 659.02 437.576C661.74 442.024 664.269 446.548 666.605 451.226Z" fill="white"/>
<g opacity="0.25">
<path d="M681.813 497.026C679.457 482.781 674.937 469.055 668.98 456.191C668.214 454.523 667.429 452.855 666.605 451.206C664.268 446.528 661.74 442.004 659.059 437.556C655.419 431.575 651.455 425.823 647.241 420.302C643.046 414.742 638.507 409.489 633.757 404.409C631.362 401.859 628.911 399.386 626.344 396.951C625.042 395.744 623.739 394.536 622.398 393.328C621.728 392.734 621.019 392.12 620.311 391.526L619.2 390.587L617.821 389.475C609.029 382.381 596.081 383.321 588.458 391.833C587.96 392.389 587.5 392.964 587.06 393.558C591.465 393.75 595.832 395.168 599.491 397.891L600.87 398.907L601.981 399.77C602.689 400.326 603.398 400.882 604.068 401.437C605.428 402.549 606.731 403.661 608.014 404.792C610.6 407.036 613.032 409.336 615.426 411.675C620.177 416.372 624.716 421.222 628.911 426.341C633.125 431.441 637.089 436.751 640.748 442.272C643.429 446.375 645.958 450.574 648.294 454.868C649.118 456.382 649.922 457.916 650.669 459.469C656.626 471.336 661.127 484.008 663.502 497.16C666.031 510.273 666.203 523.827 664.422 536.998C664.307 537.822 664.23 538.647 664.077 539.471L663.617 541.925L662.679 546.813C662.296 548.443 661.836 550.092 661.434 551.721C660.974 553.351 660.648 554.98 660.036 556.61L658.369 561.48C657.852 563.109 657.067 564.7 656.396 566.292L655.343 568.688L654.826 569.877L654.213 571.046L651.723 575.724C648.141 581.878 643.908 587.763 638.851 593.055C633.757 598.308 628.01 603.005 621.805 606.935C615.599 610.846 608.933 613.951 602.096 616.252C595.277 618.533 588.286 620.029 581.352 620.891C574.399 621.716 567.485 621.888 560.666 621.447C558.54 621.313 556.433 621.102 554.326 620.853C553.809 623.959 555.648 627.026 558.732 627.966C559.728 628.272 560.494 628.502 561.356 628.732C562.179 628.943 563.022 629.173 563.846 629.365C565.512 629.768 567.178 630.113 568.864 630.4C572.216 630.995 575.606 631.397 578.996 631.627C585.815 632.087 592.729 631.915 599.682 631.014C606.616 630.094 613.607 628.483 620.426 625.991C627.264 623.499 633.91 620.125 640.135 615.888C646.341 611.632 652.087 606.551 657.182 600.857C662.238 595.125 666.471 588.741 670.053 582.07L672.543 577.008L673.156 575.743L673.673 574.439L674.726 571.851C675.397 570.126 676.182 568.4 676.699 566.637L678.366 561.365C678.959 559.62 679.304 557.856 679.764 556.073C680.185 554.309 680.645 552.527 681.009 550.763L681.947 545.471L682.407 542.826C682.579 541.944 682.637 541.043 682.752 540.161C684.514 525.898 684.342 511.232 681.813 497.026Z" fill="#000072"/>
</g>
<path d="M586.236 635.979C583.727 635.979 581.218 635.902 578.709 635.73C574.936 635.461 571.469 635.04 568.136 634.445C566.527 634.177 564.803 633.832 562.907 633.372C562.122 633.18 561.356 632.969 560.57 632.777L560.283 632.701C559.517 632.509 558.827 632.298 558.004 632.03L557.525 631.876C554.863 631.071 552.679 629.288 551.377 626.834C550.055 624.38 549.787 621.562 550.591 618.897C551.645 615.389 554.403 612.743 557.946 611.823L559.095 611.536C559.689 611.382 560.34 611.267 560.992 611.152L563.577 610.654C565.033 610.385 566.47 610.079 567.887 609.772C571.028 609.101 573.786 608.449 576.315 607.759C582.348 606.168 587.558 604.519 592.308 602.678C597.441 600.704 602.249 598.442 606.597 595.988C611.059 593.419 615.12 590.581 618.606 587.571C622.169 584.523 625.348 581.092 628.068 577.391C630.5 573.979 632.684 569.991 634.753 565.294C638.315 556.38 640.365 546.602 640.843 536.269C642.012 516.331 637.53 496.182 627.474 476.32C625.406 472.179 622.858 467.77 619.43 462.421C616.576 457.916 613.415 453.468 610.025 449.174C605.984 444.093 602.594 440.144 599.376 436.732L598.801 436.118C597.135 434.374 595.411 432.571 593.706 430.923C592.768 430.002 591.81 429.082 590.871 428.22L587.386 425.056C576.928 415.682 576.046 399.558 585.413 389.091C594.453 378.988 609.814 377.761 620.368 386.292L623.433 388.823C624.007 389.321 624.582 389.819 625.137 390.299C626.306 391.334 627.608 392.523 629.141 393.98C631.477 396.184 633.891 398.6 636.725 401.591C642.069 407.304 646.57 412.614 650.497 417.829C654.826 423.503 658.886 429.427 662.545 435.428C666.567 442.1 669.881 448.33 672.696 454.484C679.093 468.307 683.518 482.398 685.836 496.335C688.364 510.522 688.67 525.437 686.774 540.659C686.736 540.966 686.697 541.254 686.678 541.541C686.602 542.174 686.525 542.845 686.41 543.554L684.993 551.491C684.993 551.529 684.974 551.568 684.974 551.606C684.706 552.871 684.399 554.118 684.093 555.383C683.958 555.939 683.824 556.476 683.69 557.012C683.537 557.626 683.403 558.163 683.269 558.699C682.962 559.984 682.656 561.307 682.177 562.687L680.53 567.863C680.147 569.186 679.611 570.509 679.093 571.793C678.883 572.292 678.691 572.81 678.481 573.308L676.872 577.257C676.833 577.334 676.814 577.411 676.776 577.487L673.673 583.852C673.654 583.891 673.635 583.948 673.596 583.986C669.612 591.387 665.111 597.962 660.189 603.541C654.807 609.561 648.831 614.833 642.395 619.242C635.998 623.613 629.064 627.16 621.786 629.806C614.986 632.279 607.727 634.043 600.18 635.04C595.583 635.672 590.91 635.979 586.236 635.979ZM604.356 388.803C599.606 388.803 594.875 390.759 591.465 394.555C585.106 401.667 585.7 412.633 592.806 418.998L596.369 422.219C597.365 423.139 598.38 424.117 599.376 425.095C601.176 426.839 602.938 428.699 604.662 430.482L605.256 431.114C608.646 434.719 612.17 438.84 616.365 444.113C619.947 448.637 623.28 453.315 626.268 458.05C629.849 463.629 632.531 468.288 634.714 472.678C645.402 493.824 650.191 515.372 648.926 536.71C648.428 547.925 646.168 558.604 642.242 568.4C642.223 568.438 642.203 568.477 642.203 568.515C639.905 573.768 637.434 578.235 634.638 582.184C631.516 586.44 627.915 590.332 623.873 593.783C620.004 597.119 615.541 600.263 610.6 603.1C605.888 605.784 600.716 608.2 595.219 610.328C590.201 612.283 584.685 614.028 578.383 615.677C575.74 616.386 572.848 617.076 569.573 617.766C568.079 618.092 566.585 618.399 565.091 618.686L562.371 619.204C561.911 619.281 561.432 619.357 561.087 619.453L559.938 619.741C559.172 619.933 558.578 620.508 558.348 621.275C558.176 621.85 558.234 622.463 558.521 622.981C558.808 623.518 559.287 623.901 559.862 624.074L560.36 624.227C561.087 624.438 561.681 624.63 562.352 624.802L562.639 624.879C563.348 625.07 564.056 625.262 564.765 625.435C566.47 625.837 568.021 626.163 569.496 626.393C572.599 626.949 575.759 627.333 579.245 627.582C585.872 628.042 592.576 627.831 599.127 627.007C606.06 626.087 612.745 624.476 618.989 622.195C625.635 619.779 631.956 616.539 637.779 612.571C643.659 608.545 649.156 603.694 654.079 598.192C658.561 593.112 662.698 587.073 666.375 580.267L669.363 574.132L670.877 570.375C671.068 569.876 671.298 569.34 671.509 568.784C671.968 567.652 672.409 566.56 672.715 565.544L674.42 560.176C674.803 559.083 675.052 557.99 675.32 556.859C675.454 556.265 675.607 555.67 675.761 555.095C675.876 554.616 676.01 554.06 676.144 553.485C676.431 552.335 676.699 551.184 676.948 550.034L678.346 542.174C678.442 541.675 678.481 541.177 678.538 540.678C678.576 540.352 678.615 540.007 678.653 539.682C680.453 525.303 680.147 511.193 677.772 497.773C675.569 484.507 671.355 471.125 665.264 457.954C662.564 452.069 659.384 446.106 655.534 439.703C652.029 433.971 648.141 428.277 643.966 422.813C640.192 417.81 635.864 412.71 630.73 407.227C628.03 404.37 625.731 402.07 623.509 399.98C622.015 398.581 620.79 397.45 619.64 396.434C619.123 395.954 618.606 395.532 618.108 395.092L615.216 392.695C612.036 390.069 608.186 388.803 604.356 388.803Z" fill="#000072"/>
<path d="M343.578 603.081C338.426 616.827 338.272 624.419 338.521 627.372C338.617 628.407 338.751 628.886 338.751 628.886L318.199 658.18C316.284 660.768 314.484 663.184 312.855 665.35C312.855 665.35 312.836 665.369 312.836 665.388C309.848 669.357 305.903 672.405 301.459 674.341C301.421 674.36 301.402 674.38 301.363 674.38C298.145 675.76 294.679 676.546 291.097 676.68C291.059 676.68 291.02 676.699 291.001 676.68C290.733 676.699 290.446 676.699 290.158 676.699H244.285C244.285 676.699 238.98 676.584 232.831 674.859C232.831 674.859 232.755 674.84 232.601 674.782C226.74 673.114 220.19 669.97 216.8 664.104C216.78 664.085 216.78 664.065 216.761 664.046C215.076 661.113 214.156 657.509 214.52 653.08C214.712 650.722 215.229 648.556 216.033 646.562C216.742 644.779 217.662 643.13 218.734 641.616C218.753 641.597 218.753 641.597 218.753 641.577C228.254 628.253 250.165 624.726 250.165 624.726C278.168 591.636 303.298 548.021 303.298 548.021C337.564 553.332 345.302 571.851 345.953 585.981C346.394 595.547 343.578 603.081 343.578 603.081Z" fill="#8E8FB3"/>
<g opacity="0.25">
<path d="M343.578 603.082C338.426 616.827 338.272 624.419 338.521 627.372L312.836 665.35C312.836 665.35 312.817 665.369 312.817 665.388C312.568 665.848 309.484 671.121 301.44 674.341C301.401 674.361 301.382 674.38 301.344 674.38C298.548 675.492 295.157 676.354 291.078 676.68C291.039 676.68 291.001 676.699 290.982 676.68C288.779 676.872 286.366 676.872 283.723 676.699L232.812 674.859C232.812 674.859 232.735 674.84 232.582 674.782C230.992 674.303 221.569 671.178 216.78 664.104C216.761 664.085 216.761 664.066 216.742 664.046C213.869 659.771 212.701 654.039 216.014 646.562C216.704 644.99 217.585 643.341 218.715 641.616C218.734 641.597 218.734 641.597 218.734 641.578C218.734 641.578 222.009 657.221 247.771 660.941C271.981 664.43 296.153 654.327 311.361 635.136L331.626 609.562C334.384 606.092 336.683 602.315 338.483 598.289C339.977 594.953 342.39 590.409 345.953 586C346.394 595.547 343.578 603.082 343.578 603.082Z" fill="#000072"/>
</g>
<g opacity="0.6">
<path d="M215.459 649.169C215.459 649.169 225.227 635.96 247.886 632.816C252.617 632.164 256.907 629.748 259.934 626.048C272.633 610.481 304.428 569.244 303.298 548.002C303.298 548.002 270.775 600.723 250.146 624.706C250.146 624.706 225.151 624.936 215.459 649.169Z" fill="white"/>
</g>
<path d="M229.077 676.469L228.79 675.951L228.56 675.51C228.426 675.223 228.292 674.935 228.177 674.648C227.947 674.073 227.736 673.497 227.545 672.922C227.2 671.753 226.913 670.583 226.759 669.376C226.415 666.979 226.434 664.544 226.779 662.167C227.123 659.79 227.736 657.432 228.732 655.266C229.652 653.08 230.992 651.086 232.563 649.38C232.965 648.958 233.616 648.92 234.057 649.322C234.287 649.533 234.402 649.84 234.402 650.128V650.204C234.325 652.447 234.114 654.46 234.191 656.493C234.172 657.489 234.287 658.486 234.306 659.445C234.421 660.423 234.44 661.381 234.593 662.321C234.823 664.219 235.168 666.078 235.532 667.899L236.087 670.641L236.355 671.983L236.47 672.635L236.528 672.942C236.547 673.037 236.566 673.152 236.547 673.172L233.444 676.852C232.506 677.984 230.82 678.118 229.69 677.178C229.441 677.006 229.23 676.737 229.077 676.469Z" fill="#000072"/>
<path d="M249.342 677.926L249.054 677.408L248.825 676.967C248.69 676.68 248.556 676.392 248.441 676.105C248.212 675.53 248.001 674.955 247.809 674.379C247.465 673.21 247.177 672.04 247.024 670.833C246.679 668.436 246.698 666.001 247.043 663.624C247.388 661.247 248.001 658.889 248.997 656.723C249.916 654.537 251.257 652.543 252.828 650.837C253.23 650.415 253.881 650.377 254.322 650.779C254.552 650.99 254.666 651.297 254.666 651.585V651.661C254.59 653.904 254.379 655.917 254.456 657.95C254.437 658.946 254.552 659.943 254.571 660.902C254.666 661.88 254.705 662.838 254.858 663.778C255.088 665.676 255.433 667.535 255.796 669.356L256.352 672.098L256.62 673.44L256.735 674.092L256.792 674.399C256.812 674.494 256.831 674.609 256.812 674.629L253.709 678.309C252.77 679.441 251.085 679.575 249.955 678.635C249.706 678.463 249.495 678.214 249.342 677.926Z" fill="#000072"/>
<path d="M303.681 548.232C300.865 555.632 297.284 562.61 293.472 569.435C291.537 572.848 289.526 576.203 287.477 579.539C285.447 582.874 283.378 586.21 281.233 589.489C277 596.084 272.556 602.544 267.94 608.89C263.324 615.236 258.421 621.409 253.268 627.371L253.038 627.62C252.445 628.31 251.64 628.675 250.797 628.751C249.916 628.905 248.805 629.135 247.809 629.384C246.794 629.633 245.76 629.902 244.745 630.189C242.715 630.784 240.703 631.455 238.75 632.241C234.842 633.793 231.107 635.711 227.89 638.126C224.672 640.523 221.99 643.417 220.381 646.734C219.577 648.383 219.021 650.147 218.734 651.968C218.447 653.789 218.428 655.706 218.677 657.432C219.194 660.902 220.994 663.873 223.906 666.155C226.779 668.455 230.552 670.046 234.498 671.101C236.47 671.618 238.52 672.021 240.589 672.289C241.623 672.424 242.657 672.539 243.653 672.596L244.324 672.635H245.128H246.813H260.259H287.132L290.446 672.615C291.403 672.596 292.361 672.539 293.319 672.404C295.215 672.155 297.092 671.676 298.892 670.986C302.474 669.605 305.73 667.362 308.278 664.506C308.603 664.161 308.91 663.777 309.197 663.413L309.657 662.838L310.155 662.167L312.166 659.483L316.15 654.096C318.793 650.492 321.417 646.868 323.984 643.245C329.136 635.96 334.193 628.617 338.905 621.121C340.111 619.223 342.62 618.648 344.517 619.856C346.413 621.064 346.987 623.575 345.781 625.473C340.935 633.161 335.821 640.618 330.611 647.98C328.006 651.661 325.363 655.323 322.7 658.946L318.678 664.372L316.648 667.075L316.15 667.746L315.556 668.493C315.154 668.992 314.752 669.49 314.311 669.97C310.902 673.804 306.554 676.795 301.765 678.635C299.371 679.555 296.862 680.188 294.334 680.533C293.07 680.706 291.786 680.782 290.503 680.802L287.094 680.821H260.183H246.718H245.032H244.151L243.136 680.763C241.91 680.686 240.703 680.552 239.516 680.399C237.122 680.073 234.766 679.632 232.41 678.999C227.736 677.734 223.005 675.855 218.83 672.558C216.761 670.909 214.865 668.877 213.429 666.481C211.992 664.103 211.054 661.4 210.632 658.697C210.23 655.975 210.287 653.348 210.69 650.741C211.092 648.134 211.896 645.545 213.065 643.168C215.401 638.395 219.06 634.56 223.005 631.608C226.989 628.636 231.318 626.451 235.743 624.687C237.964 623.805 240.205 623.058 242.466 622.387C243.596 622.061 244.745 621.754 245.894 621.466C247.082 621.179 248.154 620.949 249.495 620.719L247.043 622.099C251.87 616.117 256.678 610.098 261.37 603.982C266.044 597.847 270.698 591.674 275.238 585.386C277.498 582.242 279.796 579.117 282.018 575.954L288.741 566.445C293.261 560.137 297.858 553.849 302.915 547.81C303.068 547.618 303.355 547.599 303.547 547.753C303.7 547.848 303.738 548.059 303.681 548.232Z" fill="#000072"/>
<path d="M584.359 593.209C580.969 679.959 497.21 680.917 455.857 680.917C414.504 680.917 404.257 662.014 404.257 662.014C326.952 650.416 299.812 599.995 290.292 567.519C285.504 551.185 285.178 539.414 285.178 539.414C288.109 427.952 419.752 439.781 419.752 439.781C451.011 440.854 476.888 445.129 498.129 452.204C498.148 452.204 498.148 452.223 498.148 452.223C566.795 475.037 586.945 526.952 584.359 593.209Z" fill="#8E8FB3"/>
<path d="M281.367 536.442C281.367 536.442 352.082 518.325 359.341 548.002C366.601 577.679 380.411 595.969 404.008 604.577C404.008 604.577 392.516 632.72 404.257 661.995C404.257 662.014 303.24 658.448 281.367 536.442Z" fill="white"/>
<path d="M450.552 644.434C449.939 654.653 442.354 662.513 433.62 661.995C424.886 661.458 418.297 652.755 418.91 642.536C419.523 632.318 427.107 624.458 435.842 624.975C444.595 625.493 451.184 634.216 450.552 644.434Z" fill="white"/>
<path d="M425.671 618.687C425.345 624.017 421.399 628.1 416.86 627.832C412.321 627.564 408.892 623.02 409.198 617.69C409.524 612.361 413.47 608.277 418.009 608.546C422.568 608.833 425.996 613.377 425.671 618.687Z" fill="white"/>
<path d="M460.703 619.205C460.377 624.535 456.432 628.618 451.892 628.35C447.353 628.081 443.924 623.538 444.231 618.208C444.556 612.878 448.502 608.795 453.041 609.063C457.581 609.351 461.009 613.894 460.703 619.205Z" fill="white"/>
<path d="M443.426 609.753C443.101 615.083 439.155 619.166 434.616 618.898C430.076 618.629 426.648 614.086 426.954 608.775C427.28 603.446 431.225 599.362 435.765 599.631C440.304 599.88 443.733 604.424 443.426 609.753Z" fill="white"/>
<g opacity="0.25">
<path d="M584.359 593.209C580.969 679.959 497.21 680.917 455.857 680.917C414.504 680.917 404.257 662.015 404.257 662.015C326.953 650.416 299.812 599.995 290.292 567.519C306.554 578.504 330.668 582.3 359.342 548.022C358.48 549.287 307.129 626.011 399.296 624.573C399.296 624.573 404.027 674.591 486.81 662.302C569.592 650.013 609.949 527.796 498.149 452.185C566.795 475.037 586.945 526.953 584.359 593.209Z" fill="#000072"/>
</g>
<g opacity="0.25">
<path d="M471.314 653.291C471.314 653.291 500.523 625.704 466.545 581.476L459.439 590.544C459.439 590.544 484.377 608.469 471.314 653.291Z" fill="#000072"/>
</g>
<path d="M400.809 664.199C400.656 663.969 400.579 663.816 400.503 663.682L400.273 663.26C400.139 662.992 399.986 662.723 399.852 662.455C399.603 661.937 399.354 661.4 399.124 660.883C398.894 660.365 398.683 659.847 398.492 659.33C398.281 658.812 398.09 658.295 397.936 657.777C397.208 655.706 396.672 653.617 396.193 651.508C395.312 647.309 394.795 643.092 394.584 638.893C394.431 634.695 394.45 630.496 394.776 626.336C394.814 625.301 394.948 624.246 395.063 623.192C395.178 622.138 395.293 621.083 395.427 620.029L395.983 616.885C396.078 616.367 396.155 615.83 396.27 615.313L396.653 613.76C397.592 609.58 399.066 605.497 400.886 601.528C402.667 597.56 405.138 593.821 408.03 590.428C410.942 587.054 414.408 584.044 418.431 581.839C422.415 579.616 426.82 578.159 431.321 577.545C440.285 576.337 449.651 578.504 457.102 583.526C460.856 585.98 464.112 589.125 466.775 592.652C469.456 596.16 471.544 600.052 473.076 604.078C476.179 612.149 477.271 620.7 477.156 629.02C477.099 633.199 476.543 637.321 475.624 641.347C474.724 645.373 473.364 649.284 471.582 653.022C471.487 653.233 471.218 653.329 471.008 653.233C470.854 653.157 470.759 653.003 470.759 652.85C470.491 644.625 470.931 636.804 470.586 629.078C470.452 625.224 470.146 621.39 469.437 617.651C468.728 613.932 467.675 610.29 466.238 606.877C463.385 600.033 458.711 594.128 452.716 590.332C446.759 586.498 439.442 585.003 432.528 586.095C425.633 587.131 419.312 590.697 414.792 596.237C410.175 601.682 407.092 608.583 405.387 615.849L405.042 617.21C404.947 617.671 404.87 618.131 404.793 618.591L404.295 621.371L403.951 624.189C403.836 625.128 403.702 626.068 403.663 627.026C403.318 630.88 403.261 634.714 403.376 638.548C403.491 642.363 403.874 646.14 404.583 649.821C404.966 651.642 405.349 653.463 405.904 655.208C406.038 655.649 406.172 656.071 406.326 656.493C406.46 656.914 406.613 657.336 406.785 657.739C406.939 658.16 407.111 658.544 407.283 658.927C407.36 659.119 407.456 659.292 407.532 659.464L407.647 659.694C407.686 659.771 407.724 659.847 407.724 659.828C408.931 661.726 408.375 664.257 406.46 665.465C404.544 666.672 402.016 666.097 400.809 664.199Z" fill="#000072"/>
<path d="M456.796 589.547C457.294 588.492 457.734 587.668 458.213 586.767C458.692 585.885 459.209 585.022 459.707 584.16C460.741 582.453 461.833 580.805 463.001 579.175C465.3 575.935 467.905 572.887 470.682 570.011C473.498 567.155 476.543 564.509 479.838 562.151C483.151 559.831 486.733 557.818 490.506 556.227C494.299 554.693 498.263 553.505 502.324 552.987C506.385 552.45 510.483 552.431 514.487 553.025C515.483 553.16 516.459 553.409 517.455 553.601L518.93 553.907C519.409 554.022 519.888 554.195 520.367 554.329L523.201 555.23C524.121 555.594 525.04 555.959 525.94 556.361C527.779 557.071 529.465 558.087 531.169 559.007C532.031 559.448 532.817 560.061 533.621 560.579C534.426 561.116 535.211 561.672 535.996 562.247C536.188 562.381 536.226 562.63 536.092 562.822C535.977 562.975 535.805 563.033 535.632 562.975H535.613C528.335 560.636 521.114 558.949 513.989 558.815C510.426 558.777 506.921 559.141 503.492 559.831C500.064 560.521 496.789 561.768 493.647 563.301C487.346 566.33 481.753 570.816 476.83 576.012C474.36 578.6 472.061 581.38 469.916 584.275C468.862 585.732 467.828 587.208 466.832 588.703L465.396 590.965C464.936 591.694 464.438 592.537 464.093 593.17L464.036 593.285C462.944 595.26 460.473 595.988 458.5 594.896C456.604 593.822 455.876 591.483 456.796 589.547Z" fill="#000072"/>
<path d="M455.857 685.001C419.695 685.001 405.77 670.91 401.882 665.791C341.375 656.148 311.764 622.656 297.552 596.123C282.037 567.136 281.137 540.66 281.099 539.548C281.099 539.471 281.099 539.395 281.099 539.337C281.903 508.529 292.38 483.951 312.223 466.256C352.274 430.559 415.941 435.39 420.001 435.735C484.07 437.94 528.545 453.392 555.974 482.935C579.724 508.51 590.335 544.648 588.42 593.4C584.838 685.001 494.452 685.001 455.857 685.001ZM407.82 660.04C408.03 660.385 418.105 676.834 455.857 676.834C495.18 676.834 577.004 676.834 580.28 593.036C582.099 546.565 572.197 512.344 549.997 488.437C524.102 460.543 481.446 445.954 419.599 443.845C419.522 443.845 419.446 443.845 419.369 443.826C418.737 443.768 355.434 438.573 317.586 472.333C299.544 488.437 290.005 510.983 289.22 539.376C289.296 541.082 290.58 566.024 304.868 592.518C324.482 628.925 358.116 650.952 404.832 657.95C406.115 658.161 407.207 658.928 407.82 660.04Z" fill="#000072"/>
<path d="M359.916 548.021C359.916 548.021 334.787 591.655 306.765 624.726C306.765 624.726 272.939 630.171 271.12 653.08C269.3 675.971 300.904 676.699 300.904 676.699H346.777C355.702 676.699 364.092 672.501 369.455 665.369C371.083 663.203 372.883 660.787 374.799 658.199L395.351 628.905C395.351 628.905 393.282 621.563 400.177 603.101C400.196 603.062 417.416 556.917 359.916 548.021Z" fill="#8E8FB3"/>
<g opacity="0.25">
<path d="M275.333 641.578C275.333 641.578 278.609 657.221 304.39 660.941C328.6 664.43 352.772 654.327 367.98 635.136L388.244 609.542C390.983 606.072 393.282 602.296 395.102 598.27C400.465 586.326 417.569 558.949 456.853 576.434C456.853 576.434 486.809 523.061 535.824 562.63C535.824 562.63 490.755 535.599 460.454 591.368C460.454 591.368 412.493 558.815 399.909 620.355L369.455 665.35C369.455 665.35 362.617 678.272 340.341 676.68L289.431 674.84C289.431 674.84 259.244 666.443 275.333 641.578Z" fill="#000072"/>
</g>
<g opacity="0.6">
<path d="M272.077 649.169C272.077 649.169 281.846 635.96 304.504 632.816C309.235 632.164 313.526 629.748 316.552 626.048C329.251 610.481 361.046 569.244 359.916 548.002C359.916 548.002 327.393 600.723 306.765 624.706C306.765 624.706 281.769 624.936 272.077 649.169Z" fill="white"/>
</g>
<path d="M285.695 676.469L285.408 675.951L285.178 675.51C285.044 675.223 284.91 674.935 284.795 674.648C284.565 674.073 284.355 673.497 284.163 672.922C283.818 671.753 283.531 670.583 283.378 669.376C283.033 666.979 283.052 664.544 283.397 662.167C283.742 659.79 284.355 657.432 285.351 655.266C286.27 653.08 287.611 651.086 289.181 649.38C289.584 648.958 290.235 648.92 290.675 649.322C290.905 649.533 291.02 649.84 291.02 650.128V650.204C290.924 652.447 290.733 654.46 290.81 656.493C290.79 657.489 290.905 658.486 290.924 659.445C291.039 660.423 291.058 661.381 291.212 662.321C291.442 664.219 291.786 666.078 292.15 667.899L292.706 670.641L292.974 671.983L293.089 672.635L293.146 672.942C293.165 673.037 293.185 673.152 293.165 673.172L290.063 676.852C289.124 677.984 287.438 678.118 286.308 677.178C286.059 677.006 285.849 676.737 285.695 676.469Z" fill="#000072"/>
<path d="M305.96 677.926L305.673 677.408L305.443 676.967C305.309 676.68 305.175 676.392 305.06 676.105C304.83 675.53 304.619 674.955 304.428 674.379C304.083 673.21 303.796 672.04 303.643 670.833C303.298 668.436 303.317 666.001 303.662 663.624C304.006 661.247 304.619 658.889 305.615 656.723C306.535 654.537 307.875 652.543 309.446 650.837C309.829 650.415 310.5 650.377 310.94 650.779C311.17 650.99 311.285 651.297 311.285 651.585V651.661C311.208 653.904 310.998 655.917 311.074 657.95C311.055 658.946 311.17 659.943 311.189 660.902C311.304 661.88 311.323 662.838 311.476 663.778C311.706 665.676 312.051 667.535 312.415 669.356L312.97 672.098L313.239 673.44L313.353 674.092L313.411 674.399C313.43 674.494 313.449 674.609 313.43 674.629L310.327 678.309C309.389 679.441 307.703 679.575 306.573 678.635C306.324 678.463 306.113 678.214 305.96 677.926Z" fill="#000072"/>
<path d="M360.28 548.232C357.465 555.632 353.883 562.61 350.071 569.435C348.156 572.848 346.126 576.203 344.076 579.539C342.046 582.874 339.977 586.21 337.832 589.489C333.599 596.084 329.155 602.544 324.539 608.89C319.923 615.236 315.02 621.409 309.868 627.371L309.638 627.62C309.044 628.31 308.239 628.675 307.397 628.751C306.516 628.905 305.405 629.135 304.409 629.384C303.394 629.633 302.359 629.902 301.344 630.189C299.314 630.784 297.303 631.455 295.349 632.241C291.442 633.793 287.707 635.711 284.489 638.126C281.271 640.523 278.59 643.417 276.981 646.734C276.176 648.383 275.621 650.147 275.333 651.968C275.046 653.789 275.027 655.706 275.276 657.432C275.793 660.902 277.594 663.873 280.505 666.155C283.378 668.455 287.151 670.046 291.097 671.101C293.07 671.618 295.119 672.021 297.188 672.289C298.222 672.424 299.256 672.539 300.252 672.596L300.923 672.635H301.727H303.413H316.859H343.731L347.045 672.615C348.003 672.596 348.96 672.539 349.918 672.404C351.814 672.155 353.691 671.676 355.492 670.986C359.073 669.605 362.33 667.362 364.877 664.506C365.203 664.161 365.509 663.777 365.796 663.413L366.256 662.838L366.754 662.167L368.765 659.483L372.749 654.096C375.392 650.492 378.016 646.868 380.602 643.245C385.755 635.96 390.811 628.617 395.523 621.121C396.73 619.223 399.239 618.648 401.135 619.856C403.031 621.064 403.606 623.575 402.418 625.473C397.572 633.161 392.458 640.618 387.249 647.98C384.644 651.661 382 655.323 379.338 658.946L375.316 664.372L373.285 667.075L372.787 667.746L372.194 668.493C371.791 668.992 371.389 669.49 370.949 669.97C367.539 673.804 363.191 676.795 358.403 678.635C356.009 679.555 353.5 680.188 350.971 680.533C349.707 680.706 348.424 680.782 347.141 680.802L343.731 680.821H316.801H303.336H301.651H300.77L299.754 680.763C298.529 680.686 297.322 680.552 296.134 680.399C293.74 680.073 291.384 679.632 289.028 678.999C284.336 677.734 279.624 675.855 275.448 672.558C273.38 670.909 271.484 668.877 270.047 666.481C268.61 664.103 267.672 661.4 267.251 658.697C266.848 655.975 266.906 653.348 267.308 650.741C267.71 648.134 268.515 645.545 269.683 643.168C272.02 638.395 275.678 634.56 279.624 631.608C283.608 628.636 287.937 626.451 292.361 624.687C294.564 623.805 296.824 623.058 299.084 622.387C300.214 622.061 301.363 621.754 302.513 621.466C303.7 621.179 304.773 620.949 306.113 620.719L303.662 622.099C308.488 616.117 313.296 610.098 317.989 603.982C322.662 597.847 327.317 591.674 331.856 585.386C334.116 582.242 336.415 579.117 338.656 575.954L345.379 566.445C349.899 560.137 354.496 553.849 359.552 547.81C359.705 547.618 359.993 547.599 360.184 547.753C360.299 547.848 360.357 548.059 360.28 548.232Z" fill="#000072"/>
<path d="M299.065 279.681C299.065 279.681 277.574 250.732 222.546 235.97C205.939 231.503 189.276 242.929 187.533 260.068C183.721 297.414 181.365 361.254 202.262 403.968C202.262 403.968 215.555 307.652 299.065 279.681Z" fill="#8E8FB3"/>
<g opacity="0.6">
<path d="M201.936 403.297C202.051 403.527 202.147 403.757 202.243 403.968C202.243 403.968 202.664 400.958 203.794 395.858C203.047 398.638 202.434 401.15 201.936 403.297Z" fill="white"/>
</g>
<g opacity="0.6">
<path d="M220.516 244.118C260.585 254.873 282.861 273.143 292.016 282.269C294.315 281.349 296.671 280.486 299.065 279.662C299.065 279.662 277.574 250.713 222.546 235.951C205.94 231.503 189.276 242.929 187.533 260.069C187.533 260.126 187.514 260.203 187.514 260.26C192.723 247.761 206.629 240.399 220.516 244.118Z" fill="white"/>
</g>
<path d="M267.71 289.995C245.741 301.612 227.468 330.446 218.485 346.703C214.616 353.682 212.471 358.34 212.471 358.34C196.267 306.022 212.471 258.496 212.471 258.496C215.746 259.819 219.041 261.276 222.278 262.81C246.143 274.14 267.71 289.995 267.71 289.995Z" fill="#F17E80"/>
<g opacity="0.25">
<path d="M267.71 289.994C245.741 301.612 227.468 330.446 218.485 346.703C210.115 305.485 216.723 277.322 222.278 262.81C246.143 274.14 267.71 289.994 267.71 289.994Z" fill="#000072"/>
</g>
<path d="M211.168 262.081C209.54 261.333 208.008 260.375 206.495 259.359C204.982 258.323 203.488 257.269 202.224 255.639C201.84 255.141 201.936 254.432 202.434 254.048C202.587 253.933 202.741 253.857 202.913 253.837H202.932C204.982 253.473 206.782 253.684 208.563 253.914C210.345 254.163 212.107 254.47 213.792 254.988L213.869 255.007C215.88 255.62 217.01 257.748 216.397 259.761C215.784 261.774 213.658 262.905 211.647 262.292C211.494 262.215 211.302 262.139 211.168 262.081Z" fill="#000072"/>
<path d="M212.49 362.156C212.414 362.156 212.318 362.156 212.241 362.156C210.671 362.06 209.33 360.986 208.87 359.491C192.494 306.578 208.219 259.282 208.908 257.308C209.253 256.33 209.962 255.525 210.92 255.084C211.858 254.643 212.95 254.624 213.908 255.007C241.431 266.069 268.821 286.103 269.97 286.947C271.024 287.713 271.598 288.979 271.503 290.282C271.407 291.586 270.641 292.755 269.492 293.35C239.593 309.166 216.148 359.452 215.919 359.951C215.306 361.293 213.946 362.156 212.49 362.156ZM214.923 263.653C211.858 274.984 204.331 309.473 213.524 347.854C221.358 333.149 238.769 304.143 260.738 289.726C252.292 283.918 233.732 271.782 214.923 263.653Z" fill="#000072"/>
<path d="M202.243 408.052C200.71 408.052 199.274 407.189 198.584 405.77C176.998 361.6 179.852 295.267 183.472 259.666C184.43 250.329 189.391 241.913 197.11 236.603C204.848 231.254 214.501 229.586 223.599 232.021C279.356 246.974 301.421 276.019 302.34 277.246C303.125 278.3 303.355 279.661 302.953 280.908C302.57 282.154 301.593 283.131 300.367 283.553C266.791 294.788 240.761 318.541 222.986 354.142C209.674 380.809 206.322 404.294 206.284 404.524C206.035 406.307 204.656 407.707 202.894 407.994C202.683 408.033 202.473 408.052 202.243 408.052ZM215.286 239.076C210.498 239.076 205.767 240.514 201.745 243.293C195.999 247.262 192.302 253.512 191.593 260.471C188.375 292.123 185.732 348.544 200.94 390.357C203.411 380.522 207.931 366.105 215.727 350.499C233.214 315.473 259.512 290.493 292.054 277.898C283.857 269.52 261.907 250.732 221.531 239.919C219.443 239.344 217.355 239.076 215.286 239.076Z" fill="#000072"/>
<path d="M498.206 403.969C498.206 403.969 487.729 328.146 428.257 287.944C418.565 281.407 407.59 275.809 395.121 271.629C395.121 271.629 418.009 240.802 476.581 225.081C494.279 220.346 512.016 232.52 513.874 250.752C514.218 254.03 514.544 257.519 514.831 261.142C518.164 301.613 518.605 362.271 498.206 403.969Z" fill="#8E8FB3"/>
<g opacity="0.25">
<path d="M498.206 403.969C498.206 403.969 487.729 328.146 428.257 287.944C428.41 284.512 428.506 282.614 428.506 282.614L487.307 249.103C487.307 249.103 501.903 238.923 514.831 261.162C518.164 301.613 518.605 362.271 498.206 403.969Z" fill="#000072"/>
</g>
<g opacity="0.6">
<path d="M480.68 231.215C492.211 228.129 503.76 232.232 510.924 240.494C504.833 228.282 490.717 221.323 476.62 225.1C418.048 240.82 395.159 271.648 395.159 271.648C397.591 272.453 399.928 273.335 402.246 274.255C410.118 265.743 434.098 243.715 480.68 231.215Z" fill="white"/>
</g>
<g opacity="0.6">
<path d="M470.625 332.345C493.226 367.907 498.206 403.969 498.206 403.969C498.895 402.55 499.566 401.112 500.198 399.655C496.827 385.258 488.591 358.13 470.625 332.345Z" fill="white"/>
</g>
<path d="M487.307 355.407C487.307 355.407 484.549 349.407 479.627 340.722C469.667 323.104 450.896 294.462 428.506 282.614C428.506 282.614 451.701 265.552 477.252 253.512C480.565 251.94 483.936 250.445 487.307 249.103C487.307 249.122 504.565 299.696 487.307 355.407Z" fill="#F17E80"/>
<g opacity="0.25">
<path d="M479.646 340.722C469.686 323.104 450.915 294.462 428.525 282.614C428.525 282.614 451.72 265.551 477.271 253.512C480.929 266.74 488.552 301.728 479.646 340.722Z" fill="#000072"/>
</g>
<path d="M485.909 245.326C487.69 244.789 489.567 244.444 491.483 244.195C493.398 243.946 495.314 243.716 497.478 244.118H497.497C498.148 244.233 498.589 244.866 498.474 245.518C498.436 245.709 498.359 245.901 498.244 246.035C496.903 247.78 495.314 248.892 493.705 249.985C492.096 251.077 490.449 252.093 488.725 252.899C486.694 253.838 484.3 252.956 483.343 250.924C482.404 248.892 483.285 246.495 485.315 245.537C485.488 245.46 485.641 245.403 485.813 245.345L485.909 245.326Z" fill="#000072"/>
<path d="M487.327 359.453C485.756 359.453 484.319 358.552 483.668 357.114C483.419 356.577 458.462 303.032 426.648 286.218C425.422 285.567 424.617 284.34 424.502 282.94C424.407 281.56 425.02 280.218 426.131 279.394C427.356 278.492 456.508 257.155 485.813 245.384C486.848 244.962 487.997 245 488.993 245.46C490.008 245.92 490.774 246.783 491.138 247.818C491.866 249.927 508.626 300.29 491.176 356.616C490.678 358.207 489.261 359.338 487.595 359.453C487.499 359.453 487.403 359.453 487.327 359.453ZM435.937 282.346C459.324 297.702 477.846 328.568 486.197 344.231C495.984 303.377 487.978 266.645 484.722 254.586C464.706 263.251 444.939 276.154 435.937 282.346Z" fill="#000072"/>
<path d="M498.206 408.052C497.995 408.052 497.785 408.033 497.555 407.994C495.793 407.707 494.414 406.307 494.165 404.524C494.126 404.275 490.487 379.007 476.237 350.557C457.294 312.732 429.559 287.464 393.818 275.501C392.573 275.08 391.616 274.102 391.233 272.856C390.849 271.61 391.079 270.248 391.845 269.194C392.822 267.89 416.266 237.044 475.528 221.151C485.143 218.582 495.352 220.346 503.531 225.982C511.69 231.599 516.938 240.495 517.934 250.349C521.784 288.231 524.83 358.782 501.864 405.751C501.175 407.189 499.738 408.052 498.206 408.052ZM402.169 269.846C436.914 283.189 464.993 309.799 483.649 347.164C492.153 364.207 496.98 379.908 499.566 390.376C516.096 345.726 513.28 285.106 509.813 251.192C509.047 243.715 505.063 236.967 498.896 232.711C492.69 228.436 484.932 227.094 477.635 229.049C434.156 240.705 410.693 261.046 402.169 269.846Z" fill="#000072"/>
<path d="M502.037 450.497C498.685 468.153 490.161 485.158 475.547 499.575C445.897 528.831 391.098 547.446 303.068 539.164C233.693 532.646 193.528 509.314 178.262 481.305C164.587 456.248 170.812 427.453 193.777 403.604C193.777 403.604 213.026 259.685 344.459 259.685C475.892 259.685 512.207 397.066 502.037 450.497Z" fill="#8E8FB3"/>
<path d="M471.525 500.707C442.679 529.176 389.355 547.274 303.719 539.222C236.222 532.876 197.167 510.177 182.285 482.935C188.433 462.537 206.093 432.936 256.869 429.102C270.43 428.086 282.152 419.363 287.075 406.672C294.219 388.248 306.152 365.204 321.034 365.626C334.499 366.009 339.154 385.928 340.628 404.007C341.931 420.111 354.189 433.128 370.125 435.659C402.667 440.835 453.118 456.038 471.525 500.707Z" fill="white"/>
<g opacity="0.25">
<path d="M425.862 529.061C443.12 522.082 456.853 513.034 467.388 502.643C482.021 488.226 490.525 471.202 493.877 453.564C501.117 415.548 484.798 335.028 427.414 291.739C466.526 334.625 477.539 396.99 471.525 428.603C468.307 445.455 460.205 461.693 446.223 475.458C417.914 503.39 365.605 521.162 281.577 513.264C229.364 508.356 194.505 493.479 174.949 474.288C175.868 476.666 176.96 479.005 178.224 481.324C193.509 509.334 233.655 532.665 303.03 539.183C356.526 544.206 397.725 539.298 428.486 528.121C427.644 528.428 426.763 528.754 425.862 529.061Z" fill="#000072"/>
</g>
<g opacity="0.6">
<path d="M436.148 289.074C412.819 271.302 382.671 259.685 344.459 259.685C213.007 259.685 193.777 403.604 193.777 403.604C170.812 427.453 164.587 456.248 178.262 481.305C184.028 491.887 193.355 501.799 206.457 510.388C197.033 503.064 190.042 494.955 185.387 486.404C171.712 461.348 179.277 430.06 202.243 406.211C202.243 406.211 209.176 351.534 246.009 310.182C249.495 311.907 256.141 309.856 262.079 304.91C268.629 299.465 271.905 292.525 269.721 288.978C290.311 274.562 317.012 264.784 351.584 264.784C386.023 264.784 413.891 274.216 436.148 289.074Z" fill="white"/>
</g>
<path d="M314.134 425.965C314.193 424.548 310.471 423.242 305.821 423.048C301.171 422.855 297.353 423.847 297.294 425.264C297.235 426.682 300.957 427.988 305.608 428.181C310.258 428.375 314.075 427.383 314.134 425.965Z" fill="white"/>
<path d="M273.952 389.079C276.401 372.103 268.023 356.844 255.24 354.997C242.457 353.149 230.109 365.413 227.66 382.389C225.212 399.365 233.589 414.625 246.372 416.472C259.155 418.319 271.503 406.055 273.952 389.079Z" fill="#000072"/>
<path d="M265.925 378.856C266.801 372.789 264.132 367.382 259.965 366.78C255.799 366.178 251.711 370.608 250.836 376.675C249.961 382.743 252.629 388.149 256.796 388.751C260.963 389.354 265.05 384.923 265.925 378.856Z" fill="white"/>
<g opacity="0.2">
<path d="M244.849 395.444C245.442 391.337 244.055 387.737 241.752 387.404C239.448 387.071 237.101 390.131 236.508 394.239C235.916 398.347 237.302 401.947 239.606 402.279C241.909 402.612 244.256 399.552 244.849 395.444Z" fill="white"/>
</g>
<path d="M422.74 392.657C417.358 391.967 412.551 391.699 408.011 392.063C403.491 392.37 399.315 393.405 395.255 394.843C391.175 396.262 387.248 398.351 383.169 400.556C382.173 401.169 381.081 401.61 380.085 402.262C379.07 402.895 378.016 403.508 376.944 404.103C374.76 405.272 372.692 406.71 370.202 407.784L369.646 408.014C367.271 409.03 364.513 407.937 363.498 405.56C362.923 404.237 363.038 402.761 363.632 401.572C366.275 396.415 369.914 391.795 374.607 388.095C379.223 384.356 384.72 381.346 390.849 379.889C396.921 378.375 403.472 378.279 409.467 379.947C415.424 381.634 420.825 384.778 424.637 389.283C425.364 390.146 425.269 391.45 424.388 392.197C423.928 392.581 423.353 392.734 422.798 392.677L422.74 392.657Z" fill="#000072"/>
<g opacity="0.25">
<path d="M349.861 442.368C348.979 440.048 345.819 439.761 344.555 441.908C341.395 447.257 335.285 454.887 326.167 454.561C311.247 454.043 315.116 435.332 315.116 435.332L305.635 433.511L295.981 433.338C295.981 433.338 295.943 452.433 281.233 449.883C271.618 448.215 270.085 438.668 269.511 433.07C269.338 431.402 267.078 430.405 265.929 431.632C259.838 438.189 248.039 455.711 278.743 476.34L302.647 462.364L331.607 478.544C355.281 467.157 353.078 450.823 349.861 442.368Z" fill="#000072"/>
</g>
<path d="M331.722 466.314C331.722 466.314 331.32 470.876 329.06 476.129C325.765 483.759 318.506 492.847 302.8 491.562C297.647 491.14 293.664 489.76 290.618 487.843V487.824C278.034 479.868 281.329 462.288 281.329 462.288C300.54 467.751 304.16 447.852 304.16 447.852C308.067 469.994 331.722 466.314 331.722 466.314Z" fill="#000072"/>
<path d="M329.059 476.129C325.765 483.759 318.506 492.847 302.8 491.562C297.647 491.14 293.663 489.76 290.618 487.843V487.824C290.618 487.824 301.038 457.782 329.059 476.129Z" fill="#FF8CC3"/>
<path d="M305.73 495.971C304.677 495.971 303.585 495.933 302.455 495.837C293.529 495.109 286.73 491.773 282.267 485.906C274.567 475.822 277.019 462.077 277.134 461.501C277.574 459.182 279.796 457.648 282.133 458.07C284.45 458.511 285.983 460.735 285.561 463.054C285.523 463.265 283.742 473.752 289.124 480.73C292.054 484.565 296.785 486.769 303.183 487.287C325.229 489.07 327.412 466.889 327.489 465.949C327.699 463.591 329.768 461.847 332.124 462.057C334.48 462.268 336.223 464.339 336.012 466.697C335.074 477.126 327.546 495.971 305.73 495.971Z" fill="#000072"/>
<path d="M323.811 440.375C329.27 436.08 328.523 427.703 322.471 424.309C322.356 424.252 322.241 424.175 322.126 424.118C312.606 418.903 301.325 417.791 291.02 421.146C290.944 421.165 290.867 421.203 290.79 421.223C284.565 423.293 282.267 431.115 286.423 436.215C288.645 438.956 292.189 441.985 297.762 444.842C301.9 446.97 306.707 447.487 311.208 446.26C317.05 444.65 321.072 442.522 323.811 440.375Z" fill="#000072"/>
<path d="M268.515 437.058C268.63 442.311 269.223 447.526 271.273 451.207C273.227 454.945 276.981 456.977 281.673 457.802C284.029 458.223 286.309 458.319 288.377 458.032C289.392 457.859 290.35 457.572 291.231 457.207C292.112 456.805 292.936 456.325 293.683 455.712C295.196 454.504 296.46 452.779 297.456 450.766C297.935 449.75 298.395 448.695 298.72 447.564C298.893 447.008 299.046 446.452 299.199 445.877L299.391 445.033L299.525 444.324L308.067 444.938L308.105 445.589C308.125 445.858 308.144 446.145 308.182 446.414C308.259 446.97 308.335 447.545 308.45 448.101C308.68 449.232 308.987 450.325 309.389 451.36C310.193 453.45 311.342 455.309 312.817 456.824C315.767 459.91 320.191 461.636 325.114 462.307C325.708 462.383 326.263 462.422 326.857 462.479C327.412 462.479 328.006 462.537 328.542 462.479C329.673 462.479 330.726 462.288 331.779 462.058C333.867 461.521 335.783 460.486 337.506 459.009C341.012 456.114 343.77 451.475 345.972 446.682L346.049 446.529C346.432 445.704 347.409 445.34 348.232 445.724C348.826 445.992 349.171 446.567 349.19 447.181C349.267 450.325 348.673 453.258 347.658 456.21C346.604 459.124 345.015 461.981 342.716 464.416C340.456 466.87 337.411 468.768 334.135 469.879C330.86 470.972 327.393 471.241 324.156 470.934C321.053 470.646 317.874 470.033 314.79 468.768C314.005 468.48 313.258 468.077 312.492 467.732C311.745 467.311 310.998 466.927 310.289 466.448C308.833 465.528 307.493 464.416 306.286 463.17C305.079 461.923 304.007 460.543 303.106 459.067C302.206 457.591 301.497 456.038 300.942 454.447C300.367 452.855 299.984 451.226 299.735 449.596C299.601 448.772 299.525 447.947 299.486 447.123C299.467 446.701 299.448 446.28 299.448 445.858V445.206L299.486 444.42L308.029 445.033C307.991 445.628 307.952 445.954 307.895 446.395C307.837 446.797 307.78 447.2 307.722 447.602C307.588 448.408 307.416 449.194 307.224 449.96C306.822 451.513 306.305 453.066 305.615 454.581C304.256 457.591 302.283 460.562 299.448 462.844C298.05 463.975 296.479 464.952 294.813 465.662C293.127 466.352 291.403 466.812 289.68 467.061C286.232 467.541 282.899 467.215 279.835 466.524C278.283 466.199 276.713 465.7 275.161 465.106C273.629 464.435 272.096 463.687 270.679 462.652C267.825 460.658 265.45 457.763 264.09 454.6C262.711 451.417 262.366 448.043 262.635 444.938C262.941 441.794 263.726 438.879 265.278 436.119C265.737 435.294 266.772 435.007 267.595 435.467C268.132 435.774 268.457 436.33 268.476 436.905L268.515 437.058Z" fill="#000072"/>
<path d="M230.169 438.803C219.5 438.515 206.763 433.876 198.431 427.204C209.1 427.472 221.818 432.15 230.169 438.803Z" fill="#000072"/>
<path d="M232.123 456.479C224.25 462.633 212.337 466.601 202.339 466.295C210.211 460.121 222.144 456.21 232.123 456.479Z" fill="#000072"/>
<path d="M393.895 451.781C403.127 444.381 417.645 439.032 429.482 438.783C420.25 446.202 405.713 451.494 393.895 451.781Z" fill="#000072"/>
<path d="M391.692 471.585C402.744 471.24 416.4 475.707 425.077 482.589C414.025 482.973 400.369 478.448 391.692 471.585Z" fill="#000072"/>
<path d="M343.482 545.242C330.534 545.242 316.935 544.571 302.685 543.229C232.544 536.634 184.468 511.673 170.792 474.73C161.886 450.689 168.877 424.137 189.946 401.725C191.038 394.728 196.956 362.386 216.34 329.564C228.981 308.131 244.764 291.049 263.228 278.76C286.327 263.404 313.66 255.602 344.459 255.602C393.071 255.602 434.424 274.543 464.036 310.355C485.698 336.562 496.367 365.702 501.5 385.525C507.744 409.662 509.411 433.607 506.059 451.245C501.998 472.563 488.974 502.355 449.958 523.099C422.242 537.842 386.54 545.242 343.482 545.242ZM344.459 263.769C291.576 263.769 250.874 287.234 223.465 333.495C202.817 368.367 197.857 403.796 197.818 404.16C197.703 405.023 197.32 405.828 196.707 406.441C177.19 426.705 170.524 450.555 178.435 471.892C190.98 505.787 236.547 528.812 303.451 535.1C317.05 536.384 330.094 537.017 342.505 537.017C430.268 537.017 487.403 505.595 498.033 449.73C503.531 420.897 494.643 360.2 457.753 315.569C429.348 281.195 391.232 263.769 344.459 263.769Z" fill="#000072"/>
</g>
<g clip-path="url(#clip1_234_5)">
<path d="M220.062 59.7416C214.257 43.2554 229.884 16.6514 251.069 8.10505C283.864 -5.10046 320.263 13.9772 328.929 40.085C338.806 69.7767 324.857 88.0274 307.442 105.423C275.39 137.431 297.95 175.917 281.718 180.328C264.055 185.153 252.967 140.877 262.184 114.218C270.658 89.7091 293.851 74.7667 291.292 59.1076C289.724 49.486 281.69 44.8544 272.501 44.5236C254.701 43.8344 246.639 60.1552 240.174 65.476C233.406 71.0449 223.474 69.4183 220.062 59.7416Z" fill="white"/>
<path d="M307.442 105.423C275.39 137.43 297.95 175.917 281.745 180.355C264.055 185.152 252.967 140.877 262.184 114.217C266.118 102.887 273.189 93.5683 279.407 85.2976C286.615 75.7036 292.668 67.5157 291.292 59.1071C289.724 49.4856 281.69 44.8816 272.501 44.5232C254.728 43.834 246.639 60.1272 240.174 65.4756C233.406 71.0445 223.474 69.4179 220.062 59.7412C219.622 58.4455 219.292 57.0946 219.099 55.6886C216.761 39.2024 231.563 15.9893 251.069 8.10464C283.864 -5.07331 320.263 13.9768 328.929 40.0846C338.806 69.7763 324.857 88.0269 307.442 105.423Z" fill="white"/>
<path d="M307.442 105.423C291.952 120.917 289.201 137.927 288.706 151.877V151.904C288.156 166.736 290.109 178.067 281.745 180.355C272.776 182.809 265.485 172.581 261.689 158.438C258.03 144.736 257.644 127.34 262.184 114.245C266.118 102.914 273.189 93.5959 279.407 85.3252C286.615 75.7312 292.668 67.5432 291.292 59.1347C289.724 49.5132 281.69 44.9091 272.501 44.5508C254.728 43.8615 246.639 60.1548 240.174 65.5031C233.406 71.0721 223.474 69.4455 220.062 59.7688C219.622 58.4731 219.292 57.1222 219.099 55.7162C216.761 39.2024 231.563 15.9893 251.069 8.10464C283.864 -5.07331 320.263 13.9768 328.929 40.0846C338.806 69.7763 324.857 88.0269 307.442 105.423Z" fill="#AE88DD"/>
<g opacity="0.4">
<path d="M330.167 72.6161C331.295 65.1725 330.663 56.9019 327.499 47.4181C322.354 31.9244 307.139 18.967 288.844 14.1425C289.229 14.749 289.449 15.3555 289.449 16.0171C289.449 19.8217 282.488 22.8818 273.877 22.8818C265.265 22.8818 258.305 19.8217 258.305 16.0171C258.305 15.2728 258.58 14.556 259.075 13.8943C256.626 14.5284 254.178 15.3004 251.729 16.2928C233.488 23.6537 219.485 44.7991 220.42 60.6512C220.282 60.348 220.172 60.0447 220.062 59.7139C219.622 58.4182 219.292 57.0673 219.099 55.6613C216.761 39.175 231.563 15.962 251.069 8.07729C283.864 -5.10065 320.263 13.9495 328.929 40.0572C333.139 52.739 333.029 63.2978 330.167 72.6161Z" fill="white"/>
</g>
<path d="M288.706 151.904C288.156 166.736 290.109 178.067 281.745 180.355C272.776 182.809 265.485 172.581 261.689 158.438C265.54 163.097 270.933 167.591 277.206 166.929C283.121 166.295 286.643 159.21 288.706 151.904Z" fill="#AE88DD"/>
<path d="M279.407 85.2976C286.615 75.7036 292.668 67.5156 291.292 59.1071C289.724 49.4855 281.69 44.8815 272.501 44.5231C254.728 43.8339 246.639 60.1271 240.174 65.4755C233.406 71.0444 223.474 69.4179 220.062 59.7412C219.622 58.4454 219.292 57.0946 219.099 55.6885C224.024 60.0996 231.48 64.4555 237.615 58.473C246.034 50.285 256.269 29.2224 275.528 30.077C294.979 30.9592 311.486 55.2474 279.407 85.2976Z" fill="#AE88DD"/>
<path d="M279.049 184.574C275.693 184.574 271.621 183.305 267.604 178.977C255.663 166.13 251.261 134.067 258.552 112.977C262.597 101.26 269.722 91.8042 275.995 83.4783C282.791 74.4633 288.651 66.6613 287.495 59.7415C285.9 49.9545 276.38 48.521 272.364 48.3831C260.753 47.942 253.793 56.0473 248.235 62.5535C246.227 64.8969 244.466 66.937 242.65 68.4533C238.248 72.0648 232.608 73.3881 227.491 71.9545C222.346 70.521 218.439 66.6337 216.458 61.0372C209.855 42.3179 226.61 13.8117 249.666 4.54852C266.063 -2.04045 284.964 -1.43394 301.527 6.25779C316.741 13.3154 328.076 25.2252 332.616 38.8994C343.401 71.348 326.701 91.6663 310.193 108.18C292.585 125.714 292.475 145.564 292.42 160.065C292.365 171.533 292.31 181.458 282.763 184.05C281.663 184.353 280.397 184.574 279.049 184.574ZM271.401 40.6362C271.813 40.6362 272.226 40.6362 272.639 40.6638C284.744 41.1325 293.356 47.9696 295.061 58.4733C296.712 68.6463 289.944 77.6613 282.103 88.0824C276.16 95.9671 269.447 104.899 265.788 115.486C258.965 135.225 264.165 163.98 273.189 173.711C276.876 177.681 279.764 176.882 280.7 176.634C284.276 175.669 284.662 171.065 284.689 160.037C284.772 145.095 284.854 122.516 304.691 102.694C320.896 86.5109 334.652 69.6112 325.243 41.3255C321.473 29.8292 311.376 19.3255 298.28 13.2327C283.644 6.42321 266.944 5.87183 252.527 11.6889C233.598 19.2979 218.522 43.7791 223.694 58.4733C224.822 61.6438 226.885 63.7941 229.527 64.5109C232.223 65.2553 235.277 64.5109 237.725 62.4708C239.046 61.3956 240.587 59.5761 242.375 57.5084C248.18 50.754 256.846 40.6362 271.401 40.6362Z" fill="#000072"/>
<path d="M286.395 196.015C279.104 197.724 274.702 206.519 275.39 213.108C276.463 223.474 285.074 229.07 294.841 226.534C301.252 224.88 307.002 217.739 305.984 210.351C304.966 202.88 296.244 193.727 286.395 196.015Z" fill="#AE88DD"/>
<g opacity="0.4">
<path d="M304.14 219.173C304.361 217.987 304.416 216.774 304.223 215.534C303.288 208.917 295.584 200.784 286.89 202.825C280.425 204.341 276.545 212.115 277.178 217.96C277.261 218.622 277.343 219.256 277.481 219.862C276.408 217.932 275.665 215.672 275.39 213.108C274.702 206.519 279.077 197.724 286.395 196.015C296.244 193.699 304.966 202.88 305.984 210.378C306.424 213.494 305.654 216.554 304.14 219.173Z" fill="white"/>
</g>
<path d="M294.869 226.534C285.102 229.07 276.49 223.474 275.417 213.108C275.225 211.343 275.417 209.386 275.913 207.484C277.673 215.534 284.909 219.724 293.053 217.602C298.72 216.14 303.81 209.91 303.095 203.376C304.663 205.609 305.709 208.063 306.039 210.351C307.029 217.767 301.252 224.88 294.869 226.534Z" fill="#AE88DD"/>
<path d="M290.219 231C286.34 231 282.653 229.897 279.572 227.747C275.06 224.604 272.226 219.559 271.593 213.521C270.713 205.223 276.243 194.444 285.542 192.266C290.522 191.108 295.777 192.183 300.344 195.326C305.379 198.772 309.093 204.479 309.836 209.855C311.184 219.559 303.7 228.243 295.859 230.283C293.933 230.779 292.063 231 290.219 231ZM289.504 199.516C288.789 199.516 288.046 199.599 287.275 199.764C282.103 200.977 278.719 207.704 279.242 212.722C279.627 216.499 281.305 219.587 283.946 221.434C286.643 223.308 290.164 223.805 293.906 222.84C298.445 221.654 302.958 216.306 302.215 210.93C301.774 207.649 299.271 203.955 295.997 201.694C294.429 200.619 292.2 199.516 289.504 199.516Z" fill="#000072"/>
</g>
<defs>
<clipPath id="clip0_234_5">
<rect width="521" height="465" fill="white" transform="translate(167 220)"/>
</clipPath>
<clipPath id="clip1_234_5">
<rect width="121" height="231" fill="white" transform="translate(215)"/>
</clipPath>
</defs>
</svg>
