<svg width="689" height="599" viewBox="0 0 689 599" fill="none" xmlns="http://www.w3.org/2000/svg">
<ellipse cx="313" cy="299.5" rx="313" ry="299.5" fill="#FEB16C"/>
<g clip-path="url(#clip0_272_4771)">
<path d="M340.136 254.752C348.328 251.332 351.686 240.697 347.637 230.997C343.588 221.296 333.665 216.205 325.472 219.625C317.28 223.044 313.922 233.68 317.971 243.38C322.02 253.08 331.943 258.172 340.136 254.752Z" fill="#000072"/>
<path d="M338.519 238.726C341.188 237.839 342.314 234 341.034 230.154C339.754 226.307 336.553 223.908 333.885 224.796C331.216 225.684 330.09 229.522 331.37 233.369C332.649 237.216 335.85 239.614 338.519 238.726Z" fill="white"/>
<g opacity="0.35">
<path d="M336.777 250.118C337.733 248.622 336.306 246.003 333.591 244.27C330.876 242.537 327.901 242.345 326.945 243.841C325.99 245.338 327.416 247.956 330.131 249.69C332.846 251.423 335.822 251.615 336.777 250.118Z" fill="white"/>
</g>
<path d="M264.647 288.111C272.839 284.691 276.198 274.056 272.149 264.356C268.1 254.655 258.176 249.564 249.984 252.984C241.792 256.403 238.433 267.039 242.482 276.739C246.531 286.439 256.455 291.531 264.647 288.111Z" fill="#000072"/>
<path d="M263.04 272.085C265.709 271.197 266.835 267.359 265.555 263.512C264.276 259.666 261.075 257.267 258.406 258.155C255.737 259.043 254.611 262.881 255.891 266.728C257.17 270.574 260.371 272.973 263.04 272.085Z" fill="white"/>
<g opacity="0.35">
<path d="M261.289 283.483C262.245 281.986 260.818 279.368 258.103 277.635C255.388 275.902 252.413 275.71 251.457 277.206C250.502 278.703 251.928 281.321 254.643 283.054C257.358 284.788 260.334 284.98 261.289 283.483Z" fill="white"/>
</g>
<path d="M353.872 454.675C349.465 453.364 345.64 451.67 342.289 449.721C340.942 448.938 339.649 448.1 338.465 447.208H338.447C319.215 433.203 320.016 410.147 320.016 410.147L324.496 410.274L373.923 411.622C375.999 411.877 377.839 412.387 379.46 413.134C399.329 422.167 386.271 464.345 353.872 454.675Z" fill="#97979E"/>
<path d="M363.069 460.029C359.736 460.029 356.258 459.519 352.743 458.463C333.147 452.617 324.205 439.759 320.162 430.016C315.809 419.526 316.064 410.402 316.082 410.019C316.155 407.834 317.995 406.122 320.18 406.213C322.366 406.286 324.059 408.125 323.986 410.293C323.95 411.567 323.422 441.471 355.001 450.887C364.271 453.655 372.575 451.797 378.385 445.642C384.067 439.632 386.398 430.326 383.94 423.533C382.792 420.346 380.024 416.357 373.45 415.574C371.282 415.319 369.734 413.334 369.989 411.167C370.244 409 372.211 407.452 374.397 407.707C382.647 408.708 388.675 413.352 391.37 420.837C394.848 430.453 391.862 442.892 384.122 451.069C378.567 456.969 371.191 460.029 363.069 460.029Z" fill="#000072"/>
<path d="M346.15 412.332C343.764 414.809 341.634 417.705 339.776 420.637C337.9 423.678 336.298 426.92 335.351 430.508C334.986 426.774 335.351 422.913 336.097 419.198C336.899 415.337 337.973 411.64 339.539 407.98L346.15 412.332Z" fill="#000072"/>
<path d="M370.627 415.483L356.84 427.685L364.234 410.803L370.627 415.483Z" fill="#000072"/>
<path d="M389.622 423.241C384.832 428.432 379.824 433.567 373.941 437.446C375.963 434.624 377.511 431.582 378.95 428.505C380.37 425.463 381.7 422.258 382.847 419.144C382.829 419.144 389.622 423.241 389.622 423.241Z" fill="#000072"/>
<path d="M606.379 359.646L589.824 359.627L206.393 360.848L182.936 326.537C181.515 324.46 178.747 323.787 176.525 324.97L170.771 328.066C168.112 329.505 167.328 332.984 169.168 335.388C172.883 340.214 178.347 348.883 181.169 360.848L155.819 361.795C151.12 361.977 147.132 365.255 146.039 369.826C144.473 376.328 142.979 386.253 144.655 396.889C145.438 401.842 149.681 405.503 154.689 405.63L583.614 417.377L611.878 399.566L616.122 378.659" fill="#EA9A3B"/>
<g opacity="0.6">
<path d="M183.719 360.993C183.719 361.011 183.737 361.03 183.737 361.066C185.012 364.581 182.408 368.314 178.656 368.424L154.143 369.152C150.027 369.316 146.458 371.848 144.892 375.526C145.238 373.432 145.638 371.501 146.039 369.826C147.132 365.255 151.12 361.977 155.837 361.795L183.719 360.993Z" fill="white"/>
</g>
<g opacity="0.6">
<path d="M615.138 378.659L610.895 399.566L610.658 399.712L613.445 386.016L603.72 367.003L587.165 366.985L207.467 368.187C205.136 368.187 202.933 367.04 201.621 365.109L180.277 333.894C178.857 331.818 176.088 331.144 173.866 332.328L168.221 335.351C166.381 332.947 167.146 329.487 169.823 328.048L175.578 324.952C177.8 323.768 180.568 324.424 181.989 326.518L205.446 360.829L588.877 359.609L605.431 359.627L615.138 378.659Z" fill="white"/>
</g>
<path d="M583.614 420.546C583.577 420.546 583.559 420.546 583.523 420.546L154.598 408.799C148.024 408.617 142.524 403.809 141.504 397.38C139.738 386.217 141.304 375.818 142.943 369.079C144.382 363.142 149.627 358.844 155.691 358.626L177.072 357.824C174.285 348.555 169.969 341.652 166.636 337.336C165.198 335.46 164.651 333.056 165.143 330.743C165.653 328.412 167.146 326.409 169.241 325.28L174.996 322.184C178.656 320.217 183.191 321.328 185.522 324.752L208.032 357.661L589.788 356.44L606.342 356.459C608.09 356.459 609.529 357.879 609.511 359.646C609.511 361.394 608.09 362.814 606.324 362.814L589.769 362.796L206.338 364.016C206.338 364.016 206.338 364.016 206.32 364.016C205.264 364.016 204.28 363.506 203.697 362.632L180.241 328.321C179.731 327.575 178.747 327.338 177.964 327.775L172.209 330.871C171.59 331.217 171.371 331.763 171.317 332.055C171.262 332.346 171.208 332.911 171.626 333.439C175.761 338.83 181.297 347.826 184.211 360.101C184.429 361.03 184.229 361.995 183.646 362.76C183.063 363.525 182.189 363.98 181.242 364.016L155.873 364.963C152.632 365.091 149.827 367.386 149.062 370.554C147.569 376.746 146.13 386.235 147.733 396.379C148.279 399.803 151.211 402.352 154.726 402.443L582.685 414.154L608.983 397.581L612.953 378.003C613.299 376.273 614.975 375.162 616.705 375.526C618.417 375.872 619.546 377.548 619.181 379.278L614.938 400.185C614.774 401.041 614.246 401.788 613.518 402.243L585.253 420.054C584.816 420.382 584.215 420.546 583.614 420.546Z" fill="#000072"/>
<g opacity="0.2">
<path d="M616.122 378.659L611.878 399.566L583.614 417.377L154.708 405.631C149.718 405.503 145.456 401.824 144.673 396.889C143.526 389.568 143.872 382.574 144.709 376.801C145.565 381.627 149.772 385.197 154.708 385.324L295.212 389.167L363.797 370.882L365.455 375.545C362.195 381.973 354.764 386.982 347.68 390.606L436.135 393.028C447.535 382.301 455.731 360.848 455.731 360.848C457.916 372.485 456.313 385.907 454.783 393.538L550.232 396.142C553.073 396.215 555.914 396.179 558.736 396.033L567.515 360.775C567.515 360.775 570.556 383.357 578.096 393.338C590.006 390.588 601.425 385.834 611.878 379.26L613.171 372.904L616.122 378.659Z" fill="#000072"/>
</g>
<path d="M627.996 429.816C624.936 432.293 621.549 434.733 617.815 437.1C603.1 446.443 584.342 447.518 569.172 438.94C563.672 435.826 558.281 431.364 553.673 424.917L565.183 413.698C565.183 413.698 568.899 414.372 573.961 414.281C582.193 414.099 594.013 411.786 599.221 401.041C599.695 400.094 600.095 399.111 600.441 398.036C607.216 377.129 597.218 353.781 622.332 345.623C623.698 345.185 625.118 344.985 626.557 344.985C647.537 345.24 673.762 392.773 627.996 429.816Z" fill="#97979E"/>
<path d="M627.996 429.816C621.221 399.274 599.239 401.023 599.239 401.023H599.221C599.695 400.076 600.095 399.092 600.441 398.018C607.216 377.111 597.218 353.763 622.332 345.604C643.603 338.684 676.895 390.241 627.996 429.816Z" fill="white"/>
<path d="M591.663 447.973C583.304 447.973 575.036 445.897 567.606 441.69C561.122 438.011 555.568 433.003 551.087 426.756C550.068 425.336 550.395 423.351 551.816 422.312C553.236 421.293 555.222 421.62 556.26 423.041C560.193 428.523 565.056 432.93 570.738 436.135C584.652 444.003 602.044 443.329 616.122 434.387C619.6 432.183 622.915 429.816 625.993 427.321C653.729 404.866 653.547 378.458 644.969 362.651C639.324 352.27 630.218 346.369 623.315 348.609C608.273 353.508 607.562 364.308 606.67 378.003C606.215 384.851 605.759 391.935 603.465 398.983C603.046 400.276 602.59 401.405 602.062 402.443C592.738 421.73 565.766 417.013 564.619 416.812C562.889 416.503 561.741 414.846 562.069 413.116C562.379 411.385 564.036 410.238 565.766 410.566C566.003 410.602 589.132 414.609 596.362 399.639C596.763 398.837 597.109 398 597.418 397.034C599.458 390.733 599.895 384.068 600.314 377.603C601.243 363.434 602.208 348.791 621.349 342.581C631.329 339.34 643.33 346.351 650.542 359.646C660.285 377.602 660.741 407.397 629.981 432.293C626.703 434.933 623.188 437.465 619.509 439.796C610.931 445.223 601.243 447.973 591.663 447.973Z" fill="#000072"/>
<g opacity="0.2">
<path d="M627.996 429.816C624.936 432.293 621.549 434.733 617.815 437.1C603.1 446.443 584.342 447.518 569.172 438.94C563.672 435.826 558.281 431.364 553.673 424.917L565.183 413.698C565.183 413.698 568.899 414.372 573.961 414.281L574.763 414.846C574.763 414.846 609.165 436.645 626.247 404.738C643.33 372.831 626.247 346.46 626.247 346.46C626.247 346.46 626.339 345.914 626.539 344.985C647.537 345.24 673.762 392.773 627.996 429.816Z" fill="#000072"/>
</g>
<path d="M595.233 326.664C594.504 337.063 592.629 348.1 589.824 359.646L566.367 360.866C566.367 360.866 560.813 366.985 563.071 382.065C565.329 397.126 573.433 421.821 548.374 431.619C535.899 436.5 520.364 437.884 507.47 434.733C502.152 433.44 497.308 431.346 493.302 428.414C490.97 426.738 488.931 424.735 487.255 422.44C485.27 419.708 483.977 416.667 483.394 413.516C482.465 408.435 483.413 403.099 486.308 398.492C488.421 395.141 491.681 391.535 496.762 388.493C496.762 388.493 490.552 377.184 489.022 361.74L487.82 361.758L455.293 362.305C455.293 362.305 453.199 367.623 449.247 374.507C441.835 387.473 427.885 405.977 409.236 404.684C384.45 402.972 373.741 387.838 363.779 372.048C363.725 371.975 363.67 371.884 363.615 371.793C362.14 369.462 360.701 367.131 359.226 364.836C347.644 346.752 411.64 206.393 411.64 206.393C461.431 181.68 531.819 193.591 561.013 251.522C588.476 267.658 597.528 294.01 595.233 326.664Z" fill="#97979E"/>
<g opacity="0.2">
<path d="M422.931 363.361C462.797 312.86 490.57 262.923 421.42 217.575L413.88 350.576" fill="#000072"/>
</g>
<g opacity="0.6">
<path d="M589.842 359.627L589.642 359.646C598.475 316.101 592.556 280.734 558.755 260.81C529.561 202.897 459.173 190.968 409.382 215.681C409.382 215.681 372.138 297.361 359.627 344.147C368.97 299.984 411.64 206.357 411.64 206.357C461.431 181.644 531.82 193.554 561.013 251.486C597.2 272.812 601.443 311.84 589.842 359.627Z" fill="white"/>
</g>
<path d="M458.735 346.916C458.735 346.916 463.908 330.798 489.058 345.878L490.187 361.704L457.315 360.101L458.735 346.916Z" fill="white"/>
<path d="M522.368 439.596C516.959 439.596 511.659 438.995 506.742 437.793C500.805 436.336 495.669 434.041 491.444 430.945C488.803 429.033 486.527 426.793 484.706 424.279C478.714 416.084 478.295 405.285 483.649 396.761C485.926 393.137 488.967 389.968 492.7 387.328C490.879 383.339 487.656 375.199 486.235 364.909L457.461 365.382C453.636 374.106 437.173 407.871 411.148 407.871C410.456 407.871 409.764 407.852 409.054 407.798C381.317 405.867 370.208 388.184 359.481 371.083C358.516 369.553 357.551 368.005 356.567 366.493C353.089 361.048 351.523 345.932 378.148 277.62C392.572 240.613 408.598 205.374 408.762 205.009C409.072 204.354 409.582 203.807 410.238 203.48C460.083 178.748 532.621 189.256 563.435 249.191C596.581 269.206 606.233 305.575 592.938 360.356C592.61 361.722 591.427 362.705 590.024 362.778L568.152 363.925C567.005 366.002 564.746 371.556 566.258 381.555C566.513 383.285 566.859 385.179 567.223 387.182C569.955 402.225 574.107 424.953 549.576 434.533C541.035 437.884 531.528 439.596 522.368 439.596ZM489.04 358.517C490.679 358.517 492.045 359.755 492.209 361.376C493.648 376.018 499.512 386.8 499.566 386.909C500.386 388.402 499.876 390.278 498.419 391.17C494.412 393.593 491.262 396.597 489.022 400.149C485.052 406.45 485.379 414.445 489.841 420.528C491.28 422.495 493.083 424.279 495.196 425.791C498.747 428.395 503.136 430.344 508.272 431.601C520.146 434.514 535.079 433.367 547.263 428.614C566.914 420.928 563.763 403.609 560.977 388.311C560.594 386.253 560.248 384.323 559.975 382.502C557.553 366.402 563.399 359.445 564.073 358.699C564.637 358.08 565.42 357.697 566.258 357.661L587.347 356.568C599.367 305.047 590.48 272.484 559.447 254.218C558.919 253.908 558.5 253.453 558.227 252.906C529.616 196.14 461.431 185.851 414.117 208.706C411.367 214.789 397.07 246.678 384.104 279.969C358.37 346.023 360.046 360.101 361.976 363.088C362.96 364.636 363.943 366.184 364.908 367.732C375.253 384.213 385.032 399.785 409.527 401.478C435.424 403.281 452.252 361.503 452.416 361.084C452.89 359.882 454.037 359.099 455.312 359.081L489.04 358.517C489.022 358.517 489.004 358.517 489.04 358.517Z" fill="#000072"/>
<path d="M563.399 359.773C564.419 355.803 566.13 349.611 567.205 345.513C569.409 337.081 570.774 328.321 571.375 319.616C571.831 313.297 571.667 307.014 571.193 300.658C571.703 302.879 572.541 305.939 572.869 308.143C573.452 311.129 573.889 314.699 574.18 317.686C575 327.356 574.635 337.118 573.27 346.715C572.723 350.594 571.94 354.437 570.756 358.17C570.356 359.427 569.937 360.629 569.372 361.94C568.68 363.561 566.804 364.29 565.183 363.598C563.69 362.942 562.943 361.285 563.399 359.773Z" fill="#000072"/>
<path d="M563.38 249.155C565.766 257.569 566.313 266.347 566.385 275.052C564.418 267.476 561.96 259.954 558.299 253.016C558.063 252.597 557.808 252.105 557.589 251.814C556.587 250.338 556.952 248.335 558.427 247.334C560.212 246.04 562.834 247.042 563.38 249.155Z" fill="#000072"/>
<path d="M485.871 361.594C487.456 348.209 489.204 334.878 491.316 321.583C491.335 335.005 491.699 348.445 492.227 361.831C492.227 366.366 485.525 366.129 485.871 361.594Z" fill="#000072"/>
<path d="M452.288 361.339C455.075 354.619 457.242 347.426 458.826 340.287C459.373 337.864 459.81 335.424 460.211 332.947C460.338 335.442 460.429 337.956 460.393 340.451C460.338 348.118 459.719 355.621 458.335 363.197C457.242 367.768 450.631 365.747 452.288 361.339Z" fill="#000072"/>
<path d="M413.643 346.988C419.726 351.396 423.004 358.826 423.951 366.074C422.33 363.215 420.272 360.52 417.832 358.371C415.61 356.531 413.06 354.728 410.329 354.164C405.648 351.833 408.835 344.949 413.643 346.988Z" fill="#000072"/>
<path d="M495.76 385.434C506.25 383.121 517.469 383.849 527.467 387.765C531.892 389.422 535.99 392.026 539.669 394.904C530.199 389.185 518.816 387.255 507.944 388.894C504.575 389.422 500.878 390.223 497.727 391.48C493.502 393.028 491.426 386.708 495.76 385.434Z" fill="#000072"/>
<path d="M551.816 430.053C551.834 429.907 551.834 429.743 551.834 429.597C551.834 421.438 544.622 414.828 535.717 414.828C526.829 414.828 519.618 421.438 519.618 429.597C519.618 432.056 520.255 434.351 521.421 436.39" fill="#000072"/>
<path d="M510.829 416.09C511.406 412.587 508.438 409.181 504.201 408.483C499.963 407.785 496.06 410.059 495.483 413.563C494.906 417.066 497.874 420.472 502.111 421.17C506.349 421.867 510.252 419.593 510.829 416.09Z" fill="#000072"/>
<path d="M524.953 407.551C526.166 404.214 523.877 400.32 519.84 398.853C515.804 397.385 511.549 398.901 510.336 402.238C509.123 405.575 511.412 409.469 515.448 410.936C519.485 412.403 523.74 410.887 524.953 407.551Z" fill="#000072"/>
<path d="M507.725 434.168C507.652 434.369 507.58 434.533 507.488 434.715C502.171 433.422 497.326 431.327 493.32 428.395C494.758 425.39 498.783 424.079 502.626 425.481C506.651 426.938 508.927 430.836 507.725 434.168Z" fill="#000072"/>
<g opacity="0.2">
<path d="M595.233 326.664C594.504 337.045 592.629 348.081 589.824 359.628L566.367 360.848C566.367 360.848 560.813 366.967 563.071 382.046C565.329 397.107 573.433 421.803 548.374 431.601C535.899 436.481 520.364 437.865 507.47 434.715C502.152 433.422 497.308 431.327 493.301 428.395C490.97 426.72 488.931 424.716 487.255 422.422C485.27 419.69 483.977 416.649 483.394 413.498C529.051 429.069 552.799 423.114 535.717 376.983C535.717 376.983 520.401 333.293 551.67 302.37C551.67 302.37 572.122 284.249 572.213 308.033C572.322 331.8 585.107 345.859 595.233 326.664Z" fill="#000072"/>
</g>
<g opacity="0.2">
<path d="M449.265 374.47C441.853 387.437 427.903 405.94 409.254 404.647C384.468 402.935 373.759 387.801 363.797 372.012L387.218 363.343L401.441 355.111C401.441 355.111 412.714 398.364 449.265 374.47Z" fill="#000072"/>
</g>
<path d="M245.02 193.572C245.02 193.572 205.446 188.491 179.858 202.678C174.559 205.629 171.371 211.311 171.663 217.375C172.337 231.198 178.693 258.479 213.55 287.327" fill="#97979E"/>
<g opacity="0.6">
<path d="M245.02 193.572L242.707 200.493C229.977 199.783 203.807 199.855 185.085 210.218C179.767 213.168 176.598 218.85 176.89 224.915C177.309 233.456 179.895 247.133 190.02 263.141C175.524 243.91 172.155 227.246 171.681 217.393C171.39 211.329 174.559 205.629 179.858 202.678C205.446 188.491 245.02 193.572 245.02 193.572Z" fill="white"/>
</g>
<path d="M307.978 166.673C307.978 166.673 324.314 133.2 354.309 116.573C358.461 114.26 363.597 114.77 367.166 117.902C376.801 126.352 394.739 147.824 400.221 193.572" fill="#97979E"/>
<g opacity="0.6">
<path d="M395.031 166.819C387.254 143.763 376.272 131.233 369.443 125.26C365.873 122.109 360.72 121.617 356.585 123.93C334.294 136.296 319.543 157.968 313.442 168.276L307.996 166.692C307.996 166.692 324.351 133.218 354.327 116.573C358.479 114.26 363.615 114.77 367.185 117.902C374.706 124.495 387.272 139.028 395.031 166.819Z" fill="white"/>
</g>
<path d="M344.019 166.692C344.019 166.692 351.887 144.473 363.943 133.546C363.943 133.546 382.592 151.758 384.941 182.117" fill="#F27E80"/>
<g opacity="0.2">
<path d="M384.85 180.97C378.858 160.809 366.948 149.19 366.948 149.19C360.92 154.654 355.93 162.94 352.47 169.879L344.019 166.692C344.019 166.692 351.887 144.473 363.943 133.564C363.943 133.546 382.118 151.303 384.85 180.97Z" fill="#000072"/>
</g>
<path d="M225.497 216.683C225.497 216.683 207.449 214.06 194.883 215.754C190.203 216.392 186.833 220.69 187.38 225.388C188.472 235.113 193.553 252.323 214.315 266.183" fill="#F27E80"/>
<g opacity="0.2">
<path d="M225.497 216.683L223.239 226.608C216.992 226.117 208.724 225.789 202.022 226.681C197.342 227.319 193.991 231.617 194.519 236.315C195.01 240.704 196.322 246.641 199.545 253.107C190.858 242.671 188.145 232.199 187.38 225.388C186.852 220.69 190.202 216.392 194.883 215.754C207.449 214.06 225.497 216.683 225.497 216.683Z" fill="#000072"/>
</g>
<path d="M440.651 313.989C434.75 330.452 422.876 344.038 407.797 352.889C377.82 370.5 325.662 386.927 282.937 386.016C230.651 384.887 217.374 351.814 214.825 330.907C212.275 310 214.26 266.765 214.825 253.198C215.389 239.63 221.326 189.329 293.19 169.824C365.054 150.319 406.431 199.782 406.431 199.782C436.025 235.987 453.818 277.237 440.651 313.989Z" fill="#97979E"/>
<g opacity="0.6">
<path d="M385.943 182.736C366.602 172.465 337.773 164.342 300.967 174.341C275.415 181.279 258.205 192.097 246.586 203.789C248.48 218.195 241.687 229.395 226.207 237.39C223.421 246.259 222.765 253.653 222.601 257.714C222.037 271.282 220.052 314.517 222.601 335.424C224.204 348.555 230.013 366.457 247.06 378.258C223.967 367.003 216.664 345.841 214.843 330.907C212.293 310 214.278 266.765 214.843 253.198C215.408 239.63 221.345 189.329 293.208 169.824C335.314 158.387 366.948 170.644 385.943 182.736Z" fill="white"/>
</g>
<path d="M410.529 351.195C433.84 304.865 394.648 250.32 336.953 276.4C306.193 262.559 287.053 270.116 278.439 297.015C241.942 323.258 255.237 384.013 290.659 385.98C336.407 382.465 376.873 371.593 410.529 351.195Z" fill="white"/>
<g opacity="0.2">
<path d="M440.651 313.989C434.769 330.452 422.876 344.038 407.797 352.889C377.802 370.5 325.644 386.945 282.937 386.016C258.132 385.488 242.106 377.748 231.835 367.549C238.154 369.079 245.293 370.026 253.361 370.19C296.086 371.119 348.244 354.674 378.221 337.063C393.282 328.212 405.174 314.626 411.075 298.163C424.242 261.393 406.468 220.161 376.855 183.938C376.855 183.938 372.138 178.293 363.123 171.591C391.17 181.552 406.413 199.764 406.413 199.764C436.044 235.987 453.8 277.219 440.651 313.989Z" fill="#000072"/>
</g>
<path d="M293.482 305.174C292.589 313.989 304.518 318.032 309.945 312.058C311.529 310.383 312.331 308.325 313.241 306.139L313.697 305.101C314.352 303.59 316.119 302.879 317.63 303.535C327.465 309.636 341.688 301.368 335.351 289.494C348.663 302.06 327.337 320.035 314.68 309.691L319.87 307.614C319.67 309.399 319.106 311.184 318.213 312.878C315.591 318.05 308.943 320.945 303.553 319.853C296.705 318.942 290.404 312.022 293.482 305.174Z" fill="#000072"/>
<path d="M296.25 286.289C300.876 281.317 307.013 278.585 314.789 278.366C316.957 278.312 318.832 279.951 318.905 282.118C319.014 285.159 318.25 289.803 314.17 294.848C313.423 295.759 312.313 296.305 311.129 296.305C308.124 296.305 301.986 295.795 296.833 292.116C294.939 290.769 294.647 288 296.25 286.289Z" fill="#000072"/>
<path d="M316.556 310.273C315.19 310.273 313.915 309.454 313.387 308.106L308.579 295.668C307.905 293.919 308.779 291.952 310.528 291.279C312.276 290.605 314.243 291.479 314.917 293.227L319.725 305.666C320.399 307.414 319.524 309.381 317.776 310.055C317.375 310.201 316.975 310.273 316.556 310.273Z" fill="#000072"/>
<path d="M286.397 389.222C285.213 389.222 284.03 389.203 282.864 389.185C224.805 387.928 213.732 348.281 211.674 331.29C209.216 311.038 210.927 270.317 211.565 255.001L211.638 253.07C211.984 244.875 214.115 228.63 224.568 212.057C238.154 190.531 260.955 175.288 292.352 166.783C330.47 156.438 360.082 165.38 378.203 174.687C397.872 184.794 408.416 197.233 408.853 197.761C433.221 227.574 459.027 272.101 443.62 315.1C437.646 331.8 425.481 346.205 409.381 355.657C380.57 372.558 329.614 389.222 286.397 389.222ZM326.336 168.403C315.827 168.403 305.046 169.897 294.028 172.884C227.682 190.877 218.759 235.132 217.994 253.325L217.921 255.256C217.283 270.444 215.571 310.765 217.975 330.507C220.288 349.574 231.816 381.718 282.992 382.811C325.771 383.722 377.329 367.076 406.176 350.121C420.982 341.416 432.164 328.194 437.646 312.896C452.033 272.702 427.265 230.269 403.954 201.749C403.881 201.658 393.665 189.657 375.052 180.15C359.681 172.337 343.382 168.403 326.336 168.403Z" fill="#000072"/>
<path d="M400.221 196.759C398.636 196.759 397.271 195.576 397.07 193.955C391.752 149.627 374.743 128.775 365.09 120.306C362.559 118.084 358.862 117.702 355.857 119.377C327.137 135.313 311.001 167.766 310.837 168.094C310.072 169.66 308.16 170.316 306.594 169.551C305.01 168.786 304.354 166.874 305.137 165.308C305.829 163.905 322.256 130.742 352.779 113.823C358.115 110.872 364.744 111.546 369.279 115.535C379.623 124.622 397.817 146.786 403.39 193.208C403.59 194.956 402.352 196.541 400.603 196.741C400.476 196.741 400.348 196.759 400.221 196.759Z" fill="#000072"/>
<path d="M384.941 184.776C383.575 184.776 382.41 183.72 382.3 182.336C380.479 158.824 368.387 142.689 363.834 137.371C353.471 148.225 346.587 167.384 346.514 167.584C346.023 168.968 344.511 169.678 343.127 169.205C341.743 168.713 341.033 167.202 341.506 165.818C341.834 164.889 349.738 142.852 362.14 131.598C363.178 130.651 364.763 130.687 365.764 131.67C366.547 132.435 385.142 150.938 387.564 181.935C387.673 183.392 386.58 184.667 385.123 184.776C385.087 184.776 385.014 184.776 384.941 184.776Z" fill="#000072"/>
<path d="M213.55 290.514C212.84 290.514 212.111 290.277 211.529 289.785C175.706 260.118 169.186 231.781 168.494 217.539C168.13 210.218 171.9 203.461 178.31 199.91C204.499 185.377 243.763 190.221 245.421 190.422C247.169 190.64 248.389 192.243 248.171 193.973C247.952 195.721 246.368 196.941 244.619 196.723C244.237 196.668 205.755 191.951 181.406 205.465C177.126 207.832 174.613 212.349 174.85 217.229C175.487 230.433 181.643 256.785 215.59 284.904C216.937 286.015 217.138 288.019 216.009 289.384C215.371 290.131 214.479 290.514 213.55 290.514Z" fill="#000072"/>
<path d="M214.297 268.823C213.787 268.823 213.277 268.678 212.822 268.386C190.931 253.762 185.813 235.368 184.721 225.698C184.029 219.597 188.418 213.97 194.519 213.15C207.303 211.42 225.114 213.969 225.861 214.079C227.3 214.297 228.32 215.627 228.101 217.084C227.883 218.522 226.553 219.542 225.096 219.324C224.914 219.306 207.267 216.774 195.211 218.395C191.951 218.832 189.601 221.837 189.984 225.097C190.967 233.857 195.648 250.557 215.754 263.979C216.974 264.799 217.302 266.438 216.482 267.658C215.99 268.423 215.153 268.823 214.297 268.823Z" fill="#000072"/>
<path d="M343.983 281.444C323.367 268.514 300.202 267.166 284.904 288.347C280.624 294.429 277.819 301.623 276.162 309.326C275.47 301.459 277.164 293.209 281.134 285.979C295.121 261.284 325.935 261.156 343.983 281.444Z" fill="#000072"/>
<path d="M153.196 324.133C153.67 326.318 153.633 328.431 153.214 330.398C151.138 340.086 139.665 344.366 131.36 338.957C124.658 334.605 113.913 327.047 107.721 319.744C107.721 319.744 121.38 312.568 135.749 311.512C143.853 310.893 151.484 316.192 153.196 324.133Z" fill="#62C84F"/>
<g opacity="0.2">
<path d="M153.214 330.398C151.138 340.086 139.665 344.366 131.36 338.957C124.658 334.604 113.913 327.047 107.721 319.744C107.721 319.744 108.013 319.58 108.577 319.307C116.426 324.005 127.226 327.83 134.11 330.015C141.814 332.455 149.827 328.139 152.213 321.091C152.632 322.057 152.978 323.058 153.196 324.114C153.67 326.318 153.633 328.431 153.214 330.398Z" fill="#000072"/>
</g>
<g opacity="0.6">
<path d="M153.214 330.398C152.923 331.764 152.431 333.038 151.794 334.168C151.903 332.783 151.812 331.345 151.484 329.87C149.772 321.929 142.142 316.63 134.037 317.231C124.986 317.904 116.208 321 110.963 323.204C109.779 322.057 108.686 320.891 107.703 319.726C107.703 319.726 121.362 312.55 135.731 311.494C143.835 310.893 151.466 316.192 153.178 324.133C153.67 326.318 153.633 328.431 153.214 330.398Z" fill="white"/>
</g>
<path d="M139.337 343.983C136.041 343.983 132.762 343.036 129.921 341.179C122.309 336.225 111.928 328.777 105.718 321.456C105.19 320.836 104.989 320.017 105.135 319.234C105.281 318.451 105.791 317.759 106.501 317.394C107.084 317.085 120.816 309.946 135.567 308.853C145.146 308.143 153.834 314.48 155.8 323.568C156.329 326.045 156.347 328.522 155.819 330.944C154.671 336.28 151.084 340.541 145.966 342.654C143.835 343.546 141.577 343.983 139.337 343.983ZM112.11 320.6C118.375 326.974 127.517 333.311 132.799 336.735C136.113 338.884 140.266 339.267 143.926 337.755C147.405 336.316 149.845 333.439 150.61 329.833C150.974 328.157 150.956 326.409 150.592 324.679C149.19 318.141 142.87 313.606 135.931 314.134C126.297 314.863 116.845 318.505 112.11 320.6Z" fill="#000072"/>
<path d="M152.613 331.836C147.896 329.924 142.997 328.158 138.153 326.5C133.272 324.843 128.337 323.295 123.365 321.856C128.519 322.421 133.655 323.113 138.791 323.932C143.963 324.752 149.044 325.663 154.198 326.792C155.636 327.101 156.547 328.522 156.219 329.961C155.891 331.563 154.107 332.474 152.613 331.836Z" fill="#000072"/>
<path d="M123.019 401.77C123.493 403.955 123.456 406.067 123.037 408.034C120.961 417.723 109.488 422.003 101.183 416.594C94.4813 412.241 83.7363 404.665 77.5443 397.362C77.5443 397.362 91.2032 390.187 105.572 389.13C113.677 388.529 121.307 393.829 123.019 401.77Z" fill="#62C84F"/>
<g opacity="0.2">
<path d="M123.037 408.034C120.961 417.723 109.488 422.003 101.183 416.594C94.4995 412.241 83.7363 404.683 77.5443 397.381C77.5443 397.381 77.8357 397.217 78.4003 396.943C86.2496 401.642 97.0492 405.467 103.933 407.652C111.637 410.092 119.65 405.776 122.036 398.728C122.455 399.693 122.801 400.695 123.019 401.751C123.493 403.955 123.456 406.068 123.037 408.034Z" fill="#000072"/>
</g>
<g opacity="0.6">
<path d="M123.037 408.034C122.746 409.4 122.254 410.675 121.617 411.804C121.726 410.42 121.635 408.981 121.307 407.506C119.595 399.566 111.965 394.266 103.86 394.867C94.8091 395.541 86.031 398.637 80.786 400.841C79.6023 399.693 78.5096 398.528 77.5261 397.362C77.5261 397.362 91.185 390.187 105.554 389.13C113.658 388.529 121.289 393.829 123.001 401.77C123.493 403.955 123.456 406.067 123.037 408.034Z" fill="white"/>
</g>
<path d="M109.16 421.62C105.864 421.62 102.586 420.673 99.7445 418.816C92.132 413.862 81.7512 406.414 75.541 399.092C75.0129 398.473 74.8125 397.654 74.9582 396.87C75.1039 396.087 75.6139 395.395 76.3241 395.031C76.9069 394.722 90.6386 387.582 105.39 386.49C114.951 385.78 123.657 392.117 125.623 401.205C126.152 403.682 126.17 406.159 125.642 408.581C124.494 413.917 120.907 418.178 115.789 420.291C113.64 421.183 111.4 421.62 109.16 421.62ZM81.9151 398.236C88.1982 404.611 97.3405 410.948 102.604 414.372C105.918 416.521 110.071 416.903 113.749 415.392C117.228 413.953 119.668 411.076 120.433 407.47C120.797 405.794 120.779 404.046 120.415 402.316C119.013 395.778 112.693 391.243 105.754 391.771C96.1203 392.481 86.6684 396.142 81.9151 398.236Z" fill="#000072"/>
<path d="M122.418 409.473C117.701 407.561 112.802 405.794 107.958 404.137C103.077 402.48 98.1418 400.932 93.17 399.493C98.3239 400.058 103.46 400.75 108.595 401.569C113.768 402.389 118.849 403.299 124.003 404.428C125.441 404.738 126.352 406.159 126.024 407.597C125.696 409.182 123.93 410.11 122.418 409.473Z" fill="#000072"/>
<path d="M127.335 430.672C129.448 431.4 131.233 432.529 132.708 433.913C139.92 440.706 137.607 452.744 128.683 457.042C121.489 460.503 109.433 465.766 99.9812 467.259C99.9812 467.259 100.946 451.852 107.484 439.013C111.181 431.783 119.668 428.013 127.335 430.672Z" fill="#62C84F"/>
<g opacity="0.2">
<path d="M132.708 433.895C139.901 440.706 137.625 452.726 128.683 457.024C121.489 460.484 109.451 465.748 99.9812 467.259C99.9812 467.259 99.9994 466.931 100.054 466.294C108.158 462.014 117.027 454.766 122.473 450.031C128.556 444.713 129.029 435.625 124.239 429.925C125.277 430.071 126.315 430.307 127.335 430.653C129.448 431.4 131.233 432.529 132.708 433.895Z" fill="#000072"/>
</g>
<g opacity="0.6">
<path d="M132.708 433.895C133.728 434.86 134.547 435.935 135.203 437.064C134.074 436.263 132.799 435.589 131.378 435.097C123.693 432.438 115.224 436.208 111.527 443.438C107.393 451.524 105.499 460.63 104.643 466.257C103.041 466.658 101.475 467.004 99.9812 467.241C99.9812 467.241 100.946 451.834 107.484 438.994C111.181 431.764 119.668 427.976 127.335 430.653C129.448 431.4 131.233 432.529 132.708 433.895Z" fill="white"/>
</g>
<path d="M99.9812 469.9C99.3256 469.9 98.6882 469.663 98.1965 469.208C97.5955 468.662 97.2859 467.878 97.3405 467.077C97.377 466.421 98.415 450.978 105.135 437.793C109.506 429.251 119.413 425.099 128.21 428.14C130.595 428.978 132.726 430.253 134.529 431.947C138.499 435.68 140.284 440.961 139.428 446.443C138.554 452.089 134.966 456.933 129.83 459.392C121.635 463.325 109.87 468.334 100.4 469.845C100.254 469.9 100.109 469.9 99.9812 469.9ZM122.254 432.456C117.228 432.456 112.311 435.37 109.852 440.215C105.445 448.847 103.66 458.809 102.986 463.945C111.691 461.887 121.854 457.37 127.536 454.638C131.087 452.927 133.582 449.576 134.183 445.642C134.766 441.927 133.564 438.339 130.887 435.807C129.63 434.624 128.155 433.731 126.479 433.149C125.095 432.693 123.657 432.456 122.254 432.456Z" fill="#000072"/>
<path d="M133.618 435.17C125.387 441.344 117.483 448.009 109.907 454.984C116.263 446.734 122.965 438.776 130.122 431.182C132.854 428.523 136.605 432.802 133.618 435.17Z" fill="#000072"/>
<path d="M614.355 306.813C616.013 308.653 617.925 310 619.946 310.911C629.981 315.355 641.272 307.851 641.837 296.906C642.292 288.073 642.511 273.54 639.998 263.232C639.998 263.232 624.681 270.809 614.392 282.974C608.582 289.84 608.345 300.13 614.355 306.813Z" fill="#62C84F"/>
<g opacity="0.2">
<path d="M619.946 310.911C629.981 315.355 641.272 307.851 641.819 296.906C642.274 288.092 642.493 273.54 639.979 263.251C639.979 263.251 639.652 263.415 639.032 263.742C638.14 273.832 634.534 285.979 632.021 293.573C629.198 302.06 620.128 306.431 612.261 303.972C612.844 304.974 613.536 305.921 614.337 306.832C616.013 308.671 617.925 310 619.946 310.911Z" fill="#000072"/>
</g>
<g opacity="0.6">
<path d="M619.946 310.911C621.367 311.53 622.806 311.931 624.244 312.095C622.951 311.293 621.713 310.274 620.602 309.035C614.592 302.333 614.829 292.062 620.62 285.196C627.104 277.529 635.59 271.683 640.981 268.405C640.708 266.602 640.38 264.871 639.998 263.232C639.998 263.232 624.681 270.809 614.392 282.974C608.582 289.84 608.364 300.111 614.374 306.813C616.013 308.671 617.925 310 619.946 310.911Z" fill="white"/>
</g>
<path d="M626.065 314.863C623.643 314.863 621.203 314.353 618.89 313.333C616.431 312.24 614.228 310.638 612.388 308.58C605.595 301.022 605.595 289.275 612.37 281.262C622.897 268.805 638.176 261.174 638.832 260.847C639.56 260.501 640.398 260.482 641.127 260.828C641.855 261.174 642.383 261.812 642.584 262.595C645.097 272.885 645.006 286.999 644.496 297.034C644.186 303.226 640.817 308.889 635.517 312.149C632.567 313.952 629.307 314.863 626.065 314.863ZM638.122 267.275C633.241 270.08 623.516 276.29 616.413 284.704C611.35 290.696 611.314 299.456 616.34 305.065C617.67 306.558 619.254 307.706 621.039 308.507C624.845 310.201 629.107 309.891 632.749 307.651C636.574 305.302 638.978 301.24 639.214 296.779C639.56 289.694 639.834 277.128 638.122 267.275Z" fill="#000072"/>
<path d="M616.34 309.527C618.635 304.191 621.094 299.019 623.662 293.828C626.229 288.674 628.907 283.612 631.711 278.603C628.724 286.653 626.029 294.775 623.625 303.007C622.824 305.739 622.059 308.507 621.367 311.221C620.274 314.845 615.011 313.06 616.34 309.527Z" fill="#000072"/>
<path d="M165.944 334.204C165.744 334.204 165.562 334.186 165.362 334.131L152.832 331.308C151.411 330.98 150.501 329.56 150.829 328.139C151.156 326.719 152.577 325.826 153.997 326.136L166.527 328.959C167.948 329.287 168.858 330.707 168.53 332.128C168.239 333.366 167.146 334.204 165.944 334.204Z" fill="#000072"/>
<path d="M131.87 435.006C131.051 435.006 130.249 434.624 129.739 433.932C128.865 432.748 129.12 431.091 130.304 430.235C143.161 420.783 154.598 406.122 154.708 405.977C155.6 404.829 157.276 404.611 158.423 405.503C159.57 406.395 159.789 408.071 158.896 409.218C158.405 409.837 146.895 424.607 133.436 434.496C132.963 434.842 132.416 435.006 131.87 435.006Z" fill="#000072"/>
<path d="M145.839 422.622C145.547 422.622 145.256 422.567 144.964 422.476C144.309 422.24 128.938 416.849 122.145 411.349C121.016 410.42 120.834 408.763 121.763 407.615C122.691 406.486 124.349 406.304 125.496 407.233C131.56 412.15 146.567 417.432 146.713 417.486C148.097 417.96 148.825 419.471 148.334 420.856C147.969 421.93 146.931 422.622 145.839 422.622Z" fill="#000072"/>
<path d="M604.903 362.286C604.667 362.286 604.412 362.25 604.175 362.177C602.773 361.776 601.953 360.301 602.354 358.899C611.314 327.556 617.415 309.927 617.469 309.764C617.943 308.379 619.455 307.651 620.839 308.124C622.223 308.598 622.951 310.11 622.478 311.494C622.423 311.676 616.359 329.159 607.453 360.356C607.125 361.54 606.069 362.286 604.903 362.286Z" fill="#000072"/>
<path d="M612.443 336.808C611.66 336.808 610.895 336.462 610.385 335.825C609.475 334.677 609.639 333.02 610.786 332.109C611.132 331.818 619.6 325.098 632.822 323.75C634.279 323.586 635.572 324.661 635.718 326.118C635.863 327.575 634.807 328.868 633.35 329.013C621.786 330.179 614.191 336.152 614.119 336.225C613.609 336.608 613.026 336.808 612.443 336.808Z" fill="#000072"/>
<g opacity="0.2">
<path d="M342.289 449.721C319.106 436.172 320.016 410.147 320.016 410.147L324.496 410.274L339.084 413.899C339.102 413.899 329.486 431.127 342.289 449.721Z" fill="#000072"/>
</g>
<g opacity="0.2">
<path d="M353.872 454.675C349.465 453.364 345.64 451.67 342.289 449.721C340.942 448.938 339.648 448.1 338.465 447.208C376.455 455.658 372.812 413.134 372.812 413.134H379.478C399.329 422.167 386.271 464.345 353.872 454.675Z" fill="#000072"/>
</g>
<path d="M366.814 456.03L361.515 456.087L362.517 548.212L367.816 548.154L366.814 456.03Z" fill="#000072"/>
<path d="M365.163 581.72C389.373 581.72 408.999 562.094 408.999 537.884C408.999 513.675 389.373 494.049 365.163 494.049C340.953 494.049 321.328 513.675 321.328 537.884C321.328 562.094 340.953 581.72 365.163 581.72Z" fill="#C072F7"/>
<g opacity="0.3">
<path d="M409.017 537.885C409.017 562.088 389.385 581.72 365.182 581.72C350.12 581.72 336.844 574.126 328.958 562.561C334.895 565.585 341.615 567.278 348.736 567.278C372.94 567.278 392.572 547.664 392.572 523.443C392.572 514.282 389.767 505.777 384.96 498.747C399.219 505.977 409.017 520.784 409.017 537.885Z" fill="#000072"/>
</g>
<g opacity="0.6">
<path d="M401.368 513.135C393.501 505.504 382.756 500.824 370.936 500.824C346.733 500.824 327.101 520.456 327.101 544.659C327.101 553.82 329.923 562.343 334.75 569.391C326.481 561.432 321.328 550.25 321.328 537.848C321.328 513.645 340.96 494.012 365.163 494.012C380.206 494.031 393.483 501.607 401.368 513.135Z" fill="white"/>
</g>
<path d="M365.163 585.326C338.993 585.326 317.722 564.037 317.722 537.885C317.722 511.714 339.011 490.443 365.163 490.443C391.315 490.443 412.605 511.732 412.605 537.885C412.623 564.037 391.334 585.326 365.163 585.326ZM365.163 497.636C342.981 497.636 324.933 515.684 324.933 537.866C324.933 560.048 342.981 578.096 365.163 578.096C387.345 578.096 405.393 560.048 405.393 537.866C405.411 515.684 387.363 497.636 365.163 497.636Z" fill="#000072"/>
<path d="M327.756 557.353C326.7 557.353 325.644 557.298 324.606 557.189L325.043 552.891C336.589 554.093 349.72 547.172 359.263 534.879C369.206 522.058 372.94 506.469 368.769 495.16L372.83 493.666C377.584 506.542 373.686 523.351 362.686 537.538C352.907 550.123 340.049 557.353 327.756 557.353Z" fill="#000072"/>
<path d="M335.933 570.611C334.877 570.611 333.948 569.828 333.802 568.753C333.639 567.57 334.458 566.477 335.642 566.313C347.935 564.601 360.738 555.714 370.754 541.909C380.971 527.832 385.997 511.659 383.848 499.676C383.63 498.492 384.413 497.381 385.597 497.163C386.781 496.944 387.892 497.727 388.11 498.911C390.441 512.005 385.142 529.452 374.251 544.441C363.542 559.192 349.683 568.717 336.225 570.593C336.134 570.611 336.043 570.611 335.933 570.611Z" fill="#000072"/>
<path d="M350.94 580.227C350.139 580.227 349.355 579.772 348.991 578.988C348.481 577.914 348.937 576.621 350.029 576.111C373.978 564.783 389.859 542.492 397.216 509.893C397.471 508.727 398.637 507.999 399.802 508.254C400.968 508.509 401.696 509.674 401.441 510.84C393.774 544.805 377.11 568.08 351.887 580.008C351.577 580.154 351.25 580.227 350.94 580.227Z" fill="#000072"/>
<path d="M365.946 583.869C365.218 583.869 364.508 583.505 364.107 582.831C363.488 581.811 363.797 580.482 364.835 579.863C394.302 561.869 404.865 524.608 404.956 524.226C405.266 523.078 406.468 522.404 407.615 522.714C408.762 523.024 409.436 524.226 409.127 525.373C408.689 526.976 398.036 564.656 367.094 583.56C366.711 583.76 366.329 583.869 365.946 583.869Z" fill="#000072"/>
<path d="M343.437 551.58C342.745 551.58 342.089 551.252 341.652 550.651C334.968 541.035 323.768 542.128 323.659 542.146C322.475 542.274 321.4 541.418 321.273 540.234C321.145 539.05 322.001 537.976 323.185 537.848C323.75 537.793 337.044 536.5 345.185 548.192C345.859 549.176 345.622 550.523 344.639 551.197C344.311 551.452 343.874 551.58 343.437 551.58Z" fill="#000072"/>
<path d="M351.905 544.659C351.286 544.659 350.667 544.386 350.23 543.876C337.955 528.924 322.311 531.092 321.655 531.183C320.472 531.346 319.379 530.545 319.197 529.38C319.015 528.196 319.816 527.103 321 526.921C321.765 526.812 339.685 524.226 353.581 541.144C354.345 542.073 354.2 543.439 353.289 544.186C352.87 544.495 352.397 544.659 351.905 544.659Z" fill="#000072"/>
<path d="M361.23 536.027C360.592 536.027 359.955 535.754 359.536 535.207C346.806 519.163 327.228 518.289 327.028 518.289C325.844 518.252 324.897 517.251 324.933 516.049C324.97 514.865 325.99 513.918 327.155 513.954C328.029 513.991 348.9 514.847 362.905 532.512C363.652 533.441 363.488 534.807 362.559 535.553C362.177 535.881 361.703 536.027 361.23 536.027Z" fill="#000072"/>
<path d="M367.294 525.61C366.638 525.61 365.983 525.3 365.564 524.736C355.566 511.295 342.635 508.673 338.392 507.817C337.208 507.58 336.716 507.471 336.206 507.088C335.259 506.378 335.059 505.012 335.769 504.065C336.389 503.246 337.481 502.991 338.392 503.391C338.574 503.446 338.865 503.501 339.248 503.573C343.892 504.52 358.061 507.38 369.042 522.149C369.753 523.115 369.552 524.462 368.605 525.173C368.186 525.482 367.731 525.61 367.294 525.61Z" fill="#000072"/>
<path d="M372.302 512.534C371.61 512.534 370.955 512.206 370.536 511.605C365.054 503.737 356.13 500.696 352.779 499.549C352.233 499.366 351.814 499.221 351.559 499.111C350.466 498.656 349.938 497.381 350.412 496.289C350.867 495.196 352.142 494.668 353.235 495.141C353.435 495.214 353.744 495.323 354.182 495.469C357.897 496.744 367.804 500.131 374.087 509.146C374.779 510.13 374.524 511.477 373.559 512.151C373.158 512.406 372.721 512.534 372.302 512.534Z" fill="#000072"/>
<g opacity="0.6">
<path d="M307.019 286.125C309.769 284.882 311.681 283.175 311.292 282.314C310.902 281.452 308.357 281.762 305.608 283.006C302.859 284.25 300.946 285.956 301.336 286.818C301.726 287.679 304.27 287.369 307.019 286.125Z" fill="white"/>
</g>
</g>
<path d="M353.872 454.675C349.465 453.364 345.64 451.67 342.289 449.721C340.942 448.938 339.649 448.1 338.465 447.208H338.447C319.215 433.203 320.016 410.147 320.016 410.147L324.496 410.274L373.923 411.622C375.999 411.877 377.839 412.387 379.46 413.134C399.329 422.167 386.271 464.345 353.872 454.675Z" fill="#97979E"/>
<path d="M363.069 460.029C359.736 460.029 356.258 459.519 352.743 458.463C333.147 452.617 324.205 439.759 320.162 430.016C315.809 419.526 316.064 410.402 316.082 410.019C316.155 407.834 317.995 406.122 320.18 406.213C322.366 406.286 324.059 408.125 323.986 410.293C323.95 411.567 323.422 441.471 355.001 450.887C364.271 453.655 372.575 451.797 378.385 445.642C384.067 439.632 386.398 430.326 383.94 423.533C382.792 420.346 380.024 416.357 373.45 415.574C371.282 415.319 369.734 413.334 369.989 411.167C370.244 409 372.211 407.452 374.397 407.707C382.647 408.708 388.675 413.352 391.37 420.837C394.848 430.453 391.862 442.892 384.122 451.069C378.567 456.969 371.191 460.029 363.069 460.029Z" fill="#000072"/>
<path d="M346.15 412.332C343.764 414.809 341.634 417.705 339.776 420.637C337.9 423.678 336.298 426.92 335.351 430.508C334.986 426.774 335.351 422.913 336.097 419.198C336.899 415.337 337.973 411.64 339.539 407.98L346.15 412.332Z" fill="#000072"/>
<path d="M370.627 415.483L356.84 427.685L364.234 410.803L370.627 415.483Z" fill="#000072"/>
<path d="M389.622 423.241C384.832 428.432 379.824 433.567 373.941 437.446C375.963 434.624 377.511 431.582 378.95 428.505C380.37 425.463 381.7 422.258 382.847 419.144C382.829 419.144 389.622 423.241 389.622 423.241Z" fill="#000072"/>
<path d="M606.379 359.646L589.824 359.627L206.393 360.848L182.936 326.537C181.515 324.46 178.747 323.787 176.525 324.97L170.771 328.066C168.112 329.505 167.328 332.984 169.168 335.388C172.883 340.214 178.347 348.883 181.169 360.848L155.819 361.795C151.12 361.977 147.132 365.255 146.039 369.826C144.473 376.328 142.979 386.253 144.655 396.889C145.438 401.842 149.681 405.503 154.689 405.63L583.614 417.377L611.878 399.566L616.122 378.659" fill="#EA9A3B"/>
<g opacity="0.6">
<path d="M183.719 360.993C183.719 361.011 183.737 361.03 183.737 361.066C185.012 364.581 182.408 368.314 178.656 368.424L154.143 369.152C150.027 369.316 146.458 371.848 144.892 375.526C145.238 373.432 145.638 371.501 146.039 369.826C147.132 365.255 151.12 361.977 155.837 361.795L183.719 360.993Z" fill="white"/>
</g>
<g opacity="0.6">
<path d="M615.138 378.659L610.895 399.566L610.658 399.712L613.445 386.016L603.72 367.003L587.165 366.985L207.467 368.187C205.136 368.187 202.933 367.04 201.621 365.109L180.277 333.894C178.857 331.818 176.088 331.144 173.866 332.328L168.221 335.351C166.381 332.947 167.146 329.487 169.823 328.048L175.578 324.952C177.8 323.768 180.568 324.424 181.989 326.518L205.446 360.829L588.877 359.609L605.431 359.627L615.138 378.659Z" fill="white"/>
</g>
<path d="M583.614 420.546C583.577 420.546 583.559 420.546 583.523 420.546L154.598 408.799C148.024 408.617 142.524 403.809 141.504 397.38C139.738 386.217 141.304 375.818 142.943 369.079C144.382 363.142 149.627 358.844 155.691 358.626L177.072 357.824C174.285 348.555 169.969 341.652 166.636 337.336C165.198 335.46 164.651 333.056 165.143 330.743C165.653 328.412 167.146 326.409 169.241 325.28L174.996 322.184C178.656 320.217 183.191 321.328 185.522 324.752L208.032 357.661L589.788 356.44L606.342 356.459C608.09 356.459 609.529 357.879 609.511 359.646C609.511 361.394 608.09 362.814 606.324 362.814L589.769 362.796L206.338 364.016C206.338 364.016 206.338 364.016 206.32 364.016C205.264 364.016 204.28 363.506 203.697 362.632L180.241 328.321C179.731 327.575 178.747 327.338 177.964 327.775L172.209 330.871C171.59 331.217 171.371 331.763 171.317 332.055C171.262 332.346 171.208 332.911 171.626 333.439C175.761 338.83 181.297 347.826 184.211 360.101C184.429 361.03 184.229 361.995 183.646 362.76C183.063 363.525 182.189 363.98 181.242 364.016L155.873 364.963C152.632 365.091 149.827 367.386 149.062 370.554C147.569 376.746 146.13 386.235 147.733 396.379C148.279 399.803 151.211 402.352 154.726 402.443L582.685 414.154L608.983 397.581L612.953 378.003C613.299 376.273 614.975 375.162 616.705 375.526C618.417 375.872 619.546 377.548 619.181 379.278L614.938 400.185C614.774 401.041 614.246 401.788 613.518 402.243L585.253 420.054C584.816 420.382 584.215 420.546 583.614 420.546Z" fill="#000072"/>
<g opacity="0.2">
<path d="M616.122 378.659L611.878 399.566L583.614 417.377L154.708 405.631C149.718 405.503 145.456 401.824 144.673 396.889C143.526 389.568 143.872 382.574 144.709 376.801C145.565 381.627 149.772 385.197 154.708 385.324L295.212 389.167L363.797 370.882L365.455 375.545C362.195 381.973 354.764 386.982 347.68 390.606L436.135 393.028C447.535 382.301 455.731 360.848 455.731 360.848C457.916 372.485 456.313 385.907 454.783 393.538L550.232 396.142C553.073 396.215 555.914 396.179 558.736 396.033L567.515 360.775C567.515 360.775 570.556 383.357 578.096 393.338C590.006 390.588 601.425 385.834 611.878 379.26L613.171 372.904L616.122 378.659Z" fill="#000072"/>
</g>
<path d="M627.996 429.816C624.936 432.293 621.549 434.733 617.815 437.1C603.1 446.443 584.342 447.518 569.172 438.94C563.672 435.826 558.281 431.364 553.673 424.917L565.183 413.698C565.183 413.698 568.899 414.372 573.961 414.281C582.193 414.099 594.013 411.786 599.221 401.041C599.695 400.094 600.095 399.111 600.441 398.036C607.216 377.129 597.218 353.781 622.332 345.623C623.698 345.185 625.118 344.985 626.557 344.985C647.537 345.24 673.762 392.773 627.996 429.816Z" fill="#97979E"/>
<path d="M627.996 429.816C621.221 399.274 599.239 401.023 599.239 401.023H599.221C599.695 400.076 600.095 399.092 600.441 398.018C607.216 377.111 597.218 353.763 622.332 345.604C643.603 338.684 676.895 390.241 627.996 429.816Z" fill="white"/>
<path d="M591.663 447.973C583.304 447.973 575.036 445.897 567.606 441.69C561.122 438.011 555.568 433.003 551.087 426.756C550.068 425.336 550.395 423.351 551.816 422.312C553.236 421.293 555.222 421.62 556.26 423.041C560.193 428.523 565.056 432.93 570.738 436.135C584.652 444.003 602.044 443.329 616.122 434.387C619.6 432.183 622.915 429.816 625.993 427.321C653.729 404.866 653.547 378.458 644.969 362.651C639.324 352.27 630.218 346.369 623.315 348.609C608.273 353.508 607.562 364.308 606.67 378.003C606.215 384.851 605.759 391.935 603.465 398.983C603.046 400.276 602.59 401.405 602.062 402.443C592.738 421.73 565.766 417.013 564.619 416.812C562.889 416.503 561.741 414.846 562.069 413.116C562.379 411.385 564.036 410.238 565.766 410.566C566.003 410.602 589.132 414.609 596.362 399.639C596.763 398.837 597.109 398 597.418 397.034C599.458 390.733 599.895 384.068 600.314 377.603C601.243 363.434 602.208 348.791 621.349 342.581C631.329 339.34 643.33 346.351 650.542 359.646C660.285 377.602 660.741 407.397 629.981 432.293C626.703 434.933 623.188 437.465 619.509 439.796C610.931 445.223 601.243 447.973 591.663 447.973Z" fill="#000072"/>
<g opacity="0.2">
<path d="M627.996 429.816C624.936 432.293 621.549 434.733 617.815 437.1C603.1 446.443 584.342 447.518 569.172 438.94C563.672 435.826 558.281 431.364 553.673 424.917L565.183 413.698C565.183 413.698 568.899 414.372 573.961 414.281L574.763 414.846C574.763 414.846 609.165 436.645 626.247 404.738C643.33 372.831 626.247 346.46 626.247 346.46C626.247 346.46 626.339 345.914 626.539 344.985C647.537 345.24 673.762 392.773 627.996 429.816Z" fill="#000072"/>
</g>
<path d="M595.233 326.664C594.504 337.063 592.629 348.1 589.824 359.646L566.367 360.866C566.367 360.866 560.813 366.985 563.071 382.065C565.329 397.126 573.433 421.821 548.374 431.619C535.899 436.5 520.364 437.884 507.47 434.733C502.152 433.44 497.308 431.346 493.302 428.414C490.97 426.738 488.931 424.735 487.255 422.44C485.27 419.708 483.977 416.667 483.394 413.516C482.465 408.435 483.413 403.099 486.308 398.492C488.421 395.141 491.681 391.535 496.762 388.493C496.762 388.493 490.552 377.184 489.022 361.74L487.82 361.758L455.293 362.305C455.293 362.305 453.199 367.623 449.247 374.507C441.835 387.473 427.885 405.977 409.236 404.684C384.45 402.972 373.741 387.838 363.779 372.048C363.725 371.975 363.67 371.884 363.615 371.793C362.14 369.462 360.701 367.131 359.226 364.836C347.644 346.752 411.64 206.393 411.64 206.393C461.431 181.68 531.819 193.591 561.013 251.522C588.476 267.658 597.528 294.01 595.233 326.664Z" fill="#97979E"/>
<g opacity="0.2">
<path d="M422.931 363.361C462.797 312.86 490.57 262.923 421.42 217.575L413.88 350.576" fill="#000072"/>
</g>
<g opacity="0.6">
<path d="M589.842 359.627L589.642 359.646C598.475 316.101 592.556 280.734 558.755 260.81C529.561 202.897 459.173 190.968 409.382 215.681C409.382 215.681 372.138 297.361 359.627 344.147C368.97 299.984 411.64 206.357 411.64 206.357C461.431 181.644 531.82 193.554 561.013 251.486C597.2 272.812 601.443 311.84 589.842 359.627Z" fill="white"/>
</g>
<path d="M458.735 346.916C458.735 346.916 463.908 330.798 489.058 345.878L490.187 361.704L457.315 360.101L458.735 346.916Z" fill="white"/>
<path d="M522.368 439.596C516.959 439.596 511.659 438.995 506.742 437.793C500.805 436.336 495.669 434.041 491.444 430.945C488.803 429.033 486.527 426.793 484.706 424.279C478.714 416.084 478.295 405.285 483.649 396.761C485.926 393.137 488.967 389.968 492.7 387.328C490.879 383.339 487.656 375.199 486.235 364.909L457.461 365.382C453.636 374.106 437.173 407.871 411.148 407.871C410.456 407.871 409.764 407.852 409.054 407.798C381.317 405.867 370.208 388.184 359.481 371.083C358.516 369.553 357.551 368.005 356.567 366.493C353.089 361.048 351.523 345.932 378.148 277.62C392.572 240.613 408.598 205.374 408.762 205.009C409.072 204.354 409.582 203.807 410.238 203.48C460.083 178.748 532.621 189.256 563.435 249.191C596.581 269.206 606.233 305.575 592.938 360.356C592.61 361.722 591.427 362.705 590.024 362.778L568.152 363.925C567.005 366.002 564.746 371.556 566.258 381.555C566.513 383.285 566.859 385.179 567.223 387.182C569.955 402.225 574.107 424.953 549.576 434.533C541.035 437.884 531.528 439.596 522.368 439.596ZM489.04 358.517C490.679 358.517 492.045 359.755 492.209 361.376C493.648 376.018 499.512 386.8 499.566 386.909C500.386 388.402 499.876 390.278 498.419 391.17C494.412 393.593 491.262 396.597 489.022 400.149C485.052 406.45 485.379 414.445 489.841 420.528C491.28 422.495 493.083 424.279 495.196 425.791C498.747 428.395 503.136 430.344 508.272 431.601C520.146 434.514 535.079 433.367 547.263 428.614C566.914 420.928 563.763 403.609 560.977 388.311C560.594 386.253 560.248 384.323 559.975 382.502C557.553 366.402 563.399 359.445 564.073 358.699C564.637 358.08 565.42 357.697 566.258 357.661L587.347 356.568C599.367 305.047 590.48 272.484 559.447 254.218C558.919 253.908 558.5 253.453 558.227 252.906C529.616 196.14 461.431 185.851 414.117 208.706C411.367 214.789 397.07 246.678 384.104 279.969C358.37 346.023 360.046 360.101 361.976 363.088C362.96 364.636 363.943 366.184 364.908 367.732C375.253 384.213 385.032 399.785 409.527 401.478C435.424 403.281 452.252 361.503 452.416 361.084C452.89 359.882 454.037 359.099 455.312 359.081L489.04 358.517C489.022 358.517 489.004 358.517 489.04 358.517Z" fill="#000072"/>
<path d="M563.399 359.773C564.419 355.803 566.13 349.611 567.205 345.513C569.409 337.081 570.774 328.321 571.375 319.616C571.831 313.297 571.667 307.014 571.193 300.658C571.703 302.879 572.541 305.939 572.869 308.143C573.452 311.129 573.889 314.699 574.18 317.686C575 327.356 574.635 337.118 573.27 346.715C572.723 350.594 571.94 354.437 570.756 358.17C570.356 359.427 569.937 360.629 569.372 361.94C568.68 363.561 566.804 364.29 565.183 363.598C563.69 362.942 562.943 361.285 563.399 359.773Z" fill="#000072"/>
<path d="M563.38 249.155C565.766 257.569 566.313 266.347 566.385 275.052C564.418 267.476 561.96 259.954 558.299 253.016C558.063 252.597 557.808 252.105 557.589 251.814C556.587 250.338 556.952 248.335 558.427 247.334C560.212 246.04 562.834 247.042 563.38 249.155Z" fill="#000072"/>
<path d="M485.871 361.594C487.456 348.209 489.204 334.878 491.316 321.583C491.335 335.005 491.699 348.445 492.227 361.831C492.227 366.366 485.525 366.129 485.871 361.594Z" fill="#000072"/>
<path d="M452.288 361.339C455.075 354.619 457.242 347.426 458.826 340.287C459.373 337.864 459.81 335.424 460.211 332.947C460.338 335.442 460.429 337.956 460.393 340.451C460.338 348.118 459.719 355.621 458.335 363.197C457.242 367.768 450.631 365.747 452.288 361.339Z" fill="#000072"/>
<path d="M413.643 346.988C419.726 351.396 423.004 358.826 423.951 366.074C422.33 363.215 420.272 360.52 417.832 358.371C415.61 356.531 413.06 354.728 410.329 354.164C405.648 351.833 408.835 344.949 413.643 346.988Z" fill="#000072"/>
<path d="M495.76 385.434C506.25 383.121 517.469 383.849 527.467 387.765C531.892 389.422 535.99 392.026 539.669 394.904C530.199 389.185 518.816 387.255 507.944 388.894C504.575 389.422 500.878 390.223 497.727 391.48C493.502 393.028 491.426 386.708 495.76 385.434Z" fill="#000072"/>
<path d="M551.816 430.053C551.834 429.907 551.834 429.743 551.834 429.597C551.834 421.438 544.622 414.828 535.717 414.828C526.829 414.828 519.618 421.438 519.618 429.597C519.618 432.056 520.255 434.351 521.421 436.39" fill="#000072"/>
<path d="M510.829 416.09C511.406 412.587 508.438 409.181 504.201 408.483C499.963 407.785 496.06 410.059 495.483 413.563C494.906 417.066 497.874 420.472 502.111 421.17C506.349 421.867 510.252 419.593 510.829 416.09Z" fill="#000072"/>
<path d="M524.953 407.551C526.166 404.214 523.877 400.32 519.84 398.853C515.804 397.385 511.549 398.901 510.336 402.238C509.123 405.575 511.412 409.469 515.448 410.936C519.485 412.403 523.74 410.887 524.953 407.551Z" fill="#000072"/>
<path d="M507.725 434.168C507.652 434.369 507.58 434.533 507.488 434.715C502.171 433.422 497.326 431.327 493.32 428.395C494.758 425.39 498.783 424.079 502.626 425.481C506.651 426.938 508.927 430.836 507.725 434.168Z" fill="#000072"/>
<g opacity="0.2">
<path d="M595.233 326.664C594.504 337.045 592.629 348.081 589.824 359.628L566.367 360.848C566.367 360.848 560.813 366.967 563.071 382.046C565.329 397.107 573.433 421.803 548.374 431.601C535.899 436.481 520.364 437.865 507.47 434.715C502.152 433.422 497.308 431.327 493.301 428.395C490.97 426.72 488.931 424.716 487.255 422.422C485.27 419.69 483.977 416.649 483.394 413.498C529.051 429.069 552.799 423.114 535.717 376.983C535.717 376.983 520.401 333.293 551.67 302.37C551.67 302.37 572.122 284.249 572.213 308.033C572.322 331.8 585.107 345.859 595.233 326.664Z" fill="#000072"/>
</g>
<g opacity="0.2">
<path d="M449.265 374.47C441.853 387.437 427.903 405.94 409.254 404.647C384.468 402.935 373.759 387.801 363.797 372.012L387.218 363.343L401.441 355.111C401.441 355.111 412.714 398.364 449.265 374.47Z" fill="#000072"/>
</g>
<path d="M245.02 193.572C245.02 193.572 205.446 188.491 179.858 202.678C174.559 205.629 171.371 211.311 171.663 217.375C172.337 231.198 178.693 258.479 213.55 287.327" fill="#97979E"/>
<g opacity="0.6">
<path d="M245.02 193.572L242.707 200.493C229.977 199.783 203.807 199.855 185.085 210.218C179.767 213.168 176.598 218.85 176.89 224.915C177.309 233.456 179.895 247.133 190.02 263.141C175.524 243.91 172.155 227.246 171.681 217.393C171.39 211.329 174.559 205.629 179.858 202.678C205.446 188.491 245.02 193.572 245.02 193.572Z" fill="white"/>
</g>
<path d="M307.978 166.673C307.978 166.673 324.314 133.2 354.309 116.573C358.461 114.26 363.597 114.77 367.166 117.902C376.801 126.352 394.739 147.824 400.221 193.572" fill="#97979E"/>
<g opacity="0.6">
<path d="M395.031 166.819C387.254 143.763 376.272 131.233 369.443 125.26C365.873 122.109 360.72 121.617 356.585 123.93C334.294 136.296 319.543 157.968 313.442 168.276L307.996 166.692C307.996 166.692 324.351 133.218 354.327 116.573C358.479 114.26 363.615 114.77 367.185 117.902C374.706 124.495 387.272 139.028 395.031 166.819Z" fill="white"/>
</g>
<path d="M344.019 166.692C344.019 166.692 351.887 144.473 363.943 133.546C363.943 133.546 382.592 151.758 384.941 182.117" fill="#F27E80"/>
<g opacity="0.2">
<path d="M384.85 180.97C378.858 160.809 366.948 149.19 366.948 149.19C360.92 154.654 355.93 162.94 352.47 169.879L344.019 166.692C344.019 166.692 351.887 144.473 363.943 133.564C363.943 133.546 382.118 151.303 384.85 180.97Z" fill="#000072"/>
</g>
<path d="M225.497 216.683C225.497 216.683 207.449 214.06 194.883 215.754C190.203 216.392 186.833 220.69 187.38 225.388C188.472 235.113 193.553 252.323 214.315 266.183" fill="#F27E80"/>
<g opacity="0.2">
<path d="M225.497 216.683L223.239 226.608C216.992 226.117 208.724 225.789 202.022 226.681C197.342 227.319 193.991 231.617 194.519 236.315C195.01 240.704 196.322 246.641 199.545 253.107C190.858 242.671 188.145 232.199 187.38 225.388C186.852 220.69 190.202 216.392 194.883 215.754C207.449 214.06 225.497 216.683 225.497 216.683Z" fill="#000072"/>
</g>
<path d="M440.651 313.989C434.75 330.452 422.876 344.038 407.797 352.889C377.82 370.5 325.662 386.927 282.937 386.016C230.651 384.887 217.374 351.814 214.825 330.907C212.275 310 214.26 266.765 214.825 253.198C215.389 239.63 221.326 189.329 293.19 169.824C365.054 150.319 406.431 199.782 406.431 199.782C436.025 235.987 453.818 277.237 440.651 313.989Z" fill="#97979E"/>
<g opacity="0.6">
<path d="M385.943 182.736C366.602 172.465 337.773 164.342 300.967 174.341C275.415 181.279 258.205 192.097 246.586 203.789C248.48 218.195 241.687 229.395 226.207 237.39C223.421 246.259 222.765 253.653 222.601 257.714C222.037 271.282 220.052 314.517 222.601 335.424C224.204 348.555 230.013 366.457 247.06 378.258C223.967 367.003 216.664 345.841 214.843 330.907C212.293 310 214.278 266.765 214.843 253.198C215.408 239.63 221.345 189.329 293.208 169.824C335.314 158.387 366.948 170.644 385.943 182.736Z" fill="white"/>
</g>
<path d="M410.529 351.195C433.84 304.865 394.648 250.32 336.953 276.4C306.193 262.559 287.053 270.116 278.439 297.015C241.942 323.258 255.237 384.013 290.659 385.98C336.407 382.465 376.873 371.593 410.529 351.195Z" fill="white"/>
<g opacity="0.2">
<path d="M440.651 313.989C434.769 330.452 422.876 344.038 407.797 352.889C377.802 370.5 325.644 386.945 282.937 386.016C258.132 385.488 242.106 377.748 231.835 367.549C238.154 369.079 245.293 370.026 253.361 370.19C296.086 371.119 348.244 354.674 378.221 337.063C393.282 328.212 405.174 314.626 411.075 298.163C424.242 261.393 406.468 220.161 376.855 183.938C376.855 183.938 372.138 178.293 363.123 171.591C391.17 181.552 406.413 199.764 406.413 199.764C436.044 235.987 453.8 277.219 440.651 313.989Z" fill="#000072"/>
</g>
<path d="M293.482 305.174C292.589 313.989 304.518 318.032 309.945 312.058C311.529 310.383 312.331 308.325 313.241 306.139L313.697 305.101C314.352 303.59 316.119 302.879 317.63 303.535C327.465 309.636 341.688 301.368 335.351 289.494C348.663 302.06 327.337 320.035 314.68 309.691L319.87 307.614C319.67 309.399 319.106 311.184 318.213 312.878C315.591 318.05 308.943 320.945 303.553 319.853C296.705 318.942 290.404 312.022 293.482 305.174Z" fill="#000072"/>
<path d="M296.25 286.289C300.876 281.317 307.013 278.585 314.789 278.366C316.957 278.312 318.832 279.951 318.905 282.118C319.014 285.159 318.25 289.803 314.17 294.848C313.423 295.759 312.313 296.305 311.129 296.305C308.124 296.305 301.986 295.795 296.833 292.116C294.939 290.769 294.647 288 296.25 286.289Z" fill="#000072"/>
<path d="M316.556 310.273C315.19 310.273 313.915 309.454 313.387 308.106L308.579 295.668C307.905 293.919 308.779 291.952 310.528 291.279C312.276 290.605 314.243 291.479 314.917 293.227L319.725 305.666C320.399 307.414 319.524 309.381 317.776 310.055C317.375 310.201 316.975 310.273 316.556 310.273Z" fill="#000072"/>
<path d="M286.397 389.222C285.213 389.222 284.03 389.203 282.864 389.185C224.805 387.928 213.732 348.281 211.674 331.29C209.216 311.038 210.927 270.317 211.565 255.001L211.638 253.07C211.984 244.875 214.115 228.63 224.568 212.057C238.154 190.531 260.955 175.288 292.352 166.783C330.47 156.438 360.082 165.38 378.203 174.687C397.872 184.794 408.416 197.233 408.853 197.761C433.221 227.574 459.027 272.101 443.62 315.1C437.646 331.8 425.481 346.205 409.381 355.657C380.57 372.558 329.614 389.222 286.397 389.222ZM326.336 168.403C315.827 168.403 305.046 169.897 294.028 172.884C227.682 190.877 218.759 235.132 217.994 253.325L217.921 255.256C217.283 270.444 215.571 310.765 217.975 330.507C220.288 349.574 231.816 381.718 282.992 382.811C325.771 383.722 377.329 367.076 406.176 350.121C420.982 341.416 432.164 328.194 437.646 312.896C452.033 272.702 427.265 230.269 403.954 201.749C403.881 201.658 393.665 189.657 375.052 180.15C359.681 172.337 343.382 168.403 326.336 168.403Z" fill="#000072"/>
<path d="M400.221 196.759C398.636 196.759 397.271 195.576 397.07 193.955C391.752 149.627 374.743 128.775 365.09 120.306C362.559 118.084 358.862 117.702 355.857 119.377C327.137 135.313 311.001 167.766 310.837 168.094C310.072 169.66 308.16 170.316 306.594 169.551C305.01 168.786 304.354 166.874 305.137 165.308C305.829 163.905 322.256 130.742 352.779 113.823C358.115 110.872 364.744 111.546 369.279 115.535C379.623 124.622 397.817 146.786 403.39 193.208C403.59 194.956 402.352 196.541 400.603 196.741C400.476 196.741 400.348 196.759 400.221 196.759Z" fill="#000072"/>
<path d="M384.941 184.776C383.575 184.776 382.41 183.72 382.3 182.336C380.479 158.824 368.387 142.689 363.834 137.371C353.471 148.225 346.587 167.384 346.514 167.584C346.023 168.968 344.511 169.678 343.127 169.205C341.743 168.713 341.033 167.202 341.506 165.818C341.834 164.889 349.738 142.852 362.14 131.598C363.178 130.651 364.763 130.687 365.764 131.67C366.547 132.435 385.142 150.938 387.564 181.935C387.673 183.392 386.58 184.667 385.123 184.776C385.087 184.776 385.014 184.776 384.941 184.776Z" fill="#000072"/>
<path d="M213.55 290.514C212.84 290.514 212.111 290.277 211.529 289.785C175.706 260.118 169.186 231.781 168.494 217.539C168.13 210.218 171.9 203.461 178.31 199.91C204.499 185.377 243.763 190.221 245.421 190.422C247.169 190.64 248.389 192.243 248.171 193.973C247.952 195.721 246.368 196.941 244.619 196.723C244.237 196.668 205.755 191.951 181.406 205.465C177.126 207.832 174.613 212.349 174.85 217.229C175.487 230.433 181.643 256.785 215.59 284.904C216.937 286.015 217.138 288.019 216.009 289.384C215.371 290.131 214.479 290.514 213.55 290.514Z" fill="#000072"/>
<path d="M214.297 268.823C213.787 268.823 213.277 268.678 212.822 268.386C190.931 253.762 185.813 235.368 184.721 225.698C184.029 219.597 188.418 213.97 194.519 213.15C207.303 211.42 225.114 213.969 225.861 214.079C227.3 214.297 228.32 215.627 228.101 217.084C227.883 218.522 226.553 219.542 225.096 219.324C224.914 219.306 207.267 216.774 195.211 218.395C191.951 218.832 189.601 221.837 189.984 225.097C190.967 233.857 195.648 250.557 215.754 263.979C216.974 264.799 217.302 266.438 216.482 267.658C215.99 268.423 215.153 268.823 214.297 268.823Z" fill="#000072"/>
<path d="M343.983 281.444C323.367 268.514 300.202 267.166 284.904 288.347C280.624 294.429 277.819 301.623 276.162 309.326C275.47 301.459 277.164 293.209 281.134 285.979C295.121 261.284 325.935 261.156 343.983 281.444Z" fill="#000072"/>
<path d="M153.196 324.133C153.67 326.318 153.633 328.431 153.214 330.398C151.138 340.086 139.665 344.366 131.36 338.957C124.658 334.605 113.913 327.047 107.721 319.744C107.721 319.744 121.38 312.568 135.749 311.512C143.853 310.893 151.484 316.192 153.196 324.133Z" fill="#62C84F"/>
<g opacity="0.2">
<path d="M153.214 330.398C151.138 340.086 139.665 344.366 131.36 338.957C124.658 334.604 113.913 327.047 107.721 319.744C107.721 319.744 108.013 319.58 108.577 319.307C116.426 324.005 127.226 327.83 134.11 330.015C141.814 332.455 149.827 328.139 152.213 321.091C152.632 322.057 152.978 323.058 153.196 324.114C153.67 326.318 153.633 328.431 153.214 330.398Z" fill="#000072"/>
</g>
<g opacity="0.6">
<path d="M153.214 330.398C152.923 331.764 152.431 333.038 151.794 334.168C151.903 332.783 151.812 331.345 151.484 329.87C149.772 321.929 142.142 316.63 134.037 317.231C124.986 317.904 116.208 321 110.963 323.204C109.779 322.057 108.686 320.891 107.703 319.726C107.703 319.726 121.362 312.55 135.731 311.494C143.835 310.893 151.466 316.192 153.178 324.133C153.67 326.318 153.633 328.431 153.214 330.398Z" fill="white"/>
</g>
<path d="M139.337 343.983C136.041 343.983 132.762 343.036 129.921 341.179C122.309 336.225 111.928 328.777 105.718 321.456C105.19 320.836 104.989 320.017 105.135 319.234C105.281 318.451 105.791 317.759 106.501 317.394C107.084 317.085 120.816 309.946 135.567 308.853C145.146 308.143 153.834 314.48 155.8 323.568C156.329 326.045 156.347 328.522 155.819 330.944C154.671 336.28 151.084 340.541 145.966 342.654C143.835 343.546 141.577 343.983 139.337 343.983ZM112.11 320.6C118.375 326.974 127.517 333.311 132.799 336.735C136.113 338.884 140.266 339.267 143.926 337.755C147.405 336.316 149.845 333.439 150.61 329.833C150.974 328.157 150.956 326.409 150.592 324.679C149.19 318.141 142.87 313.606 135.931 314.134C126.297 314.863 116.845 318.505 112.11 320.6Z" fill="#000072"/>
<path d="M152.613 331.836C147.896 329.924 142.997 328.158 138.153 326.5C133.272 324.843 128.337 323.295 123.365 321.856C128.519 322.421 133.655 323.113 138.791 323.932C143.963 324.752 149.044 325.663 154.198 326.792C155.636 327.101 156.547 328.522 156.219 329.961C155.891 331.563 154.107 332.474 152.613 331.836Z" fill="#000072"/>
<path d="M123.019 401.77C123.493 403.955 123.456 406.067 123.037 408.034C120.961 417.723 109.488 422.003 101.183 416.594C94.4813 412.241 83.7363 404.665 77.5443 397.362C77.5443 397.362 91.2032 390.187 105.572 389.13C113.677 388.529 121.307 393.829 123.019 401.77Z" fill="#62C84F"/>
<g opacity="0.2">
<path d="M123.037 408.034C120.961 417.723 109.488 422.003 101.183 416.594C94.4995 412.241 83.7363 404.683 77.5443 397.381C77.5443 397.381 77.8357 397.217 78.4003 396.943C86.2496 401.642 97.0492 405.467 103.933 407.652C111.637 410.092 119.65 405.776 122.036 398.728C122.455 399.693 122.801 400.695 123.019 401.751C123.493 403.955 123.456 406.068 123.037 408.034Z" fill="#000072"/>
</g>
<g opacity="0.6">
<path d="M123.037 408.034C122.746 409.4 122.254 410.675 121.617 411.804C121.726 410.42 121.635 408.981 121.307 407.506C119.595 399.566 111.965 394.266 103.86 394.867C94.8091 395.541 86.031 398.637 80.786 400.841C79.6023 399.693 78.5096 398.528 77.5261 397.362C77.5261 397.362 91.185 390.187 105.554 389.13C113.658 388.529 121.289 393.829 123.001 401.77C123.493 403.955 123.456 406.067 123.037 408.034Z" fill="white"/>
</g>
<path d="M109.16 421.62C105.864 421.62 102.586 420.673 99.7445 418.816C92.132 413.862 81.7512 406.414 75.541 399.092C75.0129 398.473 74.8125 397.654 74.9582 396.87C75.1039 396.087 75.6139 395.395 76.3241 395.031C76.9069 394.722 90.6386 387.582 105.39 386.49C114.951 385.78 123.657 392.117 125.623 401.205C126.152 403.682 126.17 406.159 125.642 408.581C124.494 413.917 120.907 418.178 115.789 420.291C113.64 421.183 111.4 421.62 109.16 421.62ZM81.9151 398.236C88.1982 404.611 97.3405 410.948 102.604 414.372C105.918 416.521 110.071 416.903 113.749 415.392C117.228 413.953 119.668 411.076 120.433 407.47C120.797 405.794 120.779 404.046 120.415 402.316C119.013 395.778 112.693 391.243 105.754 391.771C96.1203 392.481 86.6684 396.142 81.9151 398.236Z" fill="#000072"/>
<path d="M122.418 409.473C117.701 407.561 112.802 405.794 107.958 404.137C103.077 402.48 98.1418 400.932 93.17 399.493C98.3239 400.058 103.46 400.75 108.595 401.569C113.768 402.389 118.849 403.299 124.003 404.428C125.441 404.738 126.352 406.159 126.024 407.597C125.696 409.182 123.93 410.11 122.418 409.473Z" fill="#000072"/>
<path d="M127.335 430.672C129.448 431.4 131.233 432.529 132.708 433.913C139.92 440.706 137.607 452.744 128.683 457.042C121.489 460.503 109.433 465.766 99.9812 467.259C99.9812 467.259 100.946 451.852 107.484 439.013C111.181 431.783 119.668 428.013 127.335 430.672Z" fill="#62C84F"/>
<g opacity="0.2">
<path d="M132.708 433.895C139.901 440.706 137.625 452.726 128.683 457.024C121.489 460.484 109.451 465.748 99.9812 467.259C99.9812 467.259 99.9994 466.931 100.054 466.294C108.158 462.014 117.027 454.766 122.473 450.031C128.556 444.713 129.029 435.625 124.239 429.925C125.277 430.071 126.315 430.307 127.335 430.653C129.448 431.4 131.233 432.529 132.708 433.895Z" fill="#000072"/>
</g>
<g opacity="0.6">
<path d="M132.708 433.895C133.728 434.86 134.547 435.935 135.203 437.064C134.074 436.263 132.799 435.589 131.378 435.097C123.693 432.438 115.224 436.208 111.527 443.438C107.393 451.524 105.499 460.63 104.643 466.257C103.041 466.658 101.475 467.004 99.9812 467.241C99.9812 467.241 100.946 451.834 107.484 438.994C111.181 431.764 119.668 427.976 127.335 430.653C129.448 431.4 131.233 432.529 132.708 433.895Z" fill="white"/>
</g>
<path d="M99.9812 469.9C99.3256 469.9 98.6882 469.663 98.1965 469.208C97.5955 468.662 97.2859 467.878 97.3405 467.077C97.377 466.421 98.415 450.978 105.135 437.793C109.506 429.251 119.413 425.099 128.21 428.14C130.595 428.978 132.726 430.253 134.529 431.947C138.499 435.68 140.284 440.961 139.428 446.443C138.554 452.089 134.966 456.933 129.83 459.392C121.635 463.325 109.87 468.334 100.4 469.845C100.254 469.9 100.109 469.9 99.9812 469.9ZM122.254 432.456C117.228 432.456 112.311 435.37 109.852 440.215C105.445 448.847 103.66 458.809 102.986 463.945C111.691 461.887 121.854 457.37 127.536 454.638C131.087 452.927 133.582 449.576 134.183 445.642C134.766 441.927 133.564 438.339 130.887 435.807C129.63 434.624 128.155 433.731 126.479 433.149C125.095 432.693 123.657 432.456 122.254 432.456Z" fill="#000072"/>
<path d="M133.618 435.17C125.387 441.344 117.483 448.009 109.907 454.984C116.263 446.734 122.965 438.776 130.122 431.182C132.854 428.523 136.605 432.802 133.618 435.17Z" fill="#000072"/>
<path d="M614.355 306.813C616.013 308.653 617.925 310 619.946 310.911C629.981 315.355 641.272 307.851 641.837 296.906C642.292 288.073 642.511 273.54 639.998 263.232C639.998 263.232 624.681 270.809 614.392 282.974C608.582 289.84 608.345 300.13 614.355 306.813Z" fill="#62C84F"/>
<g opacity="0.2">
<path d="M619.946 310.911C629.981 315.355 641.272 307.851 641.819 296.906C642.274 288.092 642.493 273.54 639.979 263.251C639.979 263.251 639.652 263.415 639.032 263.742C638.14 273.832 634.534 285.979 632.021 293.573C629.198 302.06 620.128 306.431 612.261 303.972C612.844 304.974 613.536 305.921 614.337 306.832C616.013 308.671 617.925 310 619.946 310.911Z" fill="#000072"/>
</g>
<g opacity="0.6">
<path d="M619.946 310.911C621.367 311.53 622.806 311.931 624.244 312.095C622.951 311.293 621.713 310.274 620.602 309.035C614.592 302.333 614.829 292.062 620.62 285.196C627.104 277.529 635.59 271.683 640.981 268.405C640.708 266.602 640.38 264.871 639.998 263.232C639.998 263.232 624.681 270.809 614.392 282.974C608.582 289.84 608.364 300.111 614.374 306.813C616.013 308.671 617.925 310 619.946 310.911Z" fill="white"/>
</g>
<path d="M626.065 314.863C623.643 314.863 621.203 314.353 618.89 313.333C616.431 312.24 614.228 310.638 612.388 308.58C605.595 301.022 605.595 289.275 612.37 281.262C622.897 268.805 638.176 261.174 638.832 260.847C639.56 260.501 640.398 260.482 641.127 260.828C641.855 261.174 642.383 261.812 642.584 262.595C645.097 272.885 645.006 286.999 644.496 297.034C644.186 303.226 640.817 308.889 635.517 312.149C632.567 313.952 629.307 314.863 626.065 314.863ZM638.122 267.275C633.241 270.08 623.516 276.29 616.413 284.704C611.35 290.696 611.314 299.456 616.34 305.065C617.67 306.558 619.254 307.706 621.039 308.507C624.845 310.201 629.107 309.891 632.749 307.651C636.574 305.302 638.978 301.24 639.214 296.779C639.56 289.694 639.834 277.128 638.122 267.275Z" fill="#000072"/>
<path d="M616.34 309.527C618.635 304.191 621.094 299.019 623.662 293.828C626.229 288.674 628.907 283.612 631.711 278.603C628.724 286.653 626.029 294.775 623.625 303.007C622.824 305.739 622.059 308.507 621.367 311.221C620.274 314.845 615.011 313.06 616.34 309.527Z" fill="#000072"/>
<path d="M635.736 318.104C634.661 320.326 634.133 322.603 634.079 324.843C633.769 335.806 644.988 343.419 655.332 339.776C663.673 336.844 677.204 331.526 685.782 325.298C685.782 325.298 672.979 314.007 657.79 309.09C649.249 306.321 639.651 310 635.736 318.104Z" fill="#62C84F"/>
<g opacity="0.2">
<path d="M634.079 324.825C633.769 335.788 644.988 343.401 655.332 339.758C663.673 336.826 677.204 331.527 685.782 325.298C685.782 325.298 685.509 325.043 684.962 324.606C675.274 327.593 662.671 328.886 654.694 329.432C645.771 330.033 638.286 323.295 637.575 315.099C636.865 316.028 636.246 317.012 635.718 318.104C634.661 320.326 634.133 322.603 634.079 324.825Z" fill="#000072"/>
</g>
<g opacity="0.6">
<path d="M634.079 324.825C634.042 326.373 634.224 327.866 634.607 329.25C634.862 327.738 635.335 326.209 636.064 324.715C639.979 316.611 649.577 312.932 658.136 315.7C667.698 318.796 676.312 324.424 681.393 328.175C682.959 327.247 684.452 326.281 685.8 325.298C685.8 325.298 672.997 313.988 657.827 309.09C649.267 306.321 639.67 310 635.754 318.104C634.661 320.326 634.133 322.603 634.079 324.825Z" fill="white"/>
</g>
<path d="M649.978 343.328C646.026 343.328 642.11 342.089 638.832 339.685C633.951 336.134 631.256 330.689 631.438 324.752C631.511 322.056 632.166 319.434 633.368 316.939C637.794 307.797 648.666 303.335 658.628 306.558C674.145 311.585 687.002 322.821 687.549 323.295C688.15 323.823 688.477 324.606 688.441 325.407C688.404 326.209 688.004 326.955 687.348 327.429C678.77 333.657 665.694 338.92 656.224 342.253C654.185 342.982 652.072 343.328 649.978 343.328ZM638.122 319.252C637.248 321.055 636.774 322.967 636.719 324.897C636.592 329.068 638.504 332.892 641.946 335.406C645.57 338.046 650.233 338.738 654.458 337.263C661.141 334.914 672.87 330.416 681.338 325.098C676.895 321.656 667.461 314.99 656.989 311.603C649.522 309.181 641.4 312.477 638.122 319.252Z" fill="#000072"/>
<path d="M633.988 320.964C639.797 321.073 645.516 321.382 651.289 321.801C657.025 322.22 662.744 322.785 668.426 323.477C659.848 323.75 651.307 324.351 642.784 325.243C639.961 325.535 637.102 325.881 634.315 326.263C630.564 326.627 630.199 321.073 633.988 320.964Z" fill="#000072"/>
<path d="M165.944 334.204C165.744 334.204 165.562 334.186 165.362 334.131L152.832 331.308C151.411 330.98 150.501 329.56 150.829 328.139C151.156 326.719 152.577 325.826 153.997 326.136L166.527 328.959C167.948 329.287 168.858 330.707 168.53 332.128C168.239 333.366 167.146 334.204 165.944 334.204Z" fill="#000072"/>
<path d="M131.87 435.006C131.051 435.006 130.249 434.624 129.739 433.932C128.865 432.748 129.12 431.091 130.304 430.235C143.161 420.783 154.598 406.122 154.708 405.977C155.6 404.829 157.276 404.611 158.423 405.503C159.57 406.395 159.789 408.071 158.896 409.218C158.405 409.837 146.895 424.607 133.436 434.496C132.963 434.842 132.416 435.006 131.87 435.006Z" fill="#000072"/>
<path d="M145.839 422.622C145.547 422.622 145.256 422.567 144.964 422.476C144.309 422.24 128.938 416.849 122.145 411.349C121.016 410.42 120.834 408.763 121.763 407.615C122.691 406.486 124.349 406.304 125.496 407.233C131.56 412.15 146.567 417.432 146.713 417.486C148.097 417.96 148.825 419.471 148.334 420.856C147.969 421.93 146.931 422.622 145.839 422.622Z" fill="#000072"/>
<path d="M604.903 362.286C604.667 362.286 604.412 362.25 604.175 362.177C602.773 361.776 601.953 360.301 602.354 358.899C611.314 327.556 617.415 309.927 617.469 309.764C617.943 308.379 619.455 307.651 620.839 308.124C622.223 308.598 622.951 310.11 622.478 311.494C622.423 311.676 616.359 329.159 607.453 360.356C607.125 361.54 606.069 362.286 604.903 362.286Z" fill="#000072"/>
<path d="M612.443 336.808C611.66 336.808 610.895 336.462 610.385 335.825C609.475 334.677 609.639 333.02 610.786 332.109C611.132 331.818 619.6 325.098 632.822 323.75C634.279 323.586 635.572 324.661 635.718 326.118C635.863 327.575 634.807 328.868 633.35 329.013C621.786 330.179 614.191 336.152 614.119 336.225C613.609 336.608 613.026 336.808 612.443 336.808Z" fill="#000072"/>
<g opacity="0.2">
<path d="M342.289 449.721C319.106 436.172 320.016 410.147 320.016 410.147L324.496 410.274L339.084 413.899C339.102 413.899 329.486 431.127 342.289 449.721Z" fill="#000072"/>
</g>
<g opacity="0.2">
<path d="M353.872 454.675C349.465 453.364 345.64 451.67 342.289 449.721C340.942 448.938 339.648 448.1 338.465 447.208C376.455 455.658 372.812 413.134 372.812 413.134H379.478C399.329 422.167 386.271 464.345 353.872 454.675Z" fill="#000072"/>
</g>
<path d="M366.814 456.03L361.515 456.087L362.517 548.212L367.816 548.154L366.814 456.03Z" fill="#000072"/>
<path d="M365.163 581.72C389.373 581.72 408.999 562.094 408.999 537.884C408.999 513.675 389.373 494.049 365.163 494.049C340.953 494.049 321.328 513.675 321.328 537.884C321.328 562.094 340.953 581.72 365.163 581.72Z" fill="#C072F7"/>
<g opacity="0.3">
<path d="M409.017 537.885C409.017 562.088 389.385 581.72 365.182 581.72C350.12 581.72 336.844 574.126 328.958 562.561C334.895 565.585 341.615 567.278 348.736 567.278C372.94 567.278 392.572 547.664 392.572 523.443C392.572 514.282 389.767 505.777 384.96 498.747C399.219 505.977 409.017 520.784 409.017 537.885Z" fill="#000072"/>
</g>
<g opacity="0.6">
<path d="M401.368 513.135C393.501 505.504 382.756 500.824 370.936 500.824C346.733 500.824 327.101 520.456 327.101 544.659C327.101 553.82 329.923 562.343 334.75 569.391C326.481 561.432 321.328 550.25 321.328 537.848C321.328 513.645 340.96 494.012 365.163 494.012C380.206 494.031 393.483 501.607 401.368 513.135Z" fill="white"/>
</g>
<path d="M365.163 585.326C338.993 585.326 317.722 564.037 317.722 537.885C317.722 511.714 339.011 490.443 365.163 490.443C391.315 490.443 412.605 511.732 412.605 537.885C412.623 564.037 391.334 585.326 365.163 585.326ZM365.163 497.636C342.981 497.636 324.933 515.684 324.933 537.866C324.933 560.048 342.981 578.096 365.163 578.096C387.345 578.096 405.393 560.048 405.393 537.866C405.411 515.684 387.363 497.636 365.163 497.636Z" fill="#000072"/>
<path d="M327.756 557.353C326.7 557.353 325.644 557.298 324.606 557.189L325.043 552.891C336.589 554.093 349.72 547.172 359.263 534.879C369.206 522.058 372.94 506.469 368.769 495.16L372.83 493.666C377.584 506.542 373.686 523.351 362.686 537.538C352.907 550.123 340.049 557.353 327.756 557.353Z" fill="#000072"/>
<path d="M335.933 570.611C334.877 570.611 333.948 569.828 333.802 568.753C333.639 567.57 334.458 566.477 335.642 566.313C347.935 564.601 360.738 555.714 370.754 541.909C380.971 527.832 385.997 511.659 383.848 499.676C383.63 498.492 384.413 497.381 385.597 497.163C386.781 496.944 387.892 497.727 388.11 498.911C390.441 512.005 385.142 529.452 374.251 544.441C363.542 559.192 349.683 568.717 336.225 570.593C336.134 570.611 336.043 570.611 335.933 570.611Z" fill="#000072"/>
<path d="M350.94 580.227C350.139 580.227 349.355 579.772 348.991 578.988C348.481 577.914 348.937 576.621 350.029 576.111C373.978 564.783 389.859 542.492 397.216 509.893C397.471 508.727 398.637 507.999 399.802 508.254C400.968 508.509 401.696 509.674 401.441 510.84C393.774 544.805 377.11 568.08 351.887 580.008C351.577 580.154 351.25 580.227 350.94 580.227Z" fill="#000072"/>
<path d="M365.946 583.869C365.218 583.869 364.508 583.505 364.107 582.831C363.488 581.811 363.797 580.482 364.835 579.863C394.302 561.869 404.865 524.608 404.956 524.226C405.266 523.078 406.468 522.404 407.615 522.714C408.762 523.024 409.436 524.226 409.127 525.373C408.689 526.976 398.036 564.656 367.094 583.56C366.711 583.76 366.329 583.869 365.946 583.869Z" fill="#000072"/>
<path d="M343.437 551.58C342.745 551.58 342.089 551.252 341.652 550.651C334.968 541.035 323.768 542.128 323.659 542.146C322.475 542.274 321.4 541.418 321.273 540.234C321.145 539.05 322.001 537.976 323.185 537.848C323.75 537.793 337.044 536.5 345.185 548.192C345.859 549.176 345.622 550.523 344.639 551.197C344.311 551.452 343.874 551.58 343.437 551.58Z" fill="#000072"/>
<path d="M351.905 544.659C351.286 544.659 350.667 544.386 350.23 543.876C337.955 528.924 322.311 531.092 321.655 531.183C320.472 531.346 319.379 530.545 319.197 529.38C319.015 528.196 319.816 527.103 321 526.921C321.765 526.812 339.685 524.226 353.581 541.144C354.345 542.073 354.2 543.439 353.289 544.186C352.87 544.495 352.397 544.659 351.905 544.659Z" fill="#000072"/>
<path d="M361.23 536.027C360.592 536.027 359.955 535.754 359.536 535.207C346.806 519.163 327.228 518.289 327.028 518.289C325.844 518.252 324.897 517.251 324.933 516.049C324.97 514.865 325.99 513.918 327.155 513.954C328.029 513.991 348.9 514.847 362.905 532.512C363.652 533.441 363.488 534.807 362.559 535.553C362.177 535.881 361.703 536.027 361.23 536.027Z" fill="#000072"/>
<path d="M367.294 525.61C366.638 525.61 365.983 525.3 365.564 524.736C355.566 511.295 342.635 508.673 338.392 507.817C337.208 507.58 336.716 507.471 336.206 507.088C335.259 506.378 335.059 505.012 335.769 504.065C336.389 503.246 337.481 502.991 338.392 503.391C338.574 503.446 338.865 503.501 339.248 503.573C343.892 504.52 358.061 507.38 369.042 522.149C369.753 523.115 369.552 524.462 368.605 525.173C368.186 525.482 367.731 525.61 367.294 525.61Z" fill="#000072"/>
<path d="M372.302 512.534C371.61 512.534 370.955 512.206 370.536 511.605C365.054 503.737 356.13 500.696 352.779 499.549C352.233 499.366 351.814 499.221 351.559 499.111C350.466 498.656 349.938 497.381 350.412 496.289C350.867 495.196 352.142 494.668 353.235 495.141C353.435 495.214 353.744 495.323 354.182 495.469C357.897 496.744 367.804 500.131 374.087 509.146C374.779 510.13 374.524 511.477 373.559 512.151C373.158 512.406 372.721 512.534 372.302 512.534Z" fill="#000072"/>
<g opacity="0.6">
<path d="M307.019 286.125C309.769 284.882 311.681 283.175 311.292 282.314C310.902 281.452 308.357 281.762 305.608 283.006C302.859 284.25 300.946 285.956 301.336 286.818C301.726 287.679 304.27 287.369 307.019 286.125Z" fill="white"/>
</g>
<path d="M340.136 254.752C348.328 251.332 351.686 240.697 347.637 230.997C343.588 221.296 333.665 216.205 325.472 219.625C317.28 223.044 313.922 233.68 317.971 243.38C322.02 253.08 331.943 258.172 340.136 254.752Z" fill="#000072"/>
<path d="M338.519 238.726C341.188 237.839 342.314 234 341.034 230.154C339.754 226.307 336.553 223.908 333.885 224.796C331.216 225.684 330.09 229.522 331.37 233.369C332.649 237.216 335.85 239.614 338.519 238.726Z" fill="white"/>
<g opacity="0.35">
<path d="M336.777 250.118C337.733 248.622 336.306 246.003 333.591 244.27C330.876 242.537 327.901 242.345 326.945 243.841C325.99 245.338 327.416 247.956 330.131 249.69C332.846 251.423 335.822 251.615 336.777 250.118Z" fill="white"/>
</g>
<path d="M264.647 288.111C272.839 284.691 276.198 274.056 272.149 264.356C268.1 254.655 258.176 249.564 249.984 252.984C241.792 256.403 238.433 267.039 242.482 276.739C246.531 286.439 256.455 291.531 264.647 288.111Z" fill="#000072"/>
<path d="M263.04 272.085C265.709 271.197 266.835 267.359 265.555 263.512C264.276 259.666 261.075 257.267 258.406 258.155C255.737 259.043 254.611 262.881 255.891 266.728C257.17 270.574 260.371 272.973 263.04 272.085Z" fill="white"/>
<g opacity="0.35">
<path d="M261.289 283.483C262.245 281.986 260.818 279.368 258.103 277.635C255.388 275.902 252.413 275.71 251.457 277.206C250.502 278.703 251.928 281.321 254.643 283.054C257.358 284.788 260.334 284.98 261.289 283.483Z" fill="white"/>
</g>
<g filter="url(#filter0_i_272_4771)">
<path d="M19.3438 243.938V233.719H23.8438C26.0312 233.719 27.9062 233.562 29.4688 233.25C31.0312 232.875 32.375 232.25 33.5 231.375C34.6875 230.438 35.6562 229.25 36.4062 227.812C37.2188 226.312 37.625 224.344 37.625 221.906C37.625 219.781 37.1875 218.031 36.3125 216.656C35.5 215.281 34.5312 214.156 33.4062 213.281C32.2188 212.406 30.7812 211.781 29.0938 211.406C27.4688 210.969 25.9375 210.75 24.5 210.75H17.4688V271.594H7.0625V200.719H24.125C27.0625 200.719 29.9375 201.062 32.75 201.75C35.625 202.375 38.25 203.469 40.625 205.031C43 206.719 44.9062 208.938 46.3438 211.688C47.7812 214.438 48.5 217.844 48.5 221.906C48.5 226.031 47.7812 229.531 46.3438 232.406C44.9062 235.281 43.0625 237.562 40.8125 239.25C38.375 241 35.7812 242.219 33.0312 242.906C30.2812 243.594 27.3125 243.938 24.125 243.938H19.3438ZM84.6875 232.312V242.625H78.875C75.75 242.625 73.25 243.969 71.375 246.656C69.5625 249.281 68.3438 252.562 67.7188 256.5L65.2812 271.594H53.75L57.2188 252.938C57.9062 248.812 59.1562 245.469 60.9688 242.906C62.7812 240.344 63.8438 238.969 64.1562 238.781C62.8438 238.156 61.0312 236.375 58.7188 233.438C56.4688 230.5 55.3438 226.438 55.3438 221.25C55.3438 217.125 56 213.75 57.3125 211.125C58.6875 208.438 60.5312 206.312 62.8438 204.75C65.0312 203.25 67.4688 202.219 70.1562 201.656C72.9062 201.031 75.7812 200.719 78.7812 200.719H96.6875V271.594H86.375V210.75H78.4062C76.8438 210.75 75.3125 210.938 73.8125 211.312C72.375 211.625 71.125 212.219 70.0625 213.094C68.875 213.844 67.9688 214.875 67.3438 216.188C66.7188 217.438 66.4062 219.125 66.4062 221.25C66.4062 223.688 66.75 225.594 67.4375 226.969C68.1875 228.281 69.1875 229.312 70.4375 230.062C71.5625 230.938 72.9375 231.531 74.5625 231.844C76.1875 232.156 78.125 232.312 80.375 232.312H84.6875ZM107.656 271.594V200.719H143.938V210.75H118.25V271.594H107.656Z" fill="#C072F7"/>
</g>
<defs>
<filter id="filter0_i_272_4771" x="7.0625" y="200.719" width="136.875" height="74.875" filterUnits="userSpaceOnUse" color-interpolation-filters="sRGB">
<feFlood flood-opacity="0" result="BackgroundImageFix"/>
<feBlend mode="normal" in="SourceGraphic" in2="BackgroundImageFix" result="shape"/>
<feColorMatrix in="SourceAlpha" type="matrix" values="0 0 0 0 0 0 0 0 0 0 0 0 0 0 0 0 0 0 127 0" result="hardAlpha"/>
<feOffset dy="4"/>
<feGaussianBlur stdDeviation="2"/>
<feComposite in2="hardAlpha" operator="arithmetic" k2="-1" k3="1"/>
<feColorMatrix type="matrix" values="0 0 0 0 0 0 0 0 0 0 0 0 0 0 0 0 0 0 0.25 0"/>
<feBlend mode="normal" in2="shape" result="effect1_innerShadow_272_4771"/>
</filter>
<clipPath id="clip0_272_4771">
<rect width="569" height="569" fill="white" transform="translate(50 29)"/>
</clipPath>
</defs>
</svg>
