<svg width="653" height="652" viewBox="0 0 653 652" fill="none" xmlns="http://www.w3.org/2000/svg">
<ellipse cx="340" cy="299.5" rx="313" ry="299.5" fill="#B0A2D7"/>
<g clip-path="url(#clip0_223_835)">
<path d="M295.366 588.598C291.028 604.911 283.831 623.871 270.06 621.964C264.711 621.224 243.159 589.494 238.782 575.945C233.569 559.808 231.955 545.889 232.966 534.112C236.856 487.665 281.166 474.448 303.691 489.261L338.858 448.479C345.977 460.763 352.241 478.594 354.886 497.457C360.527 537.772 349.673 582.797 295.366 588.598Z" fill="#8E8FB3"/>
<path d="M295.366 588.598C291.028 604.911 283.831 623.871 270.06 621.964C264.711 621.224 243.159 589.494 238.782 575.945C233.569 559.808 231.955 545.889 232.966 534.112C241.038 532.652 251.484 534.404 264.244 543.806C301.823 571.488 321.897 561.093 333.645 553.306C347.397 544.176 352.766 517.157 354.867 497.457C360.527 537.772 349.673 582.798 295.366 588.598Z" fill="#6C709E"/>
<path d="M302.679 490.799C284.862 483.402 263.971 487.315 250.686 501.428C241.603 510.811 237.226 524.184 236.545 537.188C235.962 550.6 238.646 564.285 243.003 576.899C248.936 590.37 257.319 603.14 266.714 614.489C268.037 615.949 269.282 617.389 270.877 618.44C270.896 618.46 270.974 618.499 270.838 618.44C270.799 618.421 270.74 618.401 270.682 618.401C270.643 618.401 270.526 618.401 270.643 618.401C271.421 618.499 272.296 618.518 273.074 618.421C284.006 616.688 289.199 597.047 291.884 587.684C292.292 586.185 293.557 585.172 294.996 585.017C302.018 584.18 308.923 582.7 315.4 580.189C359.049 563.604 357.668 506.996 344.441 469.756C342.068 463.002 339.208 456.402 335.688 450.29C333.431 446.144 339.422 442.542 341.99 446.689C356.228 472.501 362.939 504.913 358.387 534.171C352.805 568.509 329.989 588.657 295.755 592.239C295.755 592.239 298.886 589.552 298.867 589.572C295.152 602.634 289.024 624.592 272.685 625.76C271.518 625.76 270.312 625.779 269.165 625.526C267.492 625.156 266.189 624.125 264.924 623.073C257.941 616.435 252.69 608.318 247.438 600.356C242.945 593.115 238.451 585.756 235.514 577.639C231.255 564.558 228.512 550.697 229.018 536.857C229.835 509.974 246.076 485.758 273.561 480.716C278.949 479.743 284.551 479.587 289.958 480.677C295.346 481.787 300.617 484.084 304.644 487.782C306.2 489.164 304.527 491.637 302.679 490.799Z" fill="#000072"/>
<path d="M283.52 602.283C283.773 604.385 285.29 614.566 278.462 620.426C266.539 630.685 234.581 625.273 219.681 595.859C209.158 575.069 209.567 550.347 229.154 542.482C242.497 537.129 259.439 552.683 266.675 571.507C266.675 571.507 269.982 577.347 275.661 585.562C282.353 595.275 283.52 602.283 283.52 602.283Z" fill="white"/>
<path d="M278.462 620.426C268.484 629.03 244.423 626.616 228.142 608.318C243.664 619.414 261.968 620.251 269.145 612.036C280.252 599.324 258.194 556.635 257.63 555.564C261.307 560.216 264.458 565.706 266.675 571.507C266.675 571.507 269.982 577.347 275.661 585.562C282.372 595.275 283.52 602.283 283.52 602.283C283.753 604.386 285.27 614.547 278.462 620.426Z" fill="#D3D4E2"/>
<path d="M285.309 602.069C291.514 627.298 266.325 633.352 247.127 626.013C229.698 619.784 217.075 604.308 211.628 586.963C206.552 571.78 207.252 551.379 222.093 541.762C226.333 538.998 231.507 537.032 236.604 537.675C248.372 539.057 258.039 548.673 263.699 558.348C265.878 562.28 267.57 566.465 268.387 570.845C268.581 571.838 267.92 572.811 266.908 573.006C266.13 573.142 265.391 572.792 265.002 572.149C258.525 561.696 244.306 540.283 230.029 546.337C219.506 550.795 215.966 562.085 217.055 572.87C218.981 592.336 231.118 611.705 249.811 618.81C260.859 623.307 279.357 623.443 281.244 608.454C281.575 606.546 281.691 604.6 281.73 602.478C281.75 601.466 282.567 600.648 283.578 600.668C284.415 600.687 285.115 601.271 285.309 602.069Z" fill="#000072"/>
<path d="M256.21 589.669C260.412 596.171 261.209 604.619 256.58 608.921C250.161 614.878 240.377 608.746 236.37 602.556C232.363 596.366 230.768 584.939 238.821 581.493C244.618 579.002 252.009 583.167 256.21 589.669Z" fill="#F27E80"/>
<path d="M253.409 568.334C255.51 571.565 255.899 575.634 253.584 577.931C251.27 580.228 246.329 579.118 243.509 574.758C240.688 570.397 241.7 565.433 244.734 564.246C247.769 563.078 251.309 565.102 253.409 568.334Z" fill="#F27E80"/>
<path d="M238.471 567.73C240.26 571.351 240.202 575.614 237.518 577.717C234.834 579.819 229.835 578.086 227.423 573.22C225.011 568.353 226.645 563.331 229.932 562.455C233.239 561.598 236.681 564.11 238.471 567.73Z" fill="#F27E80"/>
<path d="M231.488 581.104C232.694 583.537 232.655 586.418 230.846 587.859C229.037 589.28 225.653 588.112 224.038 584.822C222.404 581.532 223.513 578.145 225.73 577.561C227.967 576.958 230.282 578.671 231.488 581.104Z" fill="#F27E80"/>
<g opacity="0.5">
<path d="M253.02 518.559C252.301 513.069 258.486 501.292 267.978 496.367C282.644 488.756 295.152 492.24 296.591 494.888C298.244 497.905 288.849 498.995 272.413 508.436C261.91 514.491 253.896 525.236 253.02 518.559Z" fill="white"/>
</g>
<path d="M202.019 497.418C202.019 497.418 194.472 513.692 178.6 512.018C170.1 511.103 159.208 505.71 157.749 489.982C157.476 487.101 157.515 483.869 157.963 480.248C161.814 448.265 193.908 430.746 232.305 444.236C232.305 444.236 232.344 444.041 232.441 443.652C233.141 440.323 236.448 423.407 233.939 405.089L285.329 443.983C285.329 443.983 304.041 528.097 202.019 497.418Z" fill="#8E8FB3"/>
<path d="M202.02 497.418C202.02 497.418 194.473 513.692 178.6 512.018C170.1 511.103 159.208 505.71 157.749 489.982C161.697 492.707 169.731 496.406 181.168 492.571C197.974 486.964 200.366 476.238 200.366 476.238C200.366 476.238 238.257 500.221 250.531 481.533C263.116 462.378 242.186 448.713 232.461 443.652C233.161 440.323 236.468 423.407 233.958 405.089L285.348 443.983C285.329 443.983 304.041 528.097 202.02 497.418Z" fill="#6C709E"/>
<path d="M180.954 515.755C180.059 515.755 179.145 515.716 178.211 515.599C173.893 515.132 165.802 513.283 160.025 506.022C154.928 499.617 153.022 490.799 154.345 479.801C156.173 464.617 164.07 451.964 176.558 444.177C190.835 435.281 209.956 433.646 229.523 439.525C230.613 433.14 232.286 419.708 230.34 405.595C230.068 403.609 231.449 401.779 233.433 401.507C235.437 401.234 237.246 402.617 237.518 404.602C240.397 425.47 236.001 444.294 235.826 445.073C235.592 446.065 234.931 446.922 234.036 447.428C233.141 447.915 232.072 448.012 231.099 447.662C212.251 441.043 193.772 442.016 180.39 450.329C169.808 456.928 163.098 467.693 161.542 480.657C160.452 489.67 161.853 496.678 165.685 501.506C169.828 506.703 175.78 508.046 178.97 508.397C192.002 509.779 198.441 496.444 198.713 495.88C199.471 494.264 201.319 493.427 203.05 493.933C235.592 503.725 258.583 502.635 271.382 490.721C288.266 475.012 281.847 445.053 281.769 444.761C281.341 442.795 282.567 440.868 284.512 440.42C286.476 439.992 288.402 441.218 288.849 443.165C289.161 444.566 296.221 477.523 276.323 496.016C261.89 509.448 237.479 511.336 203.751 501.681C200.775 506.489 193.364 515.755 180.954 515.755Z" fill="#000072"/>
<path d="M584.915 410.851C584.837 411.376 584.76 411.921 584.682 412.447C584.429 413.965 584.157 415.445 583.787 416.846C575.54 448.596 536.521 444.761 535.782 409.624C535.256 384.63 523.702 376.668 512.868 378.186C511.195 378.42 509.523 378.887 507.928 379.549C504.349 381.028 501.061 383.52 498.572 386.654C496.471 389.321 494.954 392.455 494.273 395.901C493.009 402.422 493.534 408.962 495.304 415.503C499.019 429.266 508.317 443.048 518.353 456.733C521.232 460.646 524.169 464.539 527.048 468.452C530.335 472.87 532.922 477.367 534.906 481.942C538.291 489.728 539.886 497.612 539.905 505.301C539.905 512.037 538.719 518.616 536.443 524.768C525.57 554.357 490.11 574.543 446.423 559.145L451.052 520.797C459.689 526.598 468.383 528.7 476.086 528.408C476.981 528.389 477.876 528.311 478.751 528.213C479.062 528.174 479.354 528.135 479.646 528.097C491.161 526.539 499.855 519.687 501.781 512.562C507.908 490.118 476.65 451.691 466.711 430.103C448.193 389.885 463.521 352.276 496.432 339.292C500.925 337.521 505.73 336.217 510.826 335.419C513.568 334.99 516.408 334.718 519.326 334.582C521.446 334.504 523.527 334.504 525.531 334.601C569.452 336.762 588.416 382.041 584.915 410.851Z" fill="#8E8FB3"/>
<path d="M536.462 524.768C525.589 554.357 490.13 574.543 446.442 559.146L451.072 520.797C459.708 526.598 468.403 528.7 476.105 528.408C486.881 543.767 520.415 550.775 536.462 524.768Z" fill="#6C709E"/>
<path d="M480.696 406.315C487.465 431.348 508.9 449.666 518.353 456.733C508.297 443.067 499.019 429.285 495.304 415.522C493.534 408.982 493.028 402.441 494.292 395.92C494.954 392.474 496.49 389.34 498.591 386.673C502.19 382.099 507.461 378.965 512.888 378.205C523.722 376.687 535.276 384.629 535.801 409.643C536.54 444.78 575.559 448.635 583.806 416.865C584.176 415.464 584.468 413.984 584.701 412.466C578.788 418.871 563.305 430.862 551.868 422.044C535.782 409.643 549.417 381.495 528.526 366.448C512.596 354.962 471.924 373.845 480.696 406.315Z" fill="#6C709E"/>
<path d="M501.373 367.869C501.781 368.161 505.905 366.234 505.866 366.74C505.73 368.901 505.574 373.261 507.928 379.549C507.947 379.529 507.967 379.529 507.986 379.529C508.297 379.393 508.608 379.276 508.92 379.179C509.192 379.081 509.464 378.984 509.756 378.906C509.97 378.848 510.203 378.77 510.437 378.712C510.631 378.653 510.845 378.595 511.059 378.556C511.662 378.42 512.265 378.303 512.868 378.225C523.702 376.707 535.256 384.649 535.782 409.644C536.521 444.78 575.54 448.635 583.787 416.866C584.157 415.464 584.448 413.985 584.682 412.466C578.769 418.871 563.286 430.862 551.848 422.044C535.762 409.644 549.397 381.495 528.507 366.448C521.855 361.659 510.923 362.165 501.042 366.74C501.022 367.265 501.1 367.694 501.373 367.869Z" fill="#686868"/>
<path d="M507.928 379.549C509.523 378.887 511.195 378.42 512.868 378.186C523.703 376.668 535.257 384.61 535.782 409.605C536.521 444.742 575.54 448.596 583.787 416.827C584.157 415.425 584.448 413.946 584.682 412.427C584.76 411.902 584.838 411.357 584.896 410.831C588.397 382.021 569.432 336.762 525.57 334.601C523.566 334.484 521.485 334.484 519.365 334.581C516.447 334.698 513.607 334.971 510.865 335.419C508.414 337.657 502.715 345.697 502.092 353.133C502.015 354.048 506.138 351.537 505.963 352.529C505.38 355.878 499.642 366.623 501.353 367.869C501.742 368.161 505.885 366.234 505.846 366.72C505.749 368.901 505.574 373.261 507.928 379.549Z" fill="white"/>
<path d="M501.373 367.869C501.781 368.161 505.905 366.234 505.866 366.74C505.73 368.901 505.574 373.261 507.928 379.549C507.947 379.529 507.967 379.529 507.986 379.529C508.297 379.393 508.608 379.276 508.92 379.179C509.192 379.081 509.464 378.984 509.756 378.906C509.97 378.848 510.203 378.77 510.437 378.712C510.651 378.653 510.865 378.595 511.059 378.556C511.662 378.42 512.265 378.303 512.868 378.225C523.702 376.707 535.256 384.649 535.782 409.644C536.521 444.78 575.54 448.635 583.787 416.866C584.157 415.464 584.448 413.985 584.682 412.466C578.769 418.871 563.286 430.862 551.848 422.044C535.762 409.644 549.397 381.495 528.507 366.448C521.855 361.659 510.923 362.165 501.042 366.74C501.022 367.265 501.1 367.694 501.373 367.869Z" fill="#D3D4E2"/>
<path d="M475.775 567.964C465.894 567.964 455.585 566.192 445.237 562.552C443.35 561.89 442.358 559.807 443.019 557.919C443.68 556.031 445.762 555.038 447.648 555.7C478.654 566.64 509.348 559.243 525.823 536.895C540.43 517.078 539.789 491.675 524.15 470.593C523.061 469.133 521.971 467.653 520.882 466.193C503.746 443.223 486.026 419.474 490.733 395.2C493.106 382.916 505.224 373.397 517.206 374.429C522.263 374.857 538.777 378.673 539.438 409.527C539.789 426.579 549.456 433.763 557.625 434.716C566.223 435.729 576.571 430.298 580.305 415.912C584.118 401.234 580.383 376.96 565.873 358.973C557.781 348.948 543.212 337.209 519.559 338.202C498.474 339.098 480.677 348.909 470.756 365.163C459.942 382.877 459.689 406.004 470.076 428.565C472.838 434.561 477.428 442.114 482.271 450.095C495.323 471.586 510.126 495.957 505.36 513.477C503.532 520.213 497.035 526.383 488.418 529.595C475.892 534.267 461.537 532.145 449.068 523.775C447.396 522.665 446.968 520.407 448.076 518.733C449.185 517.059 451.441 516.631 453.114 517.74C463.637 524.807 475.58 526.636 485.889 522.782C492.25 520.407 497.152 516.008 498.358 511.55C502.326 497.028 487.776 473.085 476.086 453.832C471.126 445.656 466.419 437.928 463.501 431.563C452.083 406.763 452.472 381.164 464.571 361.328C475.775 342.971 495.712 331.895 519.268 330.902C545.877 329.773 562.391 343.049 571.533 354.379C585.888 372.171 592.404 398.217 587.347 417.703C582.523 436.313 568.518 443.262 556.808 441.899C544.865 440.498 532.631 429.986 532.203 409.663C531.852 392.922 526.017 382.449 516.622 381.651C508.317 380.95 499.564 387.919 497.891 396.562C493.806 417.664 510.553 440.109 526.737 461.833C527.826 463.312 528.935 464.772 530.024 466.252C547.374 489.631 548.036 519.045 531.716 541.178C518.84 558.62 498.474 567.964 475.775 567.964Z" fill="#000072"/>
<path d="M436.211 565.745C413.045 583.868 381.281 593.114 352.396 590.408C325.69 587.897 301.434 575.186 288.655 549.821C267.298 507.404 266.111 463.877 247.224 427.748C243.217 420.097 238.432 412.759 232.5 405.867L345.588 380.834L349.868 379.88C365.02 386.09 378.519 393.506 390.482 401.799C426.991 427.105 449.088 460.509 459.553 492.707C469.22 522.451 454.456 551.456 436.211 565.745Z" fill="#8E8FB3"/>
<path d="M311.471 493.797C311.471 493.797 384.53 441.705 386.669 444.625C384.841 493.797 414.834 507.054 412.033 508.222C409.252 509.39 328.374 547.563 330.494 542.599C332.634 537.655 311.471 493.797 311.471 493.797Z" fill="#6C709E"/>
<path d="M390.462 401.818C371.186 422.433 336.952 436.118 297.933 436.118C279.61 436.118 262.357 433.101 247.205 427.748C243.198 420.097 238.413 412.759 232.48 405.867L345.569 380.834L349.848 379.88C365.001 386.109 378.519 393.526 390.462 401.818Z" fill="#6C709E"/>
<path d="M332.07 432.478C321.333 434.834 309.857 436.118 297.933 436.118C279.61 436.118 262.357 433.101 247.205 427.748C247.01 427.378 246.816 426.989 246.602 426.619C246.368 426.191 246.135 425.743 245.901 425.315C245.532 424.633 245.162 423.971 244.773 423.29C244.52 422.862 244.287 422.434 244.034 422.025C243.801 421.616 243.548 421.227 243.314 420.818C242.945 420.214 242.575 419.611 242.186 418.988C241.836 418.424 241.466 417.878 241.116 417.314C240.708 416.672 240.28 416.029 239.833 415.406C239.307 414.647 238.782 413.888 238.238 413.129C237.946 412.72 237.635 412.292 237.323 411.883C236.234 410.423 235.106 408.982 233.939 407.561C233.472 406.997 232.986 406.432 232.5 405.868L345.588 380.834C337.419 394.908 329.833 413.693 332.07 432.478Z" fill="#E8E8E8"/>
<path d="M381.067 567.555C373.851 579.566 363.775 586.671 352.396 590.409C325.69 587.898 301.434 575.186 288.655 549.821C283.053 538.706 278.852 527.532 275.35 516.417C262.629 476.122 259.148 436.839 232.5 405.868L345.588 380.834C335.629 398.042 326.487 422.317 335.182 444.995C342.126 463.099 353.602 477.076 364.32 489.807C384.355 513.672 401.666 533.217 381.067 567.555Z" fill="white"/>
<path d="M381.067 567.555C373.851 579.566 363.775 586.671 352.396 590.409C325.69 587.898 301.434 575.186 288.655 549.821C283.053 538.706 278.852 527.532 275.35 516.417C300.151 522.938 341.154 526.559 364.3 489.807C384.355 513.672 401.666 533.217 381.067 567.555Z" fill="#E8E8E8"/>
<path d="M332.07 432.478C321.333 434.834 309.857 436.118 297.933 436.118C279.61 436.118 262.357 433.101 247.205 427.748C247.01 427.359 246.816 426.989 246.602 426.619C246.368 426.191 246.135 425.743 245.901 425.315C245.532 424.633 245.143 423.971 244.773 423.29C244.52 422.862 244.287 422.434 244.034 422.025C243.801 421.616 243.567 421.227 243.314 420.818C242.945 420.214 242.575 419.611 242.186 418.988C241.836 418.424 241.466 417.878 241.116 417.314C240.708 416.672 240.28 416.029 239.833 415.406C239.307 414.647 238.782 413.888 238.238 413.129C237.946 412.72 237.635 412.292 237.323 411.883C236.234 410.423 235.106 408.982 233.939 407.561C233.472 406.997 232.986 406.432 232.5 405.868L345.588 380.834C337.419 394.908 329.833 413.693 332.07 432.478Z" fill="#D3D4E2"/>
<path d="M362.433 594.497C354.536 594.497 346.736 593.679 339.267 592.005C314.622 586.477 295.988 572.461 285.407 551.437C274.319 529.421 268.64 507.326 263.135 485.952C255.783 457.395 248.858 430.415 229.737 408.204C228.434 406.685 228.609 404.388 230.126 403.084C231.644 401.78 233.939 401.955 235.242 403.473C255.471 426.969 262.61 454.748 270.176 484.142C275.584 505.127 281.166 526.851 291.903 548.167C304.002 572.188 325.204 581.396 340.881 584.919C371.536 591.791 408.104 583.128 433.994 562.864C451.111 549.471 465.33 522.16 456.129 493.836C446.812 465.201 420.456 412.778 348.506 383.228C346.658 382.469 345.764 380.347 346.522 378.498C347.281 376.649 349.401 375.753 351.249 376.513C380.542 388.543 405.42 405.615 425.202 427.261C442.358 446.046 455.429 468.296 463.015 491.598C473.305 523.25 457.51 553.715 438.468 568.606C417.188 585.231 389.14 594.497 362.433 594.497Z" fill="#000072"/>
<g opacity="0.3">
<path d="M166.969 339.799C167.046 339.935 167.124 340.071 167.202 340.188L166.93 339.76C166.949 339.779 166.969 339.779 166.969 339.799Z" fill="#6B184E"/>
<path d="M467.761 339.76L467.489 340.188C467.567 340.052 467.644 339.915 467.722 339.799C467.742 339.779 467.761 339.779 467.761 339.76Z" fill="#6B184E"/>
</g>
<path d="M145.611 301.586C132.91 288.699 116.785 279.141 99.5898 273.632C96.3803 272.464 92.9958 271.764 89.728 270.79C87.141 270.265 84.3401 269.681 81.7531 269.097C79.5551 268.571 80.0803 265.301 82.3561 265.534C84.5929 265.787 87.141 266.118 89.3974 266.43C94.7464 267.208 100.368 268.688 105.561 270.265C109.899 271.783 114.703 273.593 118.807 275.657C130.245 281.38 140.865 288.894 148.509 299.386C149.813 301.275 147.109 303.357 145.611 301.586Z" fill="#000072"/>
<path d="M142.324 325.452C123.145 317.179 100.699 312.195 80.6444 320.332C78.5242 321.169 77.0848 318.152 79.1077 317.042C94.3185 308.925 112.894 309.567 128.883 315.018C134.232 316.867 139.328 319.164 144.152 322.298C144.989 322.843 145.242 323.972 144.697 324.809C144.152 325.607 143.141 325.861 142.324 325.452Z" fill="#000072"/>
<path d="M180.565 242.233L228.57 204.585L284.045 161.097C254.499 129.231 195.601 93.8409 177.025 104.567C173.504 106.611 170.684 111.361 168.622 118.174C160.9 143.675 163.837 197.694 180.565 242.233Z" fill="#8E8FB3"/>
<path d="M180.565 242.233L228.57 204.585C216.861 173.497 187.431 102.328 168.641 118.174C160.9 143.674 163.837 197.694 180.565 242.233Z" fill="#6C709E"/>
<g opacity="0.5">
<path d="M167.805 121.191C169.556 117.356 171.676 114.611 174.107 113.19C191.983 102.854 247.204 135.265 277.665 166.119L284.045 161.117C254.499 129.231 195.601 93.8409 177.025 104.567C173.018 106.883 169.906 112.782 167.805 121.191Z" fill="white"/>
</g>
<path d="M180.584 245.873C179.126 245.873 177.745 244.978 177.18 243.518C167.241 217.044 161.328 185.119 160.958 155.919C160.783 142.118 161.833 109.161 175.216 101.433C196.943 88.8966 257.825 127.498 286.71 158.664C288.071 160.124 287.994 162.421 286.515 163.803C285.037 165.166 282.742 165.088 281.4 163.608C249.578 129.25 193.986 98.9801 178.834 107.721C173.29 110.913 167.863 127.031 168.213 155.822C168.564 184.223 174.302 215.253 183.969 240.968C184.669 242.836 183.716 244.939 181.849 245.64C181.44 245.795 180.993 245.873 180.584 245.873Z" fill="#000072"/>
<path d="M185.078 197.11C195.153 184.029 203.556 175.152 210.87 168.533C217.289 162.752 222.852 158.703 227.987 155.16C226.839 148.97 189.007 113.969 182.666 124.598C180.779 127.771 179.398 132.637 178.523 138.458C175.819 156.445 178.017 183.445 185.078 197.11Z" fill="#F27E80"/>
<path d="M178.523 138.458C181.129 135.343 185.078 131.645 188.579 132.599C194.531 134.214 206.707 154.479 210.87 168.533C217.289 162.752 222.852 158.703 227.987 155.16C226.839 148.97 189.007 113.969 182.666 124.598C180.779 127.79 179.398 132.657 178.523 138.458Z" fill="#FF5C64"/>
<path d="M184.455 203.845L181.849 198.784C172.143 179.98 170.859 137.329 179.553 122.749C180.604 120.977 183.23 118.194 188.909 119.206C202.253 121.6 230.204 147.198 231.546 154.518L231.974 156.834L230.049 158.177C218.845 165.906 206.377 175.464 187.956 199.349L184.455 203.845ZM185.778 126.467C179.553 136.901 179.126 170.636 185.992 190.063C201.65 170.539 213.068 161.234 223.28 154.031C217.872 146.712 196.418 127.226 187.081 126.272C186.673 126.214 185.933 126.194 185.778 126.467Z" fill="#000072"/>
<path d="M321.722 166.217L386.883 235.634L415.048 265.632C440.763 222.65 452.472 166.529 446.812 141.436C445.645 136.278 443.739 132.423 441.074 130.263C423.704 116.208 357.317 140.21 321.722 166.217Z" fill="#8E8FB3"/>
<path d="M386.883 235.634L415.048 265.632C440.763 222.65 452.472 166.529 446.812 141.437C441.249 133.747 431.912 127.946 421.603 151.17C410.905 175.211 395.597 213.54 386.883 235.634Z" fill="#6C709E"/>
<g opacity="0.5">
<path d="M321.722 166.217L325.826 170.597C362.472 146.42 427.264 127.129 439.81 134.759C450.002 140.95 446.462 177.8 440.024 207.038C450.313 171.025 451.208 138.439 441.093 130.263C423.704 116.208 357.317 140.21 321.722 166.217Z" fill="white"/>
</g>
<path d="M415.048 269.252C414.407 269.252 413.765 269.077 413.181 268.727C411.469 267.695 410.905 265.476 411.936 263.743C426.058 240.15 437.009 210.581 441.988 182.608C447.046 154.245 444.031 137.29 438.818 133.066C431.971 127.518 413.473 128.861 389.353 136.648C366.109 144.142 341.017 156.601 323.861 169.117C322.247 170.305 319.971 169.955 318.785 168.319C317.598 166.704 317.968 164.426 319.582 163.258C337.322 150.313 363.192 137.465 387.117 129.737C402.891 124.637 431.193 117.571 443.369 127.401C461.828 142.312 448.388 216.927 418.161 267.461C417.48 268.61 416.274 269.252 415.048 269.252Z" fill="#000072"/>
<g opacity="0.7">
<path d="M353.116 149.495C354.575 150.235 353.719 152.493 352.143 152.026C341.27 148.872 330.728 146.809 321.061 145.972C309.954 145.018 295.404 144.57 278.754 145.777C279.124 141.67 279.766 137.64 280.66 133.688C294.957 133.572 307.289 134.993 316.392 136.589C327.713 138.613 340.531 143.13 353.116 149.495Z" fill="white"/>
</g>
<path d="M282.8 421.732C292.195 421.985 301.59 421.732 310.946 420.856C389.315 413.576 424.171 383.306 435.764 360.16C436.095 359.479 436.425 358.778 436.756 358.077C436.95 357.669 437.106 357.26 437.281 356.87C437.728 355.839 438.176 354.807 438.565 353.736C438.779 353.133 438.993 352.549 439.226 351.945C439.246 351.906 439.265 351.848 439.265 351.809C439.285 351.712 439.323 351.614 439.382 351.517C439.537 351.03 439.693 350.563 439.849 350.077C440.043 349.493 440.218 348.928 440.393 348.344C440.568 347.799 440.704 347.273 440.86 346.748C441.035 346.086 441.23 345.444 441.385 344.782C441.677 343.633 441.93 342.446 442.183 341.258C442.261 340.869 442.338 340.499 442.397 340.09C442.494 339.682 442.552 339.273 442.63 338.845C442.727 338.358 442.805 337.852 442.883 337.346C445.82 319.164 443.661 299.153 439.46 280.134C435.278 261.252 429.053 243.343 423.743 229.23C423.743 229.23 415.768 211.009 395.753 187.007C378.675 166.548 362.394 155.043 357.979 152.123C357.22 151.617 356.812 151.364 356.812 151.364C343.06 144.006 328.821 138.75 316.373 136.57C296.28 133.027 260.353 130.36 222.54 143.266C192.955 153.369 173.815 172.894 161.192 194.073C142.83 224.85 138.161 259.052 134.971 272.834C134.116 276.513 126.724 285.954 122.114 299.815V299.834C121.764 300.885 121.433 301.975 121.122 303.085C120.967 303.61 120.83 304.156 120.694 304.681C120.539 305.246 120.403 305.81 120.266 306.375C120.266 306.394 120.247 306.394 120.247 306.414C120.13 306.9 120.013 307.387 119.916 307.874C119.858 308.146 119.8 308.438 119.741 308.711C119.566 309.684 119.372 310.657 119.235 311.65C119.138 312.254 119.06 312.857 118.983 313.48C118.924 313.967 118.866 314.492 118.808 314.998C118.788 315.212 118.749 315.465 118.73 315.699C118.691 316.225 118.652 316.731 118.613 317.256C118.555 317.899 118.535 318.561 118.516 319.203C118.457 320.488 118.457 321.831 118.477 323.174C118.496 323.836 118.516 324.498 118.555 325.199C118.555 325.199 118.555 325.199 118.555 325.218C118.594 325.822 118.613 326.406 118.671 327.009C118.691 327.184 118.691 327.359 118.73 327.535C118.788 328.119 118.846 328.742 118.924 329.345C119.041 330.299 119.177 331.272 119.333 332.245C124.254 362.068 160.55 393.564 221.84 412.057C241.661 418.014 262.162 421.168 282.8 421.732Z" fill="#8E8FB3"/>
<path d="M141.235 369.173C158.624 385.895 185.778 401.098 221.412 411.921C241.33 417.956 261.987 421.168 282.8 421.732C292.195 421.985 301.59 421.732 310.946 420.856C389.314 413.576 424.171 383.306 435.783 360.16C436.114 359.479 436.445 358.778 436.775 358.077C436.97 357.668 437.125 357.26 437.3 356.87C437.748 355.839 438.195 354.807 438.584 353.736C438.798 353.133 439.012 352.549 439.246 351.945C439.265 351.906 439.284 351.848 439.284 351.809C439.479 351.225 439.693 350.66 439.868 350.077C440.062 349.493 440.238 348.928 440.413 348.344C440.588 347.799 440.724 347.273 440.879 346.748C441.055 346.086 441.249 345.444 441.405 344.782C441.696 343.633 441.949 342.446 442.202 341.258C442.28 340.869 442.358 340.499 442.416 340.09C442.513 339.681 442.572 339.273 442.65 338.844C442.747 338.358 442.825 337.852 442.902 337.346C438.681 339.837 433.955 342.465 428.742 345.054C406.354 356.247 375.465 366.954 342.048 363.742C291.397 358.895 272.277 326.347 263.505 316.594C258.175 310.677 234.289 305.888 226.178 315.757C208.944 336.723 135.963 350.291 122.134 299.795C121.783 300.846 121.453 301.936 121.142 303.046C120.986 303.571 120.85 304.116 120.714 304.642C120.558 305.207 120.422 305.771 120.286 306.336C120.286 306.355 120.266 306.355 120.266 306.375C120.15 306.861 120.033 307.348 119.936 307.835C119.877 308.107 119.819 308.399 119.761 308.672C119.586 309.645 119.41 310.618 119.255 311.611C119.158 312.214 119.08 312.818 119.002 313.441C118.944 313.927 118.885 314.453 118.827 314.959C118.807 315.173 118.769 315.426 118.749 315.66C118.71 316.186 118.671 316.692 118.632 317.217C118.574 317.86 118.555 318.522 118.535 319.164C118.477 320.449 118.477 321.792 118.496 323.135C118.516 323.797 118.535 324.459 118.574 325.16C118.574 325.16 118.574 325.16 118.574 325.179C118.613 325.783 118.632 326.366 118.691 326.97C118.71 327.145 118.71 327.32 118.749 327.496C118.807 328.08 118.866 328.702 118.944 329.306C119.06 330.26 119.196 331.233 119.352 332.206C121.414 344.626 128.864 357.279 141.235 369.173Z" fill="white"/>
<path d="M441.385 344.84C441.23 345.502 441.055 346.125 440.879 346.767C440.724 347.292 440.588 347.838 440.413 348.363C440.257 348.947 440.082 349.531 439.868 350.096C439.693 350.68 439.479 351.244 439.284 351.828C439.284 351.867 439.265 351.906 439.246 351.964C439.032 352.568 438.798 353.152 438.584 353.755C438.195 354.826 437.748 355.858 437.3 356.889C437.125 357.279 436.95 357.688 436.775 358.096C436.445 358.797 436.114 359.478 435.783 360.179C424.171 383.325 389.314 413.575 310.946 420.875C301.59 421.751 292.195 422.024 282.819 421.751C262.007 421.167 241.35 417.975 221.432 411.921C185.778 401.117 158.643 385.894 141.254 369.173C128.864 357.279 121.433 344.626 119.391 332.245C119.216 331.272 119.099 330.298 118.983 329.345C118.924 328.741 118.846 328.118 118.788 327.534C118.769 327.339 118.749 327.184 118.73 326.989C118.671 326.386 118.632 325.782 118.613 325.198C118.594 325.179 118.594 325.179 118.594 325.179C118.574 324.789 118.555 324.4 118.535 324.011C122.328 329.967 146.331 377.485 220.051 390.683C370.875 417.761 423.548 366.934 441.385 344.84Z" fill="#D3D4E2"/>
<path d="M355.956 153.019C341.951 146.478 327.44 141.281 312.21 139.315C273.697 134.312 228.492 138.302 196.009 161.195C168.583 180.797 153.372 212.664 145.339 244.686C143.296 252.531 141.507 261.485 139.873 269.505C139.328 272.289 138.725 275.268 137.344 277.681C134.407 283.054 131.392 287.979 128.98 293.488C125.071 302.112 122.756 311.358 122.562 320.799C122.075 339.37 131.101 354.028 144.191 366.584C171.831 392.338 208.925 405.887 245.123 414.744C252.009 416.107 259.109 417.586 265.975 418.851C266.967 419.026 267.609 419.98 267.434 420.973C267.259 421.869 266.461 422.492 265.586 422.453C251.153 421.81 236.837 419.844 222.949 415.97C180.351 404.096 113.206 372.619 114.567 320.683C114.801 303.611 121.239 289.147 129.7 274.781L130.186 273.905L130.575 273.107C131.412 271.296 131.509 269.759 131.956 267.851L133.649 259.48C140.437 225.57 152.808 190.92 178.075 166.295C207.563 137.056 251.562 128.725 291.709 130.379C303.263 131.041 314.972 132.423 326.098 135.674C337.302 138.984 347.864 143.909 357.726 149.846C359.554 151.092 358.095 153.914 355.956 153.019Z" fill="#000072"/>
<path d="M425.455 228.626C443.544 266.332 459.786 328.021 436.97 366.389C420.845 392.299 391.726 406.646 363.386 415.016C346.386 419.727 328.802 423.212 311.101 422.647C309.04 422.569 308.612 419.61 310.693 419.046C322.052 416.223 333.431 414.627 344.616 412.018C354.127 409.994 364.261 407.074 373.384 403.628C395.442 395.18 417.227 382.585 429.948 362.146C446.948 332.81 439.829 294.52 431.426 263.315C428.411 252.2 424.988 241.162 422.031 229.891C421.778 228.918 422.362 227.925 423.335 227.653C424.21 227.458 425.085 227.867 425.455 228.626Z" fill="#000072"/>
<path d="M176.13 217.667C174.671 214.942 190.349 187.261 210.889 195.125C218.417 198.006 216.588 204.702 211.978 206.513C207.583 208.226 201.047 207.564 195.426 209.413C184.494 213.014 177.589 220.412 176.13 217.667Z" fill="#000072"/>
<path d="M351.735 235.77C353.816 233.065 341.659 200.108 317.89 205.014C309.195 206.805 309.973 214.435 314.681 217.219C319.154 219.866 326.41 220.314 332.187 223.331C343.449 229.191 349.654 238.476 351.735 235.77Z" fill="#000072"/>
<path d="M380.406 170.772C390.501 180.33 402.269 192.438 417.772 220.198C418.783 218.893 419.775 217.414 420.709 215.818C427.322 204.605 432.146 186.813 433.585 171.746C434.5 162.363 434.111 154.031 432.029 149.009C427.225 137.31 382.585 164.855 380.406 170.772Z" fill="#F27E80"/>
<path d="M380.406 170.772C390.501 180.33 402.269 192.438 417.772 220.198C418.783 218.893 419.775 217.414 420.709 215.818C420.125 204.897 412.345 192.516 409.661 183.134C404.078 163.648 419.425 152.863 424.735 155.219C427.886 156.62 431.952 167.152 433.585 171.746C434.5 162.363 434.111 154.031 432.029 149.009C427.225 137.31 382.585 164.855 380.406 170.772Z" fill="#FF5C64"/>
<path d="M417.752 223.818C417.655 223.818 417.577 223.818 417.48 223.798C416.274 223.701 415.184 223.02 414.581 221.949C399.487 194.891 388.186 183.133 377.897 173.381C376.846 172.388 376.477 170.85 376.982 169.487C378.908 164.29 394.08 155.316 397.114 153.564C404.156 149.495 417.266 142.663 426.116 142.507C432.263 142.41 434.558 145.661 435.355 147.607C441.949 163.667 433.663 205.617 420.592 222.416C419.931 223.312 418.861 223.818 417.752 223.818ZM385.307 170.441C394.663 179.493 404.973 190.881 418.005 213.306C428.294 195.455 433.391 161.876 428.683 150.391C428.508 149.963 427.575 149.846 427.03 149.807C416.954 149.126 392.096 164.193 385.307 170.441Z" fill="#000072"/>
<path d="M337.516 310.385C338.94 294.636 329.002 280.863 315.319 279.624C301.635 278.385 289.388 290.149 287.964 305.898C286.541 321.648 296.479 335.42 310.162 336.66C323.846 337.899 336.093 326.135 337.516 310.385Z" fill="#000072"/>
<path d="M314.011 315.005C314.614 308.335 311.374 302.589 306.773 302.173C302.173 301.756 297.955 306.826 297.352 313.496C296.749 320.167 299.989 325.912 304.589 326.328C309.19 326.745 313.408 321.675 314.011 315.005Z" fill="white"/>
<g opacity="0.35">
<path d="M326.996 312.792C330.055 312.006 331.365 306.81 329.921 301.186C328.478 295.563 324.828 291.642 321.769 292.429C318.71 293.215 317.4 298.411 318.843 304.034C320.287 309.658 323.937 313.579 326.996 312.792Z" fill="white"/>
</g>
<path d="M213.761 295.058C214.333 279.265 204.649 266.095 192.132 265.642C179.615 265.188 169.004 277.623 168.433 293.416C167.862 309.209 177.546 322.379 190.063 322.833C202.58 323.286 213.19 310.851 213.761 295.058Z" fill="#000072"/>
<path d="M204.578 301.048C204.704 294.362 201.394 288.878 197.183 288.798C192.973 288.719 189.458 294.074 189.331 300.76C189.205 307.445 192.516 312.93 196.726 313.01C200.936 313.089 204.452 307.734 204.578 301.048Z" fill="white"/>
<g opacity="0.35">
<path d="M186.051 289.337C187.785 283.83 186.957 278.662 184.201 277.792C181.444 276.923 177.804 280.682 176.07 286.189C174.336 291.695 175.165 296.864 177.921 297.733C180.677 298.603 184.317 294.843 186.051 289.337Z" fill="white"/>
</g>
<path d="M394.975 334.853C414.893 322.22 442.941 320.39 465.407 326.016C466.964 326.386 468.52 326.794 470.076 327.203C471.048 327.456 471.632 328.449 471.379 329.403C471.146 330.318 470.27 330.882 469.356 330.746C466.691 330.337 463.832 329.851 461.187 329.403C456.324 328.858 451.072 328.352 446.17 328.215C441.716 328.196 436.737 328.293 432.321 328.741C420.145 329.987 408.027 332.887 396.881 337.968C394.839 339.039 393.03 336.177 394.975 334.853Z" fill="#000072"/>
<path d="M390.657 358.174C412.987 354.028 438.798 359.595 454.165 377.154C455.643 378.886 453.211 381.222 451.539 379.665C443.661 372.287 433.838 367.362 423.432 364.754C412.967 362.126 401.88 361.367 391.104 361.775C388.906 361.853 388.498 358.661 390.657 358.174Z" fill="#000072"/>
<path d="M261.948 337.929C261.948 337.929 261.696 347.916 259.284 357.61C256.813 367.479 252.067 377.037 243.042 375.383C236.409 374.176 232.558 367.402 230.321 359.751C226.975 348.344 227.248 334.932 227.248 334.932L261.948 337.929Z" fill="#000072"/>
<path d="M259.284 357.61C256.813 367.48 252.067 377.038 243.042 375.383C236.409 374.176 232.558 367.402 230.321 359.752C231.78 359.148 233.355 358.759 234.989 358.623C238.451 358.331 241.739 359.148 244.501 360.803C246.952 358.701 250.064 357.338 253.507 357.046C255.51 356.871 257.455 357.065 259.284 357.61Z" fill="#F27E80"/>
<path d="M245.007 378.731C244.17 378.731 243.314 378.653 242.458 378.497C223.824 375.091 223.98 338.961 224.058 334.854C224.097 333.121 225.497 331.739 227.228 331.739C227.248 331.739 227.267 331.739 227.287 331.739C229.037 331.778 230.438 333.219 230.399 334.971C230.224 344.626 232.247 370.146 243.606 372.229C245.785 372.619 247.574 372.171 249.266 370.789C256.541 364.871 258.603 344.996 258.797 337.832C258.836 336.1 260.256 334.737 261.968 334.737C261.987 334.737 262.026 334.737 262.046 334.737C263.796 334.776 265.177 336.236 265.138 337.988C265.061 340.927 264.127 366.895 253.273 375.714C250.822 377.719 248.021 378.731 245.007 378.731Z" fill="#000072"/>
<path d="M218.456 328.917C218.456 328.917 218.008 339.974 223.532 342.894C231.935 347.352 239.482 342.271 243.392 337.677C243.392 337.677 249.83 350.311 262.26 346.028C269.534 343.517 272.938 334.484 272.938 334.484L242.186 321.89L218.456 328.917Z" fill="white"/>
<path d="M223.532 342.874C231.157 348.208 239.463 342.271 243.392 337.677C243.392 337.677 251.017 351.731 262.902 347.118C267.084 345.483 268.367 341.667 268.64 338.416C252.184 344.646 243.762 320.079 243.762 320.079C239.424 325.199 229.057 336.606 220.498 335.185C220.245 337.871 220.751 340.947 223.532 342.874Z" fill="#D3D4E2"/>
<path d="M244.345 323.408C244.073 327.865 244.637 332.635 246.485 336.722C248.197 341.219 241.408 343.341 240.26 338.669C239.405 334.659 239.521 330.571 240.222 326.581C240.455 325.276 240.727 324.05 241.136 322.726C241.389 321.85 242.303 321.364 243.178 321.617C243.976 321.85 244.442 322.629 244.345 323.408Z" fill="#000072"/>
<path d="M262.493 322.745C261.579 326.113 248.644 331.272 241.778 330.415C234.406 329.52 227.17 322.648 226.606 319.241C225.944 315.251 232.636 311.319 247.088 313.46C258.895 315.231 263.485 319.066 262.493 322.745Z" fill="#000072"/>
<g opacity="0.7">
<path d="M246.407 316.575C246.582 317.606 243.839 318.677 241.719 318.541C240.513 318.463 236.215 318.151 236.02 317.022C235.826 315.893 237.109 314.939 241.136 314.842C244.793 314.745 246.251 315.543 246.407 316.575Z" fill="white"/>
</g>
<path d="M220.401 328.995C221.082 332.752 221.724 337.307 224.486 339.702C231.935 343.926 239.288 338.358 243.548 332.168L246.271 336.198C253.721 347.858 265.275 345.464 271.091 333.803C271.538 332.771 272.783 332.324 273.794 332.83C274.65 333.278 275.059 334.27 274.767 335.166C273.58 338.65 271.927 341.629 269.457 344.354C260.451 354.029 246.076 350.583 240.474 339.156C240.474 339.156 245.862 339.779 245.862 339.799C243.626 342.621 240.805 345.016 237.304 346.554C230.321 349.921 219.273 347.488 217.114 339.293C216.044 335.769 215.966 332.441 216.491 328.859C216.666 327.788 217.678 327.068 218.748 327.243C219.681 327.36 220.323 328.119 220.401 328.995Z" fill="#000072"/>
<path d="M258.895 532.749H80.2165C74.0699 532.749 69.0905 527.766 69.0905 521.614V513.419H237.129L258.895 532.749Z" fill="#AE88DD"/>
<path d="M258.895 532.749H80.2165C74.0699 532.749 69.0905 527.766 69.0905 521.614V513.419H69.1877C69.9074 518.87 74.5757 523.094 80.2165 523.094H248.021L258.895 532.749Z" fill="#7A6AA8"/>
<path d="M258.895 536.369H80.2165C72.0665 536.369 65.4531 529.751 65.4531 521.594V513.399C65.4531 511.394 67.0676 509.778 69.071 509.778H237.109C238.004 509.778 238.86 510.109 239.521 510.693L261.307 530.023C262.435 531.016 262.824 532.612 262.299 534.033C261.754 535.454 260.412 536.369 258.895 536.369ZM72.7084 517.039V521.594C72.7084 525.741 76.0734 529.108 80.2165 529.108H249.344L235.748 517.039H72.7084Z" fill="#000072"/>
<path d="M237.129 513.399L206.493 512.192L76.9876 507.033H76.9098C69.1877 507.033 62.1075 502.731 58.5674 495.84L3.71521 389.203C4.04588 383.889 6.41892 379.139 10.0368 375.733C13.6547 372.326 18.5175 370.224 23.8471 370.204L164.771 369.581C177.394 369.523 188.832 376.998 193.87 388.581L224.952 460.1L240.786 496.521C243.314 502.361 241.836 509.155 237.129 513.399Z" fill="#AE88DD"/>
<path d="M237.129 513.4L206.493 512.193C210.014 495.471 216.647 465.493 216.647 465.493C216.647 465.493 223.922 470.866 224.952 460.12L240.786 496.542C243.314 502.362 241.836 509.156 237.129 513.4Z" fill="#7A6AA8"/>
<path d="M237.129 517.039C237.09 517.039 237.032 517.039 236.993 517.039L76.9293 510.674H76.9098C67.7873 510.674 59.54 505.652 55.358 497.534L0.505763 390.897C0.213996 390.313 0.0778379 389.671 0.11674 389.009C0.894786 376.492 11.3206 366.662 23.8471 366.603L164.771 365.98C164.829 365.98 164.868 365.98 164.926 365.98C178.951 365.98 191.613 374.273 197.215 387.16L244.131 495.101C247.282 502.362 245.454 510.81 239.58 516.124C238.879 516.708 238.024 517.039 237.129 517.039ZM76.9876 503.413C77.0265 503.413 77.0849 503.413 77.1238 503.413L235.67 509.72C238.452 506.508 239.171 501.953 237.46 497.982L190.543 390.041C186.089 379.821 176.052 373.222 164.907 373.222C164.868 373.222 164.829 373.222 164.79 373.222L23.8666 373.845C15.4637 373.884 8.42238 380.249 7.43037 388.503L61.7963 494.205C64.7334 499.889 70.5104 503.413 76.9098 503.413C76.9293 503.413 76.9487 503.413 76.9876 503.413Z" fill="#000072"/>
<path d="M237.129 512.601L69.0905 513.341H68.9932C61.2711 513.341 54.2103 509.039 50.6702 502.167L43.0454 484.356L4.78499 394.83C1.08927 386.187 7.41089 376.57 16.8058 376.531L156.173 375.909C169.225 375.85 181.051 383.559 186.245 395.531L216.647 465.473L237.129 512.601Z" fill="#AE88DD"/>
<path d="M237.129 512.601L69.0905 513.34H68.9932C61.2711 513.34 54.2104 509.038 50.6703 502.167L43.0454 484.355C54.7744 491.694 78.8161 500.571 125.479 498.858C184.747 496.697 210.111 472.948 216.647 465.492L237.129 512.601Z" fill="#7A6AA8"/>
<path d="M156.173 374.546C169.4 372.619 184.533 381.515 187.49 395.005C187.801 396.446 185.817 397.302 185 396.095C179.806 388.834 173.407 382.508 164.907 379.471C162.145 378.42 159.208 377.739 156.173 377.271C154.617 377.038 154.617 374.76 156.173 374.546Z" fill="#000072"/>
<path d="M207.874 440.771C219.137 464.091 230.632 487.315 240.494 511.258C241.466 513.555 239.638 516.261 237.148 516.222L69.1099 516.962C64.675 517.04 60.2013 515.852 56.3499 513.555C52.4403 511.219 49.1725 507.754 47.1301 503.666C38.5521 484.18 29.3712 462.378 20.8905 442.717C16.6502 432.556 7.9944 412.097 3.7346 401.935C3.03436 400.105 0.894737 395.628 0.486263 393.662C-1.65336 385.525 3.28723 376.415 11.2816 373.865C13.4018 373.125 15.6776 372.93 17.895 373.008C28.9627 373.242 40.011 373.573 51.0592 374.527C53.2767 374.76 53.2183 377.933 51.0787 378.147C40.0304 379.218 29.0016 379.646 17.9339 379.977C11.4762 379.51 6.02984 385.486 7.70264 391.871C7.97495 393.117 10.134 397.672 10.6592 398.976C15.0746 409.099 23.8665 429.441 28.2819 439.544C36.7043 459.264 45.9825 480.949 54.2103 500.63C56.4083 505.243 62.7105 509.837 69.0904 509.701L237.129 508.961L233.822 514.042C232.441 511.122 231.099 508.182 229.815 505.204C223.377 490.39 217.522 475.323 211.551 460.295C209.178 454.28 206.863 448.246 204.568 442.192C203.751 440.07 206.843 438.765 207.874 440.771Z" fill="#000072"/>
<path d="M334.248 532.749H248.255C242.108 532.749 237.129 527.766 237.129 521.614V513.419H348.817C350.14 513.419 351.19 514.49 351.19 515.794C351.19 525.157 343.604 532.749 334.248 532.749Z" fill="#AE88DD"/>
<path d="M351.19 515.794C351.19 520.485 349.304 524.709 346.23 527.785C343.157 530.861 338.936 532.749 334.248 532.749H248.255C242.108 532.749 237.129 527.766 237.129 521.614V513.419H237.226C237.946 518.87 242.614 523.094 248.255 523.094H334.248C338.936 523.094 343.157 521.206 346.23 518.13C347.572 516.787 348.662 515.229 349.498 513.516C350.471 513.808 351.19 514.723 351.19 515.794Z" fill="#7A6AA8"/>
<path d="M334.248 536.369H248.255C240.105 536.369 233.491 529.751 233.491 521.594V513.399C233.491 511.394 235.106 509.778 237.109 509.778H348.798C352.104 509.778 354.808 512.484 354.808 515.793C354.808 527.142 345.588 536.369 334.248 536.369ZM240.747 517.039V521.594C240.747 525.741 244.112 529.108 248.255 529.108H334.248C341.173 529.108 346.872 523.794 347.495 517.039H240.747Z" fill="#000072"/>
<path d="M322.733 504.464C318.337 502.829 313.63 500.688 308.592 498.001C306.744 500.824 299.236 514.081 279.921 511.998C271.48 511.083 260.665 505.749 259.089 490.234C258.797 487.295 258.817 483.966 259.284 480.229C260.315 471.624 263.407 464.072 268.095 457.881C280.855 441.062 305.558 434.346 333.626 444.216C333.626 444.216 337.03 437.539 337.964 430.161L386.475 443.904L386.65 443.963C386.669 443.982 388.673 529.109 322.733 504.464Z" fill="#8E8FB3"/>
<path d="M322.733 504.464C318.337 502.829 313.63 500.688 308.592 498.001C306.745 500.824 299.236 514.081 279.921 511.998C271.48 511.083 260.665 505.749 259.089 490.234C262.24 494.459 268.29 499.87 278.54 499.559C300.792 498.877 304.021 479.567 313.961 480.365C323.881 481.163 337.983 499.481 362.491 487.295C377.566 479.8 383.966 461.424 386.475 443.943L386.65 444.002C386.669 443.982 388.673 529.109 322.733 504.464Z" fill="#6C709E"/>
<path d="M322.733 504.464C318.337 502.829 313.63 500.688 308.592 498.002C306.744 500.824 299.236 514.081 279.921 511.998C279.649 511.978 279.377 511.939 279.124 511.901C279.104 511.901 279.085 511.901 279.066 511.901C278.813 511.862 278.56 511.823 278.326 511.784C278.054 511.745 277.782 511.686 277.509 511.628C277.295 511.589 277.082 511.55 276.868 511.492C276.498 511.414 276.128 511.317 275.759 511.219C275.525 511.161 275.292 511.083 275.078 511.025C274.319 510.791 273.561 510.518 272.822 510.207C272.666 510.148 272.53 510.071 272.374 510.012C271.441 509.603 270.507 509.117 269.612 508.552C269.359 508.397 269.126 508.241 268.873 508.066C268.581 507.871 268.309 507.676 268.037 507.462C267.764 507.268 267.492 507.053 267.22 506.82C266.947 506.586 266.675 506.372 266.422 506.119C266.286 506.002 266.15 505.866 266.033 505.749C265.644 505.379 265.275 504.97 264.905 504.562C264.769 504.425 264.652 504.289 264.536 504.133C263.933 503.433 263.388 502.654 262.863 501.836C262.727 501.603 262.571 501.35 262.435 501.116C262.046 500.454 261.696 499.773 261.365 499.033C261.229 498.722 261.093 498.391 260.957 498.06C260.937 497.982 260.898 497.924 260.859 497.846C260.723 497.515 260.606 497.184 260.49 496.834C260.412 496.6 260.354 496.366 260.276 496.133C260.198 495.919 260.14 495.705 260.081 495.49C260.062 495.393 260.023 495.296 260.003 495.198C259.926 494.945 259.867 494.712 259.809 494.459C259.789 494.342 259.77 494.245 259.731 494.147C259.653 493.855 259.595 493.544 259.537 493.232C259.459 492.823 259.381 492.395 259.323 491.967C259.303 491.792 259.264 491.597 259.245 491.402C259.206 491.033 259.148 490.663 259.109 490.293C262.26 494.517 268.328 499.929 278.56 499.598C300.812 498.916 304.041 479.606 313.98 480.404C315.556 480.54 317.209 481.085 319.018 481.903C319.446 489.222 319.699 496.95 322.733 504.464Z" fill="#E8E8E8"/>
<path d="M322.733 504.464C318.337 502.829 313.63 500.688 308.592 498.002C306.745 500.824 299.236 514.081 279.921 511.998C269.865 510.927 256.463 503.569 259.284 480.229C260.315 471.625 263.407 464.072 268.095 457.881C277.471 450.017 291.145 443.437 306.492 453.852C324.64 466.174 315.264 486.01 322.733 504.464Z" fill="white"/>
<path d="M322.733 504.464C318.337 502.829 313.63 500.688 308.592 498.002C306.744 500.824 299.236 514.081 279.921 511.998C279.649 511.978 279.377 511.939 279.124 511.901C279.104 511.901 279.085 511.901 279.066 511.901C278.813 511.862 278.56 511.823 278.326 511.784C278.054 511.745 277.782 511.686 277.509 511.628C277.295 511.589 277.082 511.55 276.868 511.492C276.498 511.414 276.128 511.317 275.759 511.219C275.525 511.161 275.292 511.083 275.078 511.025C274.319 510.791 273.561 510.518 272.822 510.207C272.666 510.148 272.53 510.071 272.374 510.012C271.441 509.603 270.507 509.117 269.612 508.552C269.359 508.397 269.126 508.241 268.873 508.066C268.581 507.871 268.309 507.676 268.037 507.462C267.764 507.248 267.492 507.053 267.22 506.82C266.947 506.586 266.675 506.372 266.422 506.119C266.286 506.002 266.15 505.866 266.033 505.749C265.644 505.379 265.275 504.97 264.905 504.562C264.769 504.425 264.652 504.289 264.536 504.133C263.933 503.433 263.388 502.654 262.863 501.836C262.727 501.603 262.571 501.35 262.435 501.116C262.046 500.454 261.696 499.773 261.365 499.033C261.229 498.722 261.093 498.391 260.957 498.06C260.937 497.982 260.898 497.924 260.859 497.846C260.723 497.515 260.606 497.184 260.49 496.834C260.412 496.6 260.354 496.366 260.276 496.133C260.198 495.919 260.14 495.705 260.081 495.49C260.062 495.393 260.023 495.296 260.003 495.198C259.926 494.945 259.867 494.712 259.809 494.459C259.789 494.342 259.77 494.245 259.731 494.147C259.653 493.855 259.595 493.544 259.537 493.232C259.459 492.823 259.381 492.395 259.323 491.967C259.303 491.792 259.264 491.597 259.245 491.402C259.206 491.033 259.148 490.663 259.109 490.293C262.26 494.517 268.328 499.929 278.56 499.598C300.812 498.916 304.041 479.606 313.98 480.404C315.556 480.54 317.209 481.085 319.018 481.903C319.446 489.222 319.699 496.95 322.733 504.464Z" fill="#D3D4E2"/>
<path d="M388.478 443.925C390.19 460.004 387.545 476.511 380.017 490.955C363.795 521.089 332.362 515.755 306.9 501.195L311.646 499.968C304.08 512.972 289.608 518.364 275.195 514.802C254.674 509.39 252.262 487.198 257.903 469.756C266.967 441.647 297.097 431.544 324.017 437.734C327.693 438.532 331.292 439.584 334.832 440.791L330.397 442.562C332.264 439.778 333.898 436.469 335.104 433.276C335.999 431.602 335.746 428.021 338.43 428.566C339.247 428.799 339.792 429.558 339.773 430.357C339.656 435.69 338.644 440.79 336.874 445.832C336.038 447.467 334.132 448.207 332.439 447.604C329.172 446.494 325.865 445.521 322.5 444.801C312.58 442.679 301.979 442.562 292.292 445.521C279.455 449.297 268.795 459.147 264.788 471.976C260.568 485.076 260.995 503.745 277.023 507.735C288.519 510.499 299.606 506.373 305.558 495.978C306.589 494.381 308.67 493.856 310.304 494.751C314.817 497.009 319.407 499.092 324.075 500.805C328.763 502.479 333.529 503.745 338.294 504.445C374.065 509.624 381.456 471.45 384.841 443.983C385.016 441.881 388.186 441.764 388.478 443.925Z" fill="#000072"/>
<path d="M315.264 481.786C314.778 487.996 314.116 493.719 311.802 499.695C311.063 501.603 308.923 502.537 307.036 501.758C304.897 500.921 304.06 498.196 305.383 496.308C306.764 494.283 307.95 491.772 308.981 489.203C310.012 486.614 310.926 483.869 311.685 481.182C312.288 479.1 315.4 479.645 315.264 481.786Z" fill="#000072"/>
<path d="M350.121 455.332C344.363 451.73 338.294 450.017 331.973 447.467C327.149 445.287 330.708 438.357 335.299 441.024C340.862 444.528 347.32 447.857 352.26 452.412C353.019 453.074 353.097 454.222 352.435 454.981C351.832 455.643 350.86 455.779 350.121 455.332Z" fill="#000072"/>
<path d="M403.475 610.575C399.001 627.394 391.59 646.919 377.411 644.972C371.886 644.213 349.693 611.51 345.18 597.552C339.811 580.928 338.158 566.581 339.17 554.434C343.176 506.567 388.828 492.96 412.034 508.221L448.271 466.193C455.624 478.846 462.062 497.223 464.785 516.67C470.62 558.191 459.417 604.599 403.475 610.575Z" fill="#8E8FB3"/>
<path d="M403.475 610.576C399.001 627.394 391.59 646.919 377.411 644.973C371.886 644.213 349.693 611.51 345.18 597.553C339.811 580.928 338.158 566.582 339.17 554.435C347.475 552.936 358.251 554.727 371.4 564.421C410.108 592.959 430.823 582.233 442.922 574.212C457.102 564.81 462.626 536.973 464.785 516.67C470.62 558.192 459.417 604.599 403.475 610.576Z" fill="#6C709E"/>
<path d="M411.042 509.74C377.8 496.425 345.939 518.967 343.06 553.831C341.543 568.878 344.558 584.354 349.401 598.526C354.38 610.206 361.577 621.126 369.085 631.385C371.789 634.85 374.901 639.055 378.15 641.391C378.111 641.371 378.052 641.371 378.014 641.352C377.975 641.352 377.858 641.352 377.975 641.352L378.344 641.391C387.311 642.169 392.31 631.268 395.286 624.182C397.153 619.51 398.651 614.605 399.993 609.622C400.402 608.142 401.666 607.11 403.105 606.955C410.341 606.079 417.46 604.56 424.152 601.971C469.181 584.86 467.781 526.461 454.145 488.054C451.694 481.085 448.738 474.291 445.12 467.984C442.864 463.838 448.855 460.237 451.422 464.383C466.069 490.955 472.974 524.339 468.306 554.454C462.548 589.785 439.09 610.517 403.864 614.196C403.864 614.196 406.996 611.51 406.976 611.529C403.144 624.941 396.881 647.542 380.095 648.729C378.908 648.749 377.663 648.749 376.496 648.496C374.785 648.126 373.462 647.055 372.178 645.985C364.981 639.152 359.574 630.801 354.186 622.586C349.556 615.13 344.947 607.558 341.912 599.207C337.516 585.736 334.715 571.467 335.24 557.238C336.096 529.595 352.785 504.678 381.048 499.5C386.591 498.488 392.349 498.332 397.912 499.461C403.456 500.61 408.863 502.946 413.045 506.742C414.582 508.124 412.889 510.596 411.042 509.74Z" fill="#000072"/>
<path d="M391.26 624.669C391.513 626.83 393.069 637.322 386.047 643.376C373.773 653.966 340.823 648.36 325.476 618.051C314.622 596.618 315.05 571.137 335.24 563.039C348.992 557.51 366.459 573.55 373.909 592.958C373.909 592.958 377.313 598.974 383.168 607.441C390.073 617.467 391.26 624.669 391.26 624.669Z" fill="white"/>
<path d="M386.047 643.376C375.757 652.234 350.976 649.742 334.19 630.898C350.179 642.325 369.047 643.201 376.457 634.733C387.914 621.632 365.176 577.658 364.592 576.548C368.385 581.357 371.634 587.002 373.909 592.978C373.909 592.978 377.313 598.993 383.168 607.461C390.073 617.467 391.26 624.689 391.26 624.689C391.513 626.849 393.069 637.322 386.047 643.376Z" fill="#D3D4E2"/>
<path d="M393.049 624.455C399.351 650.384 373.52 656.536 353.797 649.002C335.882 642.598 322.889 626.674 317.287 608.843C312.074 593.251 312.774 572.285 328.024 562.416C332.362 559.574 337.672 557.569 342.885 558.211C354.983 559.632 364.903 569.521 370.719 579.468C372.976 583.498 374.726 587.8 375.602 592.316C375.796 593.309 375.135 594.282 374.143 594.477C373.365 594.633 372.606 594.263 372.217 593.62C365.72 583.459 358.679 572.169 347.417 567.146C343.468 565.531 339.559 565.258 336.077 566.932C325.184 571.546 321.508 583.225 322.636 594.399C324.62 614.508 337.166 634.5 356.481 641.839C367.977 646.472 387.039 646.647 388.984 631.054C389.315 629.069 389.451 627.064 389.451 624.883C389.451 623.871 390.287 623.054 391.299 623.073C392.154 623.073 392.855 623.657 393.049 624.455Z" fill="#000072"/>
<path d="M406.237 595.372C406.801 600.609 407.112 605.767 407.054 611.043C406.86 615.87 399.857 615.812 399.74 610.984C400.168 608.259 401.005 605.592 401.433 602.828C401.88 600.356 402.289 597.825 402.6 595.333C402.911 593.211 406.023 593.25 406.237 595.372Z" fill="#000072"/>
<path d="M249.48 456.208C243.567 452.899 237.226 449.706 230.866 447.565C225.983 445.677 229.037 438.63 233.744 440.907C240.222 444.45 245.882 448.655 251.562 453.249C253.254 454.67 251.387 457.337 249.48 456.208Z" fill="#000072"/>
<path d="M363.133 611.666C367.471 618.362 368.288 627.064 363.503 631.502C356.89 637.634 346.794 631.327 342.671 624.942C338.547 618.557 336.894 606.78 345.199 603.237C351.171 600.687 358.796 604.989 363.133 611.666Z" fill="#F27E80"/>
<path d="M360.235 589.688C362.394 593.017 362.803 597.222 360.43 599.577C358.037 601.933 352.941 600.804 350.043 596.307C347.144 591.83 348.175 586.71 351.307 585.484C354.419 584.277 358.076 586.36 360.235 589.688Z" fill="#F27E80"/>
<path d="M344.849 589.065C346.697 592.783 346.619 597.183 343.877 599.363C341.134 601.543 335.96 599.733 333.47 594.73C330.981 589.727 332.673 584.529 336.057 583.634C339.442 582.739 342.982 585.347 344.849 589.065Z" fill="#F27E80"/>
<path d="M337.652 602.867C338.897 605.378 338.858 608.357 336.991 609.817C335.124 611.277 331.642 610.07 329.969 606.682C328.296 603.295 329.425 599.791 331.72 599.188C334.015 598.584 336.407 600.356 337.652 602.867Z" fill="#F27E80"/>
<path d="M254.538 526.189C256.256 526.189 257.65 524.795 257.65 523.075C257.65 521.354 256.256 519.96 254.538 519.96C252.819 519.96 251.425 521.354 251.425 523.075C251.425 524.795 252.819 526.189 254.538 526.189Z" fill="#000072"/>
<path d="M284.531 519.979H268.153V526.189H284.531V519.979Z" fill="#000072"/>
<path d="M329.035 524.729H324.25C323.434 524.729 322.792 524.067 322.792 523.269C322.792 522.451 323.453 521.809 324.25 521.809H329.035C329.852 521.809 330.494 522.47 330.494 523.269C330.514 524.067 329.852 524.729 329.035 524.729Z" fill="#000072"/>
<path d="M291.748 498.8C292.409 500.727 294.782 506.295 297.233 505.535C301.979 503.55 305.052 510.344 300.442 512.621C299.411 513.166 298.108 512.913 297.038 512.796C295.054 512.582 293.245 511.57 292.098 510.383C289.978 508.202 289.219 505.691 288.635 503.005C288.46 501.233 287.177 497.768 289.9 497.437C290.775 497.379 291.534 497.983 291.748 498.8Z" fill="#000072"/>
<path d="M273.561 498.858C274.242 502.265 275.525 507.638 279.416 508.319C285.115 509.409 282.547 517.604 277.218 515.229C270.779 512.504 269.457 505.01 269.923 498.858C270.137 496.659 273.347 496.678 273.561 498.858Z" fill="#000072"/>
<g opacity="0.5">
<path d="M359.827 538.414C359.088 532.75 365.467 520.622 375.232 515.541C390.345 507.696 403.242 511.298 404.72 514.023C406.432 517.138 396.745 518.267 379.803 528C368.988 534.21 360.741 545.286 359.827 538.414Z" fill="white"/>
</g>
<path d="M121.395 440.887C124.118 443.359 126.355 446.299 127.736 449.452C131.626 458.29 125.713 461.755 116.551 461.774C107.39 461.794 98.4422 458.348 94.552 449.511C93.1709 446.357 92.8208 443.418 93.3655 440.945C92.5874 440.323 91.8288 439.641 91.0702 438.882C86.9271 434.677 85.0404 430.044 86.8688 428.526C88.6777 427.008 93.5211 429.168 97.6447 433.373C98.0143 433.762 98.3838 434.132 98.7145 434.522C100.251 433.86 102.06 433.49 104.102 433.49C106.164 433.49 108.284 433.84 110.405 434.502C110.405 434.113 110.424 433.723 110.463 433.354C110.91 429.149 113.828 426.969 116.979 428.487C120.13 430.005 122.309 434.638 121.861 438.843C121.784 439.563 121.628 440.264 121.395 440.887Z" fill="white"/>
<g opacity="0.5">
<path d="M23.886 384.669C43.4538 380.756 126.646 379.004 145.495 383.501C164.323 388.017 7.48868 387.959 23.886 384.669Z" fill="white"/>
</g>
</g>
<defs>
<clipPath id="clip0_223_835">
<rect width="589" height="553" fill="white" transform="translate(0 99)"/>
</clipPath>
</defs>
</svg>
