<?xml version="1.0" encoding="utf-8"?>
<!-- Generator: Adobe Illustrator 23.1.0, SVG Export Plug-In . SVG Version: 6.00 Build 0)  -->
<svg version="1.1" id="Слой_1" xmlns="http://www.w3.org/2000/svg" xmlns:xlink="http://www.w3.org/1999/xlink" x="0px" y="0px"
	 viewBox="0 0 688.4 599" style="enable-background:new 0 0 688.4 599;" xml:space="preserve">
<style type="text/css">
	.st0{fill:#FEB16C;}
	.st1{fill:#97979E;}
	.st2{fill:#000072;}
	.st3{fill:#EA9A3B;}
	.st4{opacity:0.6;}
	.st5{fill:#FFFFFF;}
	.st6{opacity:0.2;}
	.st7{fill:#F27E80;}
	.st8{fill:#62C84F;}
	.st9{fill:#C072F7;}
	.st10{opacity:0.3;}
	.st11{clip-path:url(#SVGID_2_);}
	.st12{opacity:0.35;}
</style>
<ellipse class="st0" cx="313" cy="299.5" rx="313" ry="299.5"/>
<path class="st1" d="M353.9,454.7c-4.4-1.3-8.2-3-11.6-5c-1.3-0.8-2.6-1.6-3.8-2.5h0c-19.2-14-18.4-37.1-18.4-37.1l4.5,0.1l49.4,1.3
	c2.1,0.3,3.9,0.8,5.5,1.5C399.3,422.2,386.3,464.3,353.9,454.7z"/>
<path class="st2" d="M363.1,460c-3.3,0-6.8-0.5-10.3-1.6c-19.6-5.8-28.5-18.7-32.6-28.4c-4.4-10.5-4.1-19.6-4.1-20
	c0.1-2.2,1.9-3.9,4.1-3.8c2.2,0.1,3.9,1.9,3.8,4.1c0,1.3-0.6,31.2,31,40.6c9.3,2.8,17.6,0.9,23.4-5.2c5.7-6,8-15.3,5.6-22.1
	c-1.1-3.2-3.9-7.2-10.5-8c-2.2-0.3-3.7-2.2-3.5-4.4c0.3-2.2,2.2-3.7,4.4-3.5c8.3,1,14.3,5.6,17,13.1c3.5,9.6,0.5,22.1-7.2,30.2
	C378.6,457,371.2,460,363.1,460z"/>
<path class="st2" d="M346.1,412.3c-2.4,2.5-4.5,5.4-6.4,8.3c-1.9,3-3.5,6.3-4.4,9.9c-0.4-3.7,0-7.6,0.7-11.3
	c0.8-3.9,1.9-7.6,3.4-11.2L346.1,412.3z"/>
<path class="st2" d="M370.6,415.5l-13.8,12.2l7.4-16.9L370.6,415.5z"/>
<path class="st2" d="M389.6,423.2c-4.8,5.2-9.8,10.3-15.7,14.2c2-2.8,3.6-5.9,5-8.9c1.4-3,2.8-6.2,3.9-9.4
	C382.8,419.1,389.6,423.2,389.6,423.2z"/>
<path class="st3" d="M606.4,359.6l-16.6,0l-383.4,1.2l-23.5-34.3c-1.4-2.1-4.2-2.8-6.4-1.6l-5.8,3.1c-2.7,1.4-3.4,4.9-1.6,7.3
	c3.7,4.8,9.2,13.5,12,25.5l-25.4,0.9c-4.7,0.2-8.7,3.5-9.8,8c-1.6,6.5-3.1,16.4-1.4,27.1c0.8,5,5,8.6,10,8.7l428.9,11.7l28.3-17.8
	l4.2-20.9"/>
<g class="st4">
	<path class="st5" d="M183.7,361C183.7,361,183.7,361,183.7,361c1.3,3.6-1.3,7.3-5.1,7.4l-24.5,0.7c-4.1,0.2-7.7,2.7-9.3,6.4
		c0.3-2.1,0.7-4,1.1-5.7c1.1-4.6,5.1-7.8,9.8-8L183.7,361z"/>
</g>
<g class="st4">
	<path class="st5" d="M615.1,378.7l-4.2,20.9l-0.2,0.1l2.8-13.7l-9.7-19l-16.6,0l-379.7,1.2c-2.3,0-4.5-1.1-5.8-3.1l-21.3-31.2
		c-1.4-2.1-4.2-2.8-6.4-1.6l-5.6,3c-1.8-2.4-1.1-5.9,1.6-7.3l5.8-3.1c2.2-1.2,5-0.5,6.4,1.6l23.5,34.3l383.4-1.2l16.6,0L615.1,378.7
		z"/>
</g>
<path class="st2" d="M583.6,420.5C583.6,420.5,583.6,420.5,583.6,420.5l-429-11.7c-6.6-0.2-12.1-5-13.1-11.4
	c-1.8-11.2-0.2-21.6,1.4-28.3c1.4-5.9,6.7-10.2,12.7-10.5l21.4-0.8c-2.8-9.3-7.1-16.2-10.4-20.5c-1.4-1.9-2-4.3-1.5-6.6
	c0.5-2.3,2-4.3,4.1-5.5l5.8-3.1c3.7-2,8.2-0.9,10.5,2.6l22.5,32.9l381.8-1.2l16.6,0c1.7,0,3.2,1.4,3.2,3.2c0,1.7-1.4,3.2-3.2,3.2
	l-16.6,0L206.3,364c0,0,0,0,0,0c-1.1,0-2-0.5-2.6-1.4l-23.5-34.3c-0.5-0.7-1.5-1-2.3-0.5l-5.8,3.1c-0.6,0.3-0.8,0.9-0.9,1.2
	c-0.1,0.3-0.1,0.9,0.3,1.4c4.1,5.4,9.7,14.4,12.6,26.7c0.2,0.9,0,1.9-0.6,2.7c-0.6,0.8-1.5,1.2-2.4,1.3l-25.4,0.9
	c-3.2,0.1-6,2.4-6.8,5.6c-1.5,6.2-2.9,15.7-1.3,25.8c0.5,3.4,3.5,6,7,6.1l428,11.7l26.3-16.6l4-19.6c0.3-1.7,2-2.8,3.8-2.5
	c1.7,0.3,2.8,2,2.5,3.8l-4.2,20.9c-0.2,0.9-0.7,1.6-1.4,2.1l-28.3,17.8C584.8,420.4,584.2,420.5,583.6,420.5z"/>
<g class="st6">
	<path class="st2" d="M616.1,378.7l-4.2,20.9l-28.3,17.8l-428.9-11.7c-5-0.1-9.3-3.8-10-8.7c-1.1-7.3-0.8-14.3,0-20.1
		c0.9,4.8,5.1,8.4,10,8.5l140.5,3.8l68.6-18.3l1.7,4.7c-3.3,6.4-10.7,11.4-17.8,15.1l88.5,2.4c11.4-10.7,19.6-32.2,19.6-32.2
		c2.2,11.6,0.6,25.1-0.9,32.7l95.4,2.6c2.8,0.1,5.7,0,8.5-0.1l8.8-35.3c0,0,3,22.6,10.6,32.6c11.9-2.8,23.3-7.5,33.8-14.1l1.3-6.4
		L616.1,378.7z"/>
</g>
<path class="st1" d="M628,429.8c-3.1,2.5-6.4,4.9-10.2,7.3c-14.7,9.3-33.5,10.4-48.6,1.8c-5.5-3.1-10.9-7.6-15.5-14l11.5-11.2
	c0,0,3.7,0.7,8.8,0.6c8.2-0.2,20.1-2.5,25.3-13.2c0.5-0.9,0.9-1.9,1.2-3c6.8-20.9-3.2-44.3,21.9-52.4c1.4-0.4,2.8-0.6,4.2-0.6
	C647.5,345.2,673.8,392.8,628,429.8z"/>
<path class="st5" d="M628,429.8c-6.8-30.5-28.8-28.8-28.8-28.8h0c0.5-0.9,0.9-1.9,1.2-3c6.8-20.9-3.2-44.3,21.9-52.4
	C643.6,338.7,676.9,390.2,628,429.8z"/>
<path class="st2" d="M591.7,448c-8.4,0-16.6-2.1-24.1-6.3c-6.5-3.7-12-8.7-16.5-14.9c-1-1.4-0.7-3.4,0.7-4.4c1.4-1,3.4-0.7,4.4,0.7
	c3.9,5.5,8.8,9.9,14.5,13.1c13.9,7.9,31.3,7.2,45.4-1.7c3.5-2.2,6.8-4.6,9.9-7.1c27.7-22.5,27.6-48.9,19-64.7
	c-5.6-10.4-14.8-16.3-21.7-14c-15,4.9-15.8,15.7-16.6,29.4c-0.5,6.8-0.9,13.9-3.2,21c-0.4,1.3-0.9,2.4-1.4,3.5
	c-9.3,19.3-36.3,14.6-37.4,14.4c-1.7-0.3-2.9-2-2.6-3.7c0.3-1.7,2-2.9,3.7-2.6c0.2,0,23.4,4,30.6-10.9c0.4-0.8,0.7-1.6,1.1-2.6
	c2-6.3,2.5-13,2.9-19.4c0.9-14.2,1.9-28.8,21-35c10-3.2,22,3.8,29.2,17.1c9.7,18,10.2,47.8-20.6,72.6c-3.3,2.6-6.8,5.2-10.5,7.5
	C610.9,445.2,601.2,448,591.7,448z"/>
<g class="st6">
	<path class="st2" d="M628,429.8c-3.1,2.5-6.4,4.9-10.2,7.3c-14.7,9.3-33.5,10.4-48.6,1.8c-5.5-3.1-10.9-7.6-15.5-14l11.5-11.2
		c0,0,3.7,0.7,8.8,0.6l0.8,0.6c0,0,34.4,21.8,51.5-10.1c17.1-31.9,0-58.3,0-58.3s0.1-0.5,0.3-1.5C647.5,345.2,673.8,392.8,628,429.8
		z"/>
</g>
<path class="st1" d="M595.2,326.7c-0.7,10.4-2.6,21.4-5.4,33l-23.5,1.2c0,0-5.6,6.1-3.3,21.2c2.3,15.1,10.4,39.8-14.7,49.6
	c-12.5,4.9-28,6.3-40.9,3.1c-5.3-1.3-10.2-3.4-14.2-6.3c-2.3-1.7-4.4-3.7-6-6c-2-2.7-3.3-5.8-3.9-8.9c-0.9-5.1,0-10.4,2.9-15
	c2.1-3.4,5.4-7,10.5-10c0,0-6.2-11.3-7.7-26.8l-1.2,0l-32.5,0.5c0,0-2.1,5.3-6,12.2c-7.4,13-21.4,31.5-40,30.2
	c-24.8-1.7-35.5-16.8-45.5-32.6c-0.1-0.1-0.1-0.2-0.2-0.3c-1.5-2.3-2.9-4.7-4.4-7c-11.6-18.1,52.4-158.4,52.4-158.4
	c49.8-24.7,120.2-12.8,149.4,45.1C588.5,267.7,597.5,294,595.2,326.7z"/>
<g class="st6">
	<path class="st2" d="M422.9,363.4c39.9-50.5,67.6-100.4-1.5-145.8l-7.5,133"/>
</g>
<g class="st4">
	<path class="st5" d="M589.8,359.6l-0.2,0c8.8-43.5,2.9-78.9-30.9-98.8c-29.2-57.9-99.6-69.8-149.4-45.1c0,0-37.2,81.7-49.8,128.5
		c9.3-44.2,52-137.8,52-137.8c49.8-24.7,120.2-12.8,149.4,45.1C597.2,272.8,601.4,311.8,589.8,359.6z"/>
</g>
<path class="st5" d="M458.7,346.9c0,0,5.2-16.1,30.3-1l1.1,15.8l-32.9-1.6L458.7,346.9z"/>
<path class="st2" d="M522.4,439.6c-5.4,0-10.7-0.6-15.6-1.8c-5.9-1.5-11.1-3.8-15.3-6.8c-2.6-1.9-4.9-4.2-6.7-6.7
	c-6-8.2-6.4-19-1.1-27.5c2.3-3.6,5.3-6.8,9.1-9.4c-1.8-4-5-12.1-6.5-22.4l-28.8,0.5c-3.8,8.7-20.3,42.5-46.3,42.5
	c-0.7,0-1.4,0-2.1-0.1c-27.7-1.9-38.8-19.6-49.6-36.7c-1-1.5-1.9-3.1-2.9-4.6c-3.5-5.4-5-20.6,21.6-88.9
	c14.4-37,30.5-72.2,30.6-72.6c0.3-0.7,0.8-1.2,1.5-1.5c49.8-24.7,122.4-14.2,153.2,45.7c33.1,20,42.8,56.4,29.5,111.2
	c-0.3,1.4-1.5,2.3-2.9,2.4l-21.9,1.1c-1.1,2.1-3.4,7.6-1.9,17.6c0.3,1.7,0.6,3.6,1,5.6c2.7,15,6.9,37.8-17.6,47.4
	C541,437.9,531.5,439.6,522.4,439.6z M489,358.5c1.6,0,3,1.2,3.2,2.9c1.4,14.6,7.3,25.4,7.4,25.5c0.8,1.5,0.3,3.4-1.1,4.3
	c-4,2.4-7.2,5.4-9.4,9c-4,6.3-3.6,14.3,0.8,20.4c1.4,2,3.2,3.8,5.4,5.3c3.6,2.6,7.9,4.6,13.1,5.8c11.9,2.9,26.8,1.8,39-3
	c19.7-7.7,16.5-25,13.7-40.3c-0.4-2.1-0.7-4-1-5.8c-2.4-16.1,3.4-23.1,4.1-23.8c0.6-0.6,1.3-1,2.2-1l21.1-1.1
	c12-51.5,3.1-84.1-27.9-102.4c-0.5-0.3-0.9-0.8-1.2-1.3c-28.6-56.8-96.8-67.1-144.1-44.2c-2.8,6.1-17,38-30,71.3
	C358.4,346,360,360.1,362,363.1c1,1.5,2,3.1,2.9,4.6c10.3,16.5,20.1,32.1,44.6,33.7c25.9,1.8,42.7-40,42.9-40.4c0.5-1.2,1.6-2,2.9-2
	L489,358.5C489,358.5,489,358.5,489,358.5z"/>
<path class="st2" d="M563.4,359.8c1-4,2.7-10.2,3.8-14.3c2.2-8.4,3.6-17.2,4.2-25.9c0.5-6.3,0.3-12.6-0.2-19
	c0.5,2.2,1.3,5.3,1.7,7.5c0.6,3,1,6.6,1.3,9.5c0.8,9.7,0.5,19.4-0.9,29c-0.5,3.9-1.3,7.7-2.5,11.5c-0.4,1.3-0.8,2.5-1.4,3.8
	c-0.7,1.6-2.6,2.4-4.2,1.7C563.7,362.9,562.9,361.3,563.4,359.8z"/>
<path class="st2" d="M563.4,249.2c2.4,8.4,2.9,17.2,3,25.9c-2-7.6-4.4-15.1-8.1-22c-0.2-0.4-0.5-0.9-0.7-1.2c-1-1.5-0.6-3.5,0.8-4.5
	C560.2,246,562.8,247,563.4,249.2z"/>
<path class="st2" d="M485.9,361.6c1.6-13.4,3.3-26.7,5.4-40c0,13.4,0.4,26.9,0.9,40.2C492.2,366.4,485.5,366.1,485.9,361.6z"/>
<path class="st2" d="M452.3,361.3c2.8-6.7,5-13.9,6.5-21.1c0.5-2.4,1-4.9,1.4-7.3c0.1,2.5,0.2,5,0.2,7.5c-0.1,7.7-0.7,15.2-2.1,22.7
	C457.2,367.8,450.6,365.7,452.3,361.3z"/>
<path class="st2" d="M413.6,347c6.1,4.4,9.4,11.8,10.3,19.1c-1.6-2.9-3.7-5.6-6.1-7.7c-2.2-1.8-4.8-3.6-7.5-4.2
	C405.6,351.8,408.8,344.9,413.6,347z"/>
<path class="st2" d="M495.8,385.4c10.5-2.3,21.7-1.6,31.7,2.3c4.4,1.7,8.5,4.3,12.2,7.1c-9.5-5.7-20.9-7.6-31.7-6
	c-3.4,0.5-7.1,1.3-10.2,2.6C493.5,393,491.4,386.7,495.8,385.4z"/>
<path class="st2" d="M551.8,430.1c0-0.1,0-0.3,0-0.5c0-8.2-7.2-14.8-16.1-14.8c-8.9,0-16.1,6.6-16.1,14.8c0,2.5,0.6,4.8,1.8,6.8"/>
<path class="st2" d="M510.8,416.1c0.6-3.5-2.4-6.9-6.6-7.6c-4.2-0.7-8.1,1.6-8.7,5.1c-0.6,3.5,2.4,6.9,6.6,7.6
	C506.3,421.9,510.3,419.6,510.8,416.1z"/>
<path class="st2" d="M525,407.6c1.2-3.3-1.1-7.2-5.1-8.7c-4-1.5-8.3,0-9.5,3.4c-1.2,3.3,1.1,7.2,5.1,8.7
	C519.5,412.4,523.7,410.9,525,407.6z"/>
<path class="st2" d="M507.7,434.2c-0.1,0.2-0.1,0.4-0.2,0.5c-5.3-1.3-10.2-3.4-14.2-6.3c1.4-3,5.5-4.3,9.3-2.9
	C506.7,426.9,508.9,430.8,507.7,434.2z"/>
<g class="st6">
	<path class="st2" d="M595.2,326.7c-0.7,10.4-2.6,21.4-5.4,33l-23.5,1.2c0,0-5.6,6.1-3.3,21.2c2.3,15.1,10.4,39.8-14.7,49.6
		c-12.5,4.9-28,6.3-40.9,3.1c-5.3-1.3-10.2-3.4-14.2-6.3c-2.3-1.7-4.4-3.7-6-6c-2-2.7-3.3-5.8-3.9-8.9c45.7,15.6,69.4,9.6,52.3-36.5
		c0,0-15.3-43.7,16-74.6c0,0,20.5-18.1,20.5,5.7C572.3,331.8,585.1,345.9,595.2,326.7z"/>
</g>
<g class="st6">
	<path class="st2" d="M449.3,374.5c-7.4,13-21.4,31.5-40,30.2c-24.8-1.7-35.5-16.8-45.5-32.6l23.4-8.7l14.2-8.2
		C401.4,355.1,412.7,398.4,449.3,374.5z"/>
</g>
<path class="st1" d="M245,193.6c0,0-39.6-5.1-65.2,9.1c-5.3,3-8.5,8.6-8.2,14.7c0.7,13.8,7,41.1,41.9,70"/>
<g class="st4">
	<path class="st5" d="M245,193.6l-2.3,6.9c-12.7-0.7-38.9-0.6-57.6,9.7c-5.3,3-8.5,8.6-8.2,14.7c0.4,8.5,3,22.2,13.1,38.2
		c-14.5-19.2-17.9-35.9-18.3-45.7c-0.3-6.1,2.9-11.8,8.2-14.7C205.4,188.5,245,193.6,245,193.6z"/>
</g>
<path class="st1" d="M308,166.7c0,0,16.3-33.5,46.3-50.1c4.2-2.3,9.3-1.8,12.9,1.3c9.6,8.5,27.6,29.9,33.1,75.7"/>
<g class="st4">
	<path class="st5" d="M395,166.8c-7.8-23.1-18.8-35.6-25.6-41.6c-3.6-3.2-8.7-3.6-12.9-1.3c-22.3,12.4-37,34-43.1,44.3l-5.4-1.6
		c0,0,16.4-33.5,46.3-50.1c4.2-2.3,9.3-1.8,12.9,1.3C374.7,124.5,387.3,139,395,166.8z"/>
</g>
<path class="st7" d="M344,166.7c0,0,7.9-22.2,19.9-33.1c0,0,18.6,18.2,21,48.6"/>
<g class="st6">
	<path class="st2" d="M384.9,181c-6-20.2-17.9-31.8-17.9-31.8c-6,5.5-11,13.8-14.5,20.7l-8.5-3.2c0,0,7.9-22.2,19.9-33.1
		C363.9,133.5,382.1,151.3,384.9,181z"/>
</g>
<path class="st7" d="M225.5,216.7c0,0-18-2.6-30.6-0.9c-4.7,0.6-8,4.9-7.5,9.6c1.1,9.7,6.2,26.9,26.9,40.8"/>
<g class="st6">
	<path class="st2" d="M225.5,216.7l-2.3,9.9c-6.2-0.5-14.5-0.8-21.2,0.1c-4.7,0.6-8,4.9-7.5,9.6c0.5,4.4,1.8,10.3,5,16.8
		c-8.7-10.4-11.4-20.9-12.2-27.7c-0.5-4.7,2.8-9,7.5-9.6C207.4,214.1,225.5,216.7,225.5,216.7z"/>
</g>
<path class="st1" d="M440.7,314c-5.9,16.5-17.8,30-32.9,38.9c-30,17.6-82.1,34-124.9,33.1c-52.3-1.1-65.6-34.2-68.1-55.1
	c-2.6-20.9-0.6-64.1,0-77.7c0.6-13.6,6.5-63.9,78.4-83.4s113.2,30,113.2,30C436,236,453.8,277.2,440.7,314z"/>
<g class="st4">
	<path class="st5" d="M385.9,182.7c-19.3-10.3-48.2-18.4-85-8.4c-25.6,6.9-42.8,17.8-54.4,29.4c1.9,14.4-4.9,25.6-20.4,33.6
		c-2.8,8.9-3.4,16.3-3.6,20.3c-0.6,13.6-2.5,56.8,0,77.7c1.6,13.1,7.4,31,24.5,42.8c-23.1-11.3-30.4-32.4-32.2-47.4
		c-2.5-20.9-0.6-64.1,0-77.7c0.6-13.6,6.5-63.9,78.4-83.4C335.3,158.4,366.9,170.6,385.9,182.7z"/>
</g>
<path class="st5" d="M410.5,351.2c23.3-46.3-15.9-100.9-73.6-74.8c-30.8-13.8-49.9-6.3-58.5,20.6c-36.5,26.2-23.2,87,12.2,89
	C336.4,382.5,376.9,371.6,410.5,351.2z"/>
<g class="st6">
	<path class="st2" d="M440.7,314c-5.9,16.5-17.8,30-32.9,38.9c-30,17.6-82.2,34.1-124.9,33.1c-24.8-0.5-40.8-8.3-51.1-18.5
		c6.3,1.5,13.5,2.5,21.5,2.6c42.7,0.9,94.9-15.5,124.9-33.1c15.1-8.9,27-22.4,32.9-38.9c13.2-36.8-4.6-78-34.2-114.2
		c0,0-4.7-5.6-13.7-12.3c28,10,43.3,28.2,43.3,28.2C436,236,453.8,277.2,440.7,314z"/>
</g>
<path class="st2" d="M293.5,305.2c-0.9,8.8,11,12.9,16.5,6.9c1.6-1.7,2.4-3.7,3.3-5.9l0.5-1c0.7-1.5,2.4-2.2,3.9-1.6
	c9.8,6.1,24.1-2.2,17.7-14c13.3,12.6-8,30.5-20.7,20.2l5.2-2.1c-0.2,1.8-0.8,3.6-1.7,5.3c-2.6,5.2-9.3,8.1-14.7,7
	C296.7,318.9,290.4,312,293.5,305.2z"/>
<path class="st2" d="M296.3,286.3c4.6-5,10.8-7.7,18.5-7.9c2.2-0.1,4,1.6,4.1,3.8c0.1,3-0.7,7.7-4.7,12.7c-0.7,0.9-1.9,1.5-3,1.5
	c-3,0-9.1-0.5-14.3-4.2C294.9,290.8,294.6,288,296.3,286.3z"/>
<path class="st2" d="M316.6,310.3c-1.4,0-2.6-0.8-3.2-2.2l-4.8-12.4c-0.7-1.7,0.2-3.7,1.9-4.4c1.7-0.7,3.7,0.2,4.4,1.9l4.8,12.4
	c0.7,1.7-0.2,3.7-1.9,4.4C317.4,310.2,317,310.3,316.6,310.3z"/>
<path class="st2" d="M286.4,389.2c-1.2,0-2.4,0-3.5,0c-58.1-1.3-69.1-40.9-71.2-57.9c-2.5-20.3-0.7-61-0.1-76.3l0.1-1.9
	c0.3-8.2,2.5-24.4,12.9-41c13.6-21.5,36.4-36.8,67.8-45.3c38.1-10.3,67.7-1.4,85.9,7.9c19.7,10.1,30.2,22.5,30.7,23.1
	c24.4,29.8,50.2,74.3,34.8,117.3c-6,16.7-18.1,31.1-34.2,40.6C380.6,372.6,329.6,389.2,286.4,389.2z M326.3,168.4
	c-10.5,0-21.3,1.5-32.3,4.5c-66.3,18-75.3,62.2-76,80.4l-0.1,1.9c-0.6,15.2-2.3,55.5,0.1,75.3c2.3,19.1,13.8,51.2,65,52.3
	c42.8,0.9,94.3-15.7,123.2-32.7c14.8-8.7,26-21.9,31.5-37.2c14.4-40.2-10.4-82.6-33.7-111.1c-0.1-0.1-10.3-12.1-28.9-21.6
	C359.7,172.3,343.4,168.4,326.3,168.4z"/>
<path class="st2" d="M400.2,196.8c-1.6,0-3-1.2-3.2-2.8c-5.3-44.3-22.3-65.2-32-73.6c-2.5-2.2-6.2-2.6-9.2-0.9
	c-28.7,15.9-44.9,48.4-45,48.7c-0.8,1.6-2.7,2.2-4.2,1.5c-1.6-0.8-2.2-2.7-1.5-4.2c0.7-1.4,17.1-34.6,47.6-51.5
	c5.3-3,12-2.3,16.5,1.7c10.3,9.1,28.5,31.3,34.1,77.7c0.2,1.7-1,3.3-2.8,3.5C400.5,196.7,400.3,196.8,400.2,196.8z"/>
<path class="st2" d="M384.9,184.8c-1.4,0-2.5-1.1-2.6-2.4c-1.8-23.5-13.9-39.6-18.5-45c-10.4,10.9-17.2,30-17.3,30.2
	c-0.5,1.4-2,2.1-3.4,1.6c-1.4-0.5-2.1-2-1.6-3.4c0.3-0.9,8.2-23,20.6-34.2c1-0.9,2.6-0.9,3.6,0.1c0.8,0.8,19.4,19.3,21.8,50.3
	c0.1,1.5-1,2.7-2.4,2.8C385.1,184.8,385,184.8,384.9,184.8z"/>
<path class="st2" d="M213.5,290.5c-0.7,0-1.4-0.2-2-0.7c-35.8-29.7-42.3-58-43-72.2c-0.4-7.3,3.4-14.1,9.8-17.6
	c26.2-14.5,65.5-9.7,67.1-9.5c1.7,0.2,3,1.8,2.8,3.6c-0.2,1.7-1.8,3-3.6,2.8c-0.4-0.1-38.9-4.8-63.2,8.7c-4.3,2.4-6.8,6.9-6.6,11.8
	c0.6,13.2,6.8,39.6,40.7,67.7c1.3,1.1,1.5,3.1,0.4,4.5C215.4,290.1,214.5,290.5,213.5,290.5z"/>
<path class="st2" d="M214.3,268.8c-0.5,0-1-0.1-1.5-0.4c-21.9-14.6-27-33-28.1-42.7c-0.7-6.1,3.7-11.7,9.8-12.5
	c12.8-1.7,30.6,0.8,31.3,0.9c1.4,0.2,2.5,1.5,2.2,3c-0.2,1.4-1.5,2.5-3,2.2c-0.2,0-17.8-2.6-29.9-0.9c-3.3,0.4-5.6,3.4-5.2,6.7
	c1,8.8,5.7,25.5,25.8,38.9c1.2,0.8,1.5,2.5,0.7,3.7C216,268.4,215.2,268.8,214.3,268.8z"/>
<path class="st2" d="M344,281.4c-20.6-12.9-43.8-14.3-59.1,6.9c-4.3,6.1-7.1,13.3-8.7,21c-0.7-7.9,1-16.1,5-23.3
	C295.1,261.3,325.9,261.2,344,281.4z"/>
<path class="st8" d="M153.2,324.1c0.5,2.2,0.4,4.3,0,6.3c-2.1,9.7-13.5,14-21.9,8.6c-6.7-4.4-17.4-11.9-23.6-19.2
	c0,0,13.7-7.2,28-8.2C143.9,310.9,151.5,316.2,153.2,324.1z"/>
<g class="st6">
	<path class="st2" d="M153.2,330.4c-2.1,9.7-13.5,14-21.9,8.6c-6.7-4.4-17.4-11.9-23.6-19.2c0,0,0.3-0.2,0.9-0.4
		c7.8,4.7,18.6,8.5,25.5,10.7c7.7,2.4,15.7-1.9,18.1-8.9c0.4,1,0.8,2,1,3C153.7,326.3,153.6,328.4,153.2,330.4z"/>
</g>
<g class="st4">
	<path class="st5" d="M153.2,330.4c-0.3,1.4-0.8,2.6-1.4,3.8c0.1-1.4,0-2.8-0.3-4.3c-1.7-7.9-9.3-13.2-17.4-12.6
		c-9.1,0.7-17.8,3.8-23.1,6c-1.2-1.1-2.3-2.3-3.3-3.5c0,0,13.7-7.2,28-8.2c8.1-0.6,15.7,4.7,17.4,12.6
		C153.7,326.3,153.6,328.4,153.2,330.4z"/>
</g>
<path class="st2" d="M139.3,344c-3.3,0-6.6-0.9-9.4-2.8c-7.6-5-18-12.4-24.2-19.7c-0.5-0.6-0.7-1.4-0.6-2.2c0.1-0.8,0.7-1.5,1.4-1.8
	c0.6-0.3,14.3-7.4,29.1-8.5c9.6-0.7,18.3,5.6,20.2,14.7c0.5,2.5,0.5,5,0,7.4c-1.1,5.3-4.7,9.6-9.9,11.7
	C143.8,343.5,141.6,344,139.3,344z M112.1,320.6c6.3,6.4,15.4,12.7,20.7,16.1c3.3,2.1,7.5,2.5,11.1,1c3.5-1.4,5.9-4.3,6.7-7.9
	c0.4-1.7,0.3-3.4,0-5.2c-1.4-6.5-7.7-11.1-14.7-10.5C126.3,314.9,116.8,318.5,112.1,320.6z"/>
<path class="st2" d="M152.6,331.8c-4.7-1.9-9.6-3.7-14.5-5.3c-4.9-1.7-9.8-3.2-14.8-4.6c5.2,0.6,10.3,1.3,15.4,2.1
	c5.2,0.8,10.3,1.7,15.4,2.9c1.4,0.3,2.3,1.7,2,3.2C155.9,331.6,154.1,332.5,152.6,331.8z"/>
<path class="st8" d="M123,401.8c0.5,2.2,0.4,4.3,0,6.3c-2.1,9.7-13.5,14-21.9,8.6c-6.7-4.4-17.4-11.9-23.6-19.2c0,0,13.7-7.2,28-8.2
	C113.7,388.5,121.3,393.8,123,401.8z"/>
<g class="st6">
	<path class="st2" d="M123,408c-2.1,9.7-13.5,14-21.9,8.6c-6.7-4.4-17.4-11.9-23.6-19.2c0,0,0.3-0.2,0.9-0.4
		c7.9,4.7,18.6,8.5,25.5,10.7c7.7,2.4,15.7-1.9,18.1-8.9c0.4,1,0.8,2,1,3C123.5,404,123.5,406.1,123,408z"/>
</g>
<g class="st4">
	<path class="st5" d="M123,408c-0.3,1.4-0.8,2.6-1.4,3.8c0.1-1.4,0-2.8-0.3-4.3c-1.7-7.9-9.3-13.2-17.4-12.6
		c-9.1,0.7-17.8,3.8-23.1,6c-1.2-1.1-2.3-2.3-3.3-3.5c0,0,13.7-7.2,28-8.2c8.1-0.6,15.7,4.7,17.4,12.6
		C123.5,404,123.5,406.1,123,408z"/>
</g>
<path class="st2" d="M109.2,421.6c-3.3,0-6.6-0.9-9.4-2.8c-7.6-5-18-12.4-24.2-19.7c-0.5-0.6-0.7-1.4-0.6-2.2
	c0.1-0.8,0.7-1.5,1.4-1.8c0.6-0.3,14.3-7.4,29.1-8.5c9.6-0.7,18.3,5.6,20.2,14.7c0.5,2.5,0.5,5,0,7.4c-1.1,5.3-4.7,9.6-9.9,11.7
	C113.6,421.2,111.4,421.6,109.2,421.6z M81.9,398.2c6.3,6.4,15.4,12.7,20.7,16.1c3.3,2.1,7.5,2.5,11.1,1c3.5-1.4,5.9-4.3,6.7-7.9
	c0.4-1.7,0.3-3.4,0-5.2c-1.4-6.5-7.7-11.1-14.7-10.5C96.1,392.5,86.7,396.1,81.9,398.2z"/>
<path class="st2" d="M122.4,409.5c-4.7-1.9-9.6-3.7-14.5-5.3c-4.9-1.7-9.8-3.2-14.8-4.6c5.2,0.6,10.3,1.3,15.4,2.1
	c5.2,0.8,10.3,1.7,15.4,2.9c1.4,0.3,2.3,1.7,2,3.2C125.7,409.2,123.9,410.1,122.4,409.5z"/>
<path class="st8" d="M127.3,430.7c2.1,0.7,3.9,1.9,5.4,3.2c7.2,6.8,4.9,18.8-4,23.1c-7.2,3.5-19.3,8.7-28.7,10.2
	c0,0,1-15.4,7.5-28.2C111.2,431.8,119.7,428,127.3,430.7z"/>
<g class="st6">
	<path class="st2" d="M132.7,433.9c7.2,6.8,4.9,18.8-4,23.1c-7.2,3.5-19.2,8.7-28.7,10.2c0,0,0-0.3,0.1-1c8.1-4.3,17-11.5,22.4-16.3
		c6.1-5.3,6.6-14.4,1.8-20.1c1,0.1,2.1,0.4,3.1,0.7C129.4,431.4,131.2,432.5,132.7,433.9z"/>
</g>
<g class="st4">
	<path class="st5" d="M132.7,433.9c1,1,1.8,2,2.5,3.2c-1.1-0.8-2.4-1.5-3.8-2c-7.7-2.7-16.2,1.1-19.9,8.3c-4.1,8.1-6,17.2-6.9,22.8
		c-1.6,0.4-3.2,0.7-4.7,1c0,0,1-15.4,7.5-28.2c3.7-7.2,12.2-11,19.9-8.3C129.4,431.4,131.2,432.5,132.7,433.9z"/>
</g>
<path class="st2" d="M100,469.9c-0.7,0-1.3-0.2-1.8-0.7c-0.6-0.5-0.9-1.3-0.9-2.1c0-0.7,1.1-16.1,7.8-29.3
	c4.4-8.5,14.3-12.7,23.1-9.7c2.4,0.8,4.5,2.1,6.3,3.8c4,3.7,5.8,9,4.9,14.5c-0.9,5.6-4.5,10.5-9.6,12.9c-8.2,3.9-20,8.9-29.4,10.5
	C100.3,469.9,100.1,469.9,100,469.9z M122.3,432.5c-5,0-9.9,2.9-12.4,7.8c-4.4,8.6-6.2,18.6-6.9,23.7c8.7-2.1,18.9-6.6,24.6-9.3
	c3.6-1.7,6-5.1,6.6-9c0.6-3.7-0.6-7.3-3.3-9.8c-1.3-1.2-2.7-2.1-4.4-2.7C125.1,432.7,123.7,432.5,122.3,432.5z"/>
<path class="st2" d="M133.6,435.2c-8.2,6.2-16.1,12.8-23.7,19.8c6.4-8.2,13.1-16.2,20.2-23.8C132.9,428.5,136.6,432.8,133.6,435.2z"
	/>
<path class="st8" d="M614.4,306.8c1.7,1.8,3.6,3.2,5.6,4.1c10,4.4,21.3-3.1,21.9-14c0.5-8.8,0.7-23.4-1.8-33.7
	c0,0-15.3,7.6-25.6,19.7C608.6,289.8,608.3,300.1,614.4,306.8z"/>
<g class="st6">
	<path class="st2" d="M619.9,310.9c10,4.4,21.3-3.1,21.9-14c0.5-8.8,0.7-23.4-1.8-33.7c0,0-0.3,0.2-0.9,0.5
		c-0.9,10.1-4.5,22.2-7,29.8c-2.8,8.5-11.9,12.9-19.8,10.4c0.6,1,1.3,1.9,2.1,2.9C616,308.7,617.9,310,619.9,310.9z"/>
</g>
<g class="st4">
	<path class="st5" d="M619.9,310.9c1.4,0.6,2.9,1,4.3,1.2c-1.3-0.8-2.5-1.8-3.6-3.1c-6-6.7-5.8-17,0-23.8c6.5-7.7,15-13.5,20.4-16.8
		c-0.3-1.8-0.6-3.5-1-5.2c0,0-15.3,7.6-25.6,19.7c-5.8,6.9-6,17.1,0,23.8C616,308.7,617.9,310,619.9,310.9z"/>
</g>
<path class="st2" d="M626.1,314.9c-2.4,0-4.9-0.5-7.2-1.5c-2.5-1.1-4.7-2.7-6.5-4.8c-6.8-7.6-6.8-19.3,0-27.3
	c10.5-12.5,25.8-20.1,26.5-20.4c0.7-0.3,1.6-0.4,2.3,0c0.7,0.3,1.3,1,1.5,1.8c2.5,10.3,2.4,24.4,1.9,34.4c-0.3,6.2-3.7,11.9-9,15.1
	C632.6,314,629.3,314.9,626.1,314.9z M638.1,267.3c-4.9,2.8-14.6,9-21.7,17.4c-5.1,6-5.1,14.8-0.1,20.4c1.3,1.5,2.9,2.6,4.7,3.4
	c3.8,1.7,8.1,1.4,11.7-0.9c3.8-2.3,6.2-6.4,6.5-10.9C639.6,289.7,639.8,277.1,638.1,267.3z"/>
<path class="st2" d="M616.3,309.5c2.3-5.3,4.8-10.5,7.3-15.7c2.6-5.2,5.2-10.2,8-15.2c-3,8.1-5.7,16.2-8.1,24.4
	c-0.8,2.7-1.6,5.5-2.3,8.2C620.3,314.8,615,313.1,616.3,309.5z"/>
<path class="st8" d="M635.7,318.1c-1.1,2.2-1.6,4.5-1.7,6.7c-0.3,11,10.9,18.6,21.3,14.9c8.3-2.9,21.9-8.3,30.5-14.5
	c0,0-12.8-11.3-28-16.2C649.2,306.3,639.7,310,635.7,318.1z"/>
<g class="st6">
	<path class="st2" d="M634.1,324.8c-0.3,11,10.9,18.6,21.3,14.9c8.3-2.9,21.9-8.2,30.5-14.5c0,0-0.3-0.3-0.8-0.7
		c-9.7,3-22.3,4.3-30.3,4.8c-8.9,0.6-16.4-6.1-17.1-14.3c-0.7,0.9-1.3,1.9-1.9,3C634.7,320.3,634.1,322.6,634.1,324.8z"/>
</g>
<g class="st4">
	<path class="st5" d="M634.1,324.8c0,1.5,0.1,3,0.5,4.4c0.3-1.5,0.7-3,1.5-4.5c3.9-8.1,13.5-11.8,22.1-9c9.6,3.1,18.2,8.7,23.3,12.5
		c1.6-0.9,3.1-1.9,4.4-2.9c0,0-12.8-11.3-28-16.2c-8.6-2.8-18.2,0.9-22.1,9C634.7,320.3,634.1,322.6,634.1,324.8z"/>
</g>
<path class="st2" d="M650,343.3c-4,0-7.9-1.2-11.1-3.6c-4.9-3.6-7.6-9-7.4-14.9c0.1-2.7,0.7-5.3,1.9-7.8
	c4.4-9.1,15.3-13.6,25.3-10.4c15.5,5,28.4,16.3,28.9,16.7c0.6,0.5,0.9,1.3,0.9,2.1c0,0.8-0.4,1.5-1.1,2
	c-8.6,6.2-21.7,11.5-31.1,14.8C654.2,343,652.1,343.3,650,343.3z M638.1,319.3c-0.9,1.8-1.3,3.7-1.4,5.6c-0.1,4.2,1.8,8,5.2,10.5
	c3.6,2.6,8.3,3.3,12.5,1.9c6.7-2.3,18.4-6.8,26.9-12.2c-4.4-3.4-13.9-10.1-24.3-13.5C649.5,309.2,641.4,312.5,638.1,319.3z"/>
<path class="st2" d="M634,321c5.8,0.1,11.5,0.4,17.3,0.8c5.7,0.4,11.5,1,17.1,1.7c-8.6,0.3-17.1,0.9-25.6,1.8
	c-2.8,0.3-5.7,0.6-8.5,1C630.6,326.6,630.2,321.1,634,321z"/>
<path class="st2" d="M165.9,334.2c-0.2,0-0.4,0-0.6-0.1l-12.5-2.8c-1.4-0.3-2.3-1.7-2-3.2c0.3-1.4,1.7-2.3,3.2-2l12.5,2.8
	c1.4,0.3,2.3,1.7,2,3.2C168.2,333.4,167.1,334.2,165.9,334.2z"/>
<path class="st2" d="M131.9,435c-0.8,0-1.6-0.4-2.1-1.1c-0.9-1.2-0.6-2.8,0.6-3.7c12.9-9.5,24.3-24.1,24.4-24.3
	c0.9-1.1,2.6-1.4,3.7-0.5c1.1,0.9,1.4,2.6,0.5,3.7c-0.5,0.6-12,15.4-25.5,25.3C133,434.8,132.4,435,131.9,435z"/>
<path class="st2" d="M145.8,422.6c-0.3,0-0.6-0.1-0.9-0.1c-0.7-0.2-16-5.6-22.8-11.1c-1.1-0.9-1.3-2.6-0.4-3.7
	c0.9-1.1,2.6-1.3,3.7-0.4c6.1,4.9,21.1,10.2,21.2,10.3c1.4,0.5,2.1,2,1.6,3.4C148,421.9,146.9,422.6,145.8,422.6z"/>
<path class="st2" d="M604.9,362.3c-0.2,0-0.5,0-0.7-0.1c-1.4-0.4-2.2-1.9-1.8-3.3c9-31.3,15.1-49,15.1-49.1c0.5-1.4,2-2.1,3.4-1.6
	c1.4,0.5,2.1,2,1.6,3.4c-0.1,0.2-6.1,17.7-15,48.9C607.1,361.5,606.1,362.3,604.9,362.3z"/>
<path class="st2" d="M612.4,336.8c-0.8,0-1.5-0.3-2.1-1c-0.9-1.1-0.7-2.8,0.4-3.7c0.3-0.3,8.8-7,22-8.4c1.5-0.2,2.8,0.9,2.9,2.4
	c0.1,1.5-0.9,2.8-2.4,2.9c-11.6,1.2-19.2,7.1-19.2,7.2C613.6,336.6,613,336.8,612.4,336.8z"/>
<g class="st6">
	<path class="st2" d="M342.3,449.7c-23.2-13.5-22.3-39.6-22.3-39.6l4.5,0.1l14.6,3.6C339.1,413.9,329.5,431.1,342.3,449.7z"/>
</g>
<g class="st6">
	<path class="st2" d="M353.9,454.7c-4.4-1.3-8.2-3-11.6-5c-1.3-0.8-2.6-1.6-3.8-2.5c38,8.5,34.3-34.1,34.3-34.1h6.7
		C399.3,422.2,386.3,464.3,353.9,454.7z"/>
</g>
<path class="st2" d="M366.8,456l-5.3,0.1l1,92.1l5.3-0.1L366.8,456z"/>
<path class="st9" d="M365.2,581.7c24.2,0,43.8-19.6,43.8-43.8c0-24.2-19.6-43.8-43.8-43.8s-43.8,19.6-43.8,43.8
	C321.3,562.1,341,581.7,365.2,581.7z"/>
<g class="st10">
	<path class="st2" d="M409,537.9c0,24.2-19.6,43.8-43.8,43.8c-15.1,0-28.3-7.6-36.2-19.2c5.9,3,12.7,4.7,19.8,4.7
		c24.2,0,43.8-19.6,43.8-43.8c0-9.2-2.8-17.7-7.6-24.7C399.2,506,409,520.8,409,537.9z"/>
</g>
<g class="st4">
	<path class="st5" d="M401.4,513.1c-7.9-7.6-18.6-12.3-30.4-12.3c-24.2,0-43.8,19.6-43.8,43.8c0,9.2,2.8,17.7,7.6,24.7
		c-8.3-8-13.4-19.1-13.4-31.5c0-24.2,19.6-43.8,43.8-43.8C380.2,494,393.5,501.6,401.4,513.1z"/>
</g>
<path class="st2" d="M365.2,585.3c-26.2,0-47.4-21.3-47.4-47.4c0-26.2,21.3-47.4,47.4-47.4s47.4,21.3,47.4,47.4
	C412.6,564,391.3,585.3,365.2,585.3z M365.2,497.6c-22.2,0-40.2,18-40.2,40.2c0,22.2,18,40.2,40.2,40.2s40.2-18,40.2-40.2
	C405.4,515.7,387.4,497.6,365.2,497.6z"/>
<path class="st2" d="M327.8,557.4c-1.1,0-2.1-0.1-3.2-0.2l0.4-4.3c11.5,1.2,24.7-5.7,34.2-18c9.9-12.8,13.7-28.4,9.5-39.7l4.1-1.5
	c4.8,12.9,0.9,29.7-10.1,43.9C352.9,550.1,340,557.4,327.8,557.4z"/>
<path class="st2" d="M335.9,570.6c-1.1,0-2-0.8-2.1-1.9c-0.2-1.2,0.7-2.3,1.8-2.4c12.3-1.7,25.1-10.6,35.1-24.4
	c10.2-14.1,15.2-30.3,13.1-42.2c-0.2-1.2,0.6-2.3,1.7-2.5c1.2-0.2,2.3,0.6,2.5,1.7c2.3,13.1-3,30.5-13.9,45.5
	c-10.7,14.8-24.6,24.3-38,26.2C336.1,570.6,336,570.6,335.9,570.6z"/>
<path class="st2" d="M350.9,580.2c-0.8,0-1.6-0.5-1.9-1.2c-0.5-1.1-0.1-2.4,1-2.9c23.9-11.3,39.8-33.6,47.2-66.2
	c0.3-1.2,1.4-1.9,2.6-1.6c1.2,0.3,1.9,1.4,1.6,2.6c-7.7,34-24.3,57.2-49.6,69.2C351.6,580.2,351.3,580.2,350.9,580.2z"/>
<path class="st2" d="M365.9,583.9c-0.7,0-1.4-0.4-1.8-1c-0.6-1-0.3-2.3,0.7-3c29.5-18,40-55.3,40.1-55.6c0.3-1.1,1.5-1.8,2.7-1.5
	c1.1,0.3,1.8,1.5,1.5,2.7c-0.4,1.6-11.1,39.3-42,58.2C366.7,583.8,366.3,583.9,365.9,583.9z"/>
<path class="st2" d="M343.4,551.6c-0.7,0-1.3-0.3-1.8-0.9c-6.7-9.6-17.9-8.5-18-8.5c-1.2,0.1-2.3-0.7-2.4-1.9
	c-0.1-1.2,0.7-2.3,1.9-2.4c0.6-0.1,13.9-1.3,22,10.3c0.7,1,0.4,2.3-0.5,3C344.3,551.5,343.9,551.6,343.4,551.6z"/>
<path class="st2" d="M351.9,544.7c-0.6,0-1.2-0.3-1.7-0.8c-12.3-15-27.9-12.8-28.6-12.7c-1.2,0.2-2.3-0.6-2.5-1.8
	c-0.2-1.2,0.6-2.3,1.8-2.5c0.8-0.1,18.7-2.7,32.6,14.2c0.8,0.9,0.6,2.3-0.3,3C352.9,544.5,352.4,544.7,351.9,544.7z"/>
<path class="st2" d="M361.2,536c-0.6,0-1.3-0.3-1.7-0.8c-12.7-16-32.3-16.9-32.5-16.9c-1.2,0-2.1-1-2.1-2.2c0-1.2,1.1-2.1,2.2-2.1
	c0.9,0,21.7,0.9,35.8,18.6c0.7,0.9,0.6,2.3-0.3,3C362.2,535.9,361.7,536,361.2,536z"/>
<path class="st2" d="M367.3,525.6c-0.7,0-1.3-0.3-1.7-0.9c-10-13.4-22.9-16.1-27.2-16.9c-1.2-0.2-1.7-0.3-2.2-0.7
	c-0.9-0.7-1.1-2.1-0.4-3c0.6-0.8,1.7-1.1,2.6-0.7c0.2,0.1,0.5,0.1,0.9,0.2c4.6,0.9,18.8,3.8,29.8,18.6c0.7,1,0.5,2.3-0.4,3
	C368.2,525.5,367.7,525.6,367.3,525.6z"/>
<path class="st2" d="M372.3,512.5c-0.7,0-1.3-0.3-1.8-0.9c-5.5-7.9-14.4-10.9-17.8-12.1c-0.5-0.2-1-0.3-1.2-0.4
	c-1.1-0.5-1.6-1.7-1.1-2.8c0.5-1.1,1.7-1.6,2.8-1.1c0.2,0.1,0.5,0.2,0.9,0.3c3.7,1.3,13.6,4.7,19.9,13.7c0.7,1,0.4,2.3-0.5,3
	C373.2,512.4,372.7,512.5,372.3,512.5z"/>
<g class="st4">
	<path class="st5" d="M307,286.1c2.8-1.2,4.7-3,4.3-3.8c-0.4-0.9-2.9-0.6-5.7,0.7c-2.7,1.2-4.7,2.9-4.3,3.8
		C301.7,287.7,304.3,287.4,307,286.1z"/>
</g>
<g>
	<defs>
		<rect id="SVGID_1_" x="50" y="29" width="569" height="569"/>
	</defs>
	<clipPath id="SVGID_2_">
		<use xlink:href="#SVGID_1_"  style="overflow:visible;"/>
	</clipPath>
	<g class="st11">
		<path class="st2" d="M340.1,254.8c8.2-3.4,11.6-14.1,7.5-23.8c-4-9.7-14-14.8-22.2-11.4c-8.2,3.4-11.5,14.1-7.5,23.8
			C322,253.1,331.9,258.2,340.1,254.8z"/>
		<path class="st5" d="M338.5,238.7c2.7-0.9,3.8-4.7,2.5-8.6c-1.3-3.8-4.5-6.2-7.1-5.4c-2.7,0.9-3.8,4.7-2.5,8.6
			C332.6,237.2,335.9,239.6,338.5,238.7z"/>
		<g class="st12">
			<path class="st5" d="M336.8,250.1c1-1.5-0.5-4.1-3.2-5.8s-5.7-1.9-6.6-0.4c-1,1.5,0.5,4.1,3.2,5.8
				C332.8,251.4,335.8,251.6,336.8,250.1z"/>
		</g>
		<path class="st2" d="M264.6,288.1c8.2-3.4,11.6-14.1,7.5-23.8c-4-9.7-14-14.8-22.2-11.4c-8.2,3.4-11.6,14.1-7.5,23.8
			C246.5,286.4,256.5,291.5,264.6,288.1z"/>
		<path class="st5" d="M263,272.1c2.7-0.9,3.8-4.7,2.5-8.6c-1.3-3.8-4.5-6.2-7.1-5.4s-3.8,4.7-2.5,8.6
			C257.2,270.6,260.4,273,263,272.1z"/>
		<g class="st12">
			<path class="st5" d="M261.3,283.5c1-1.5-0.5-4.1-3.2-5.8s-5.7-1.9-6.6-0.4c-1,1.5,0.5,4.1,3.2,5.8
				C257.4,284.8,260.3,285,261.3,283.5z"/>
		</g>
		<g>
			<path class="st9" d="M159.7,54.9h-10.1c0-2.8,0.4-5,1.2-6.8c0.9-1.9,2.2-3.6,3.9-5.2c1.8-1.6,3.8-2.9,6.3-3.9
				c2.5-1.1,5.5-1.6,9-1.6c2.6,0,5.1,0.4,7.6,1.2c2.6,0.8,4.8,2,6.6,3.6c2.1,1.8,3.6,3.9,4.7,6.4c1.1,2.4,1.7,5.2,1.7,8.3
				c0,2.4-0.3,4.6-1,6.6c-0.7,1.9-1.5,3.6-2.4,5.1c-0.8,1.1-1.7,2.1-2.8,2.9c-1.1,0.8-1.8,1.3-2.3,1.6c2.3,0.6,4.4,1.9,6.4,4.1
				c2.1,2.1,3.2,6.2,3.3,12.1c0,2.9-0.5,5.8-1.5,8.5c-1,2.7-2.4,5-4.1,7c-1.9,1.9-4.3,3.4-7,4.5c-2.7,1-5.7,1.5-9,1.5
				c-3.4,0-6.4-0.4-9-1.2c-2.6-0.9-4.7-2.1-6.5-3.7c-1.8-1.4-3.3-3-4.3-4.9c-1-1.9-1.7-4.6-2.1-8.1h11.5c0,1.8,0.2,3,0.6,3.8
				c0.4,0.8,1.1,1.5,1.9,2.2c0.9,0.8,1.9,1.4,3.2,1.9c1.3,0.4,2.7,0.7,4.3,0.7c3.4,0,6.1-1.2,8.1-3.5c2-2.3,3-5.4,3-9.2
				c0-2.3-0.3-4.1-1-5.5c-0.6-1.5-1.4-2.7-2.4-3.6c-1.1-0.9-2.4-1.5-3.8-2c-1.4-0.4-2.7-0.7-3.9-0.8h-8.1v-9.2h8.1
				c3.5-0.2,6.1-1.2,7.9-2.9c1.8-1.8,2.7-4.3,2.7-7.8c0-3.2-0.9-5.7-2.7-7.4c-1.8-1.8-4.1-2.7-6.9-2.7c-3,0-5.4,0.8-7.3,2.3
				C161.2,50.5,160,52.4,159.7,54.9z M199.5,109.6V38.7h36.3v10h-25.7v60.8H199.5z M243.7,109.6V39.1h4.4V28.2h11.5v10.9h5.5V28.2
				h11.5v10.9h3.2v10h-25.7v18.6h24.6v9.9h-24.6v21.9h26.4v10H243.7z"/>
		</g>
	</g>
</g>
</svg>
